<svg width="53" height="63" viewBox="0 0 53 63" fill="none" xmlns="http://www.w3.org/2000/svg">
<path d="M42.9621 16.4238L18.4697 60.5905C24.4925 62.9996 37.3409 63.8026 48.1818 49.7496C56.8546 38.5072 48.3157 22.8481 42.9621 16.4238Z" fill="#D3ECAB"/>
<path fill-rule="evenodd" clip-rule="evenodd" d="M26.5 60.5C39.7548 60.5 50.5 49.7548 50.5 36.5C50.5 23.2452 39.7548 12.5 26.5 12.5C13.2452 12.5 2.5 23.2452 2.5 36.5C2.5 49.7548 13.2452 60.5 26.5 60.5ZM26.5 63C41.1355 63 53 51.1355 53 36.5C53 21.8645 41.1355 10 26.5 10C11.8645 10 0 21.8645 0 36.5C0 51.1355 11.8645 63 26.5 63Z" fill="#414141"/>
<path fill-rule="evenodd" clip-rule="evenodd" d="M19.0336 28.8056C16.3506 29.4369 14.1383 31.6836 14.5512 35.1928C14.8949 38.1141 16.929 40.7221 19.5801 42.8518C22.2081 44.963 25.2558 46.4509 27.2332 47.1627L26.3864 49.5149C24.197 48.7268 20.8948 47.1147 18.0144 44.8008C15.1572 42.5056 12.5246 39.3635 12.0683 35.4849C11.4812 30.4941 14.7689 27.2408 18.461 26.3721C22.1203 25.511 25.8079 25.8752 27.3098 30.3809L26.3098 32.3809C25.3117 29.3865 21.7493 28.1666 19.0336 28.8056Z" fill="#414141"/>
<path fill-rule="evenodd" clip-rule="evenodd" d="M33.5861 28.8056C36.2691 29.4369 38.4813 31.6836 38.0684 35.1928C37.7247 38.1141 35.6907 40.7221 33.0395 42.8518C30.4115 44.963 27.3638 46.4509 25.3865 47.1627L26.2333 49.5149C28.4226 48.7268 31.7249 47.1147 34.6052 44.8008C37.4624 42.5056 40.095 39.3635 40.5513 35.4849C41.1385 30.4941 37.8507 27.2408 34.1587 26.3721C30.4994 25.511 26.8117 25.8752 25.3098 30.3809L26.3098 32.3809C27.3079 29.3865 30.8704 28.1666 33.5861 28.8056Z" fill="#414141"/>
<path fill-rule="evenodd" clip-rule="evenodd" d="M21.25 5V22H18.75V5H21.25ZM34.25 5V22H31.75V5H34.25Z" fill="#414141"/>
<path fill-rule="evenodd" clip-rule="evenodd" d="M28 0V22H25.5V0H28Z" fill="#414141"/>
</svg>
