<svg width="20" height="26" viewBox="0 0 20 26" fill="none" xmlns="http://www.w3.org/2000/svg">
<path d="M16.249 14.41C15.463 16.003 14.398 17.59 13.309 19.015C12.2759 20.3584 11.1713 21.6453 10 22.87C8.82862 21.6453 7.72403 20.3584 6.691 19.015C5.602 17.59 4.537 16.003 3.751 14.41C2.956 12.8005 2.5 11.293 2.5 10C2.5 8.01088 3.29018 6.10322 4.6967 4.6967C6.10322 3.29018 8.01088 2.5 10 2.5C11.9891 2.5 13.8968 3.29018 15.3033 4.6967C16.7098 6.10322 17.5 8.01088 17.5 10C17.5 11.293 17.0425 12.8005 16.249 14.41ZM10 25C10 25 19 16.471 19 10C19 7.61305 18.0518 5.32387 16.364 3.63604C14.6761 1.94821 12.3869 1 10 1C7.61305 1 5.32387 1.94821 3.63604 3.63604C1.94821 5.32387 1 7.61305 1 10C1 16.471 10 25 10 25Z" fill="white"/>
<path d="M10 13C9.20435 13 8.44129 12.6839 7.87868 12.1213C7.31607 11.5587 7 10.7956 7 10C7 9.20435 7.31607 8.44129 7.87868 7.87868C8.44129 7.31607 9.20435 7 10 7C10.7956 7 11.5587 7.31607 12.1213 7.87868C12.6839 8.44129 13 9.20435 13 10C13 10.7956 12.6839 11.5587 12.1213 12.1213C11.5587 12.6839 10.7956 13 10 13ZM10 14.5C11.1935 14.5 12.3381 14.0259 13.182 13.182C14.0259 12.3381 14.5 11.1935 14.5 10C14.5 8.80653 14.0259 7.66193 13.182 6.81802C12.3381 5.97411 11.1935 5.5 10 5.5C8.80653 5.5 7.66193 5.97411 6.81802 6.81802C5.97411 7.66193 5.5 8.80653 5.5 10C5.5 11.1935 5.97411 12.3381 6.81802 13.182C7.66193 14.0259 8.80653 14.5 10 14.5Z" fill="white"/>
<path d="M16.249 14.41C15.463 16.003 14.398 17.59 13.309 19.015C12.2759 20.3584 11.1713 21.6453 10 22.87C8.82862 21.6453 7.72403 20.3584 6.691 19.015C5.602 17.59 4.537 16.003 3.751 14.41C2.956 12.8005 2.5 11.293 2.5 10C2.5 8.01088 3.29018 6.10322 4.6967 4.6967C6.10322 3.29018 8.01088 2.5 10 2.5C11.9891 2.5 13.8968 3.29018 15.3033 4.6967C16.7098 6.10322 17.5 8.01088 17.5 10C17.5 11.293 17.0425 12.8005 16.249 14.41ZM10 25C10 25 19 16.471 19 10C19 7.61305 18.0518 5.32387 16.364 3.63604C14.6761 1.94821 12.3869 1 10 1C7.61305 1 5.32387 1.94821 3.63604 3.63604C1.94821 5.32387 1 7.61305 1 10C1 16.471 10 25 10 25Z" stroke="white" stroke-width="0.2"/>
<path d="M10 13C9.20435 13 8.44129 12.6839 7.87868 12.1213C7.31607 11.5587 7 10.7956 7 10C7 9.20435 7.31607 8.44129 7.87868 7.87868C8.44129 7.31607 9.20435 7 10 7C10.7956 7 11.5587 7.31607 12.1213 7.87868C12.6839 8.44129 13 9.20435 13 10C13 10.7956 12.6839 11.5587 12.1213 12.1213C11.5587 12.6839 10.7956 13 10 13ZM10 14.5C11.1935 14.5 12.3381 14.0259 13.182 13.182C14.0259 12.3381 14.5 11.1935 14.5 10C14.5 8.80653 14.0259 7.66193 13.182 6.81802C12.3381 5.97411 11.1935 5.5 10 5.5C8.80653 5.5 7.66193 5.97411 6.81802 6.81802C5.97411 7.66193 5.5 8.80653 5.5 10C5.5 11.1935 5.97411 12.3381 6.81802 13.182C7.66193 14.0259 8.80653 14.5 10 14.5Z" stroke="white" stroke-width="0.2"/>
</svg>
