<svg width="166" height="34" viewBox="0 0 166 34" fill="none" xmlns="http://www.w3.org/2000/svg">
<path d="M0.5 28.64H22.29V33.16H0.5V28.64ZM158.08 14.13L164.95 6.55H159.83L154.2 12.85V6.55H150.12V22.48H154.22V15.77L160.24 22.48H165.5L158.08 14.13ZM24.69 15.18C24.58 18.18 24.2 18.75 22.54 18.75V22.49H23.16C27.33 22.49 28.32 20.34 28.47 15.55L28.65 10.25H32.5V22.48H36.58V6.55H24.97L24.69 15.18ZM6.98 17.92H15.58L17.01 22.48H21.78L15.35 3.32C14.73 1.47 14.01 0 11.55 0C9.09 0 8.34 1.47 7.68 3.32L0.940001 22.48H5.42L6.98 17.92ZM11.34 5H11.45L14.33 14.08H8.27L11.34 5ZM106.65 8.81H102.1V4.31H112.66V0.31H97.82V22.48H106.65C111.54 22.48 114.35 20.04 114.35 15.58C114.35 11.35 111.5 8.81 106.65 8.81ZM106.44 18.47H102.1V12.71H106.44C108.7 12.71 109.97 13.71 109.97 15.59C109.97 17.47 108.7 18.47 106.44 18.47ZM66.09 6.18V0.28H62.02V6.18C59.8829 6.2505 57.8611 7.1663 56.3986 8.7262C54.9362 10.2862 54.1526 12.3628 54.22 14.5C54.1472 16.6416 54.928 18.7244 56.3908 20.2903C57.8535 21.8563 59.8784 22.777 62.02 22.85V28.85H66.1V22.85C67.1608 22.8151 68.2044 22.5714 69.1708 22.1326C70.1373 21.6939 71.0077 21.0688 71.7323 20.2932C72.4568 19.5175 73.0212 18.6066 73.3932 17.6125C73.7652 16.6184 73.9374 15.5607 73.9 14.5C73.9428 13.4386 73.7737 12.3793 73.4028 11.384C73.0318 10.3886 72.4663 9.4771 71.7393 8.7026C71.0123 7.9282 70.1383 7.3062 69.1684 6.8731C68.1984 6.44 67.152 6.2044 66.09 6.18ZM62.03 19C60.9502 18.8814 59.9603 18.3431 59.2738 17.5013C58.5872 16.6595 58.259 15.5816 58.36 14.5C58.272 13.4211 58.6049 12.35 59.2891 11.5112C59.9732 10.6723 60.9555 10.1308 62.03 10V19ZM66.11 19V10C67.1845 10.1308 68.1668 10.6723 68.8509 11.5112C69.5351 12.35 69.868 13.4211 69.78 14.5C69.8757 15.5805 69.5456 16.6556 68.86 17.4963C68.1745 18.3369 67.1877 18.8765 66.11 19ZM89.19 17.59V12.22C89.19 8.3 86.7 5.85 82.52 5.85C78.34 5.85 75.9 8.45 75.7 11.16H79.83C79.97 10.58 80.59 9.55 82.51 9.55C82.869 9.5038 83.233 9.5416 83.574 9.6606C83.916 9.7796 84.225 9.9763 84.477 10.2354C84.729 10.4944 84.918 10.8086 85.028 11.153C85.138 11.4975 85.166 11.8628 85.11 12.22H81.11C77.49 12.22 75.34 14.13 75.34 17.29C75.3118 18.0441 75.4422 18.7957 75.7228 19.4962C76.0035 20.1967 76.4281 20.8304 76.9692 21.3564C77.5102 21.8824 78.1557 22.2889 78.8639 22.5497C79.572 22.8104 80.327 22.9195 81.08 22.87C81.9301 22.9147 82.778 22.7492 83.549 22.3882C84.32 22.0271 84.99 21.4817 85.5 20.8C85.832 21.3615 86.316 21.8173 86.897 22.1146C87.477 22.412 88.13 22.5387 88.78 22.48H90.19V18.8C89.5 18.8 89.19 18.47 89.19 17.59ZM85.11 16.59C85.127 16.9839 85.06 17.3769 84.913 17.743C84.767 18.1091 84.545 18.4401 84.262 18.7141C83.978 18.9881 83.64 19.1989 83.269 19.3327C82.898 19.4664 82.503 19.52 82.11 19.49C80.64 19.49 79.48 18.96 79.48 17.37C79.48 15.78 80.77 15.55 81.86 15.55H85.11V16.59ZM46.74 11.39H43.81V6.55H39.73V22.48H46.81C51.24 22.48 52.81 19.6 52.81 16.88C52.83 13.37 50.63 11.39 46.74 11.39ZM46.44 19H43.81V15H46.44C47.85 15 48.7 15.64 48.7 17C48.7 18.36 47.89 19 46.44 19ZM129.92 17.59V12.22C129.92 8.3 127.43 5.85 123.25 5.85C119.07 5.85 116.63 8.45 116.43 11.16H120.56C120.7 10.58 121.32 9.55 123.24 9.55C123.599 9.5038 123.963 9.5416 124.304 9.6606C124.646 9.7796 124.955 9.9763 125.207 10.2354C125.459 10.4944 125.648 10.8086 125.758 11.153C125.868 11.4975 125.896 11.8628 125.84 12.22H121.84C118.22 12.22 116.07 14.13 116.07 17.29C116.042 18.0441 116.172 18.7957 116.453 19.4962C116.733 20.1967 117.158 20.8304 117.699 21.3564C118.24 21.8824 118.886 22.2889 119.594 22.5497C120.302 22.8104 121.057 22.9195 121.81 22.87C122.668 22.9231 123.526 22.7617 124.307 22.4004C125.087 22.039 125.765 21.489 126.28 20.8C126.607 21.3517 127.082 21.8012 127.651 22.098C128.22 22.3948 128.86 22.5271 129.5 22.48H130.91V18.8C130.2 18.8 129.92 18.47 129.92 17.59ZM125.86 16.59C125.875 16.9835 125.807 17.3757 125.66 17.7411C125.513 18.1065 125.291 18.4368 125.008 18.7105C124.725 18.9841 124.387 19.195 124.017 19.3294C123.647 19.4637 123.253 19.5184 122.86 19.49C121.39 19.49 120.23 18.96 120.23 17.37C120.23 15.78 121.52 15.55 122.61 15.55H125.86V16.59ZM142.95 12.48H137.32V6.55H133.24V22.49H137.32V16.21H142.95V22.48H147.03V6.55H142.95V12.48Z" fill="#EF3124"/>
</svg>
