<svg width="54" height="38" viewBox="0 0 54 38" fill="none" xmlns="http://www.w3.org/2000/svg">
<path d="M7 38L9.5 10.7294L11.0729 21.2353C7.83392 21.2353 5.15984 20.3039 3.05071 18.4412C1.0169 16.5784 0 14.0078 0 10.7294C0 7.45098 1.05457 4.84314 3.1637 2.90588C5.27283 0.968627 7.87158 0 10.96 0C14.1236 0 16.7224 1.00588 18.7562 3.01765C20.79 4.9549 21.8069 7.52549 21.8069 10.7294C21.8069 11.698 21.7316 12.6667 21.5809 13.6353C21.4303 14.5294 21.129 15.6471 20.677 16.9882C20.3004 18.2549 19.6601 19.8941 18.7562 21.9059L12.3158 38H7Z" fill="white"/>
<path d="M39.5 38L43.153 10.7294L43.266 21.2353C40.027 21.2353 37.3529 20.3039 35.2438 18.4412C33.21 16.5784 32.1931 14.0078 32.1931 10.7294C32.1931 7.45098 33.2477 4.84314 35.3568 2.90588C37.4659 0.968627 40.0647 0 43.153 0C46.3167 0 48.9155 1.00588 50.9493 3.01765C52.9831 4.9549 54 7.52549 54 10.7294C54 11.698 53.9247 12.6667 53.774 13.6353C53.6234 14.5294 53.3221 15.6471 52.8701 16.9882C52.4935 18.2549 51.8532 19.8941 50.9493 21.9059L44.5089 38H39.5Z" fill="white"/>
</svg>
