<svg width="197" height="57" viewBox="0 0 197 57" fill="none" xmlns="http://www.w3.org/2000/svg">
<path d="M78.5613 22.2835H75.1514V13.6497H80.7874V15.155H76.8152V16.9012H78.5613C80.2709 16.9012 81.3268 18.0175 81.3268 19.5924C81.3222 21.1672 80.2846 22.2835 78.5613 22.2835ZM78.4745 18.4066H76.8106V20.7828H78.4745C79.215 20.7828 79.6584 20.3103 79.6584 19.5924C79.6584 18.8883 79.2195 18.4066 78.4745 18.4066Z" fill="#004388"/>
<path d="M93.4535 13.6497C95.0945 13.6497 96.2647 14.7659 96.2647 16.3408C96.2647 17.9156 95.1036 19.0319 93.4535 19.0319H91.8125V22.2835H90.1487V13.6497H93.4535ZM93.3666 17.5173C94.1071 17.5173 94.6008 17.0587 94.6008 16.3408C94.6008 15.6275 94.1117 15.1504 93.3666 15.1504H91.8125V17.5127H93.3666V17.5173Z" fill="#004388"/>
<path d="M108.977 22.2835V19.0365H107.674L106.216 22.2881H104.241L106.001 18.6984C105.091 18.3001 104.529 17.4385 104.529 16.3454C104.529 14.7706 105.704 13.6543 107.34 13.6543H110.645V22.2881H108.977V22.2835ZM108.977 15.155H107.422C106.682 15.155 106.188 15.6275 106.188 16.3454C106.188 17.0495 106.677 17.5219 107.422 17.5219H108.977V15.155Z" fill="#004388"/>
<path d="M124.349 22.2835V18.6706H121.465V22.2835H119.801V13.6497H121.465V17.1792H124.349V13.6497H126.013V22.2835H124.349Z" fill="#004388"/>
<path d="M139.287 22.126C138.926 22.2696 138.496 22.3576 138.044 22.3576C137.12 22.3576 136.32 22.0288 135.722 21.4127C134.885 20.5512 134.885 19.4117 134.885 17.9666V17.6146C134.885 15.8915 135.063 15.2014 135.722 14.5251C136.32 13.9091 137.111 13.5802 138.03 13.5802C138.496 13.5802 138.917 13.6543 139.287 13.8118C139.694 13.9832 139.922 14.1268 140.388 14.5761L139.287 15.6923C138.821 15.2338 138.519 15.0856 138.03 15.0856C137.586 15.0856 137.23 15.2292 136.965 15.5349C136.544 16.0073 136.544 16.9059 136.544 17.7304V18.1889C136.544 19.56 136.627 20.0324 136.965 20.4076C137.23 20.7087 137.577 20.8569 138.03 20.8569C138.533 20.8569 138.821 20.7087 139.287 20.2501L140.388 21.3664C139.922 21.8111 139.694 21.9547 139.287 22.126Z" fill="#004388"/>
<path d="M154.024 22.2835L151.834 18.3557L150.732 19.6896V22.2835H149.069V13.6497H150.732V17.4061L153.736 13.6497H155.756L152.931 17.0819L155.957 22.2835H154.024Z" fill="#004388"/>
<path d="M169.144 21.413C168.546 22.0429 167.768 22.3579 166.845 22.3579C165.922 22.3579 165.136 22.029 164.537 21.413C163.641 20.4773 163.7 19.0507 163.7 18.0919V17.6195C163.7 15.8964 163.879 15.2062 164.537 14.53C165.136 13.9139 165.926 13.5851 166.845 13.5851C167.755 13.5851 168.546 13.9139 169.144 14.53C169.743 15.1507 169.995 15.9705 169.995 17.3693V17.9761C169.99 19.2036 170.054 20.4542 169.144 21.413ZM167.91 15.5444C167.645 15.2433 167.275 15.0858 166.845 15.0858C166.415 15.0858 166.031 15.2433 165.766 15.5444C165.382 15.9705 165.36 16.7811 165.36 17.8464C165.36 18.9025 165.314 19.9308 165.766 20.394C166.054 20.6858 166.411 20.8525 166.845 20.8525C167.275 20.8525 167.645 20.695 167.91 20.394C168.258 19.9956 168.331 19.5695 168.331 17.8094C168.331 16.392 168.244 15.9196 167.91 15.5444Z" fill="#004388"/>
<path d="M178.867 22.2835V13.6497H184.48V15.155H180.531V17.1792H183.895V18.6845H180.531V20.7828H184.48V22.2881H178.867V22.2835Z" fill="#004388"/>
<path fill-rule="evenodd" clip-rule="evenodd" d="M186.633 43.7755H74.6439C72.8612 43.7755 71.4031 42.298 71.4031 40.4915V30.2458C71.4031 28.4394 72.8612 26.9618 74.6439 26.9618H186.633C188.416 26.9618 189.874 28.4394 189.874 30.2458V40.4915C189.869 42.298 188.416 43.7755 186.633 43.7755Z" fill="url(#paint0_linear_197_6261)"/>
<path d="M83.4751 39.0186L81.8341 35.8087L81.0844 36.7953V39.0186H79.6857V36.7953L78.9361 35.8087L77.3088 39.0186H75.6587L78.0173 34.6924L75.8598 31.7188H77.5419L79.6857 34.9379V31.7188H81.0844V34.9379L83.2282 31.7188H84.9103L82.7666 34.6924L85.116 39.0186H83.4751Z" fill="white"/>
<path d="M91.5886 39.0186V34.3311L88.7866 39.0186H87.5295V31.7188H88.9374V36.3923L91.7394 31.7188H92.9964V39.0186H91.5886Z" fill="white"/>
<path d="M100.036 39.0193V32.9886H98.3948L98.3125 36.0457C98.2622 38.0976 97.4943 39.0193 96.0956 39.0193H95.4785V37.7456H95.7116C96.3607 37.7456 96.8544 37.375 96.8955 35.9808L97.0052 31.7148H101.439V39.0147H100.036V39.0193Z" fill="white"/>
<path d="M108.702 39.0186V34.3311L105.9 39.0186H104.643V31.7188H106.051V36.3923L108.853 31.7188H110.11V39.0186H108.702Z" fill="white"/>
<path d="M121.094 40.6398V39.0186H113.301V31.7188H114.709V37.7495H116.761V31.7188H118.169V37.7495H120.217V31.7188H121.625V37.7495H122.456V40.6398H121.094Z" fill="white"/>
<path d="M128.924 39.0186V35.9616H126.483V39.0186H125.075V31.7188H126.483V34.7017H128.924V31.7188H130.332V39.0186H128.924Z" fill="white"/>
<path d="M137.883 38.2828C137.376 38.8154 136.718 39.0841 135.941 39.0841C135.164 39.0841 134.492 38.8062 133.989 38.2828C133.23 37.4907 133.28 36.2818 133.28 35.4712V35.0729C133.28 33.6185 133.431 33.0349 133.989 32.4605C134.496 31.9371 135.164 31.6592 135.941 31.6592C136.709 31.6592 137.376 31.9371 137.883 32.4605C138.391 32.9839 138.601 33.6787 138.601 34.8598V35.374C138.606 36.4161 138.656 37.4722 137.883 38.2828ZM136.841 33.3174C136.617 33.0626 136.306 32.9283 135.941 32.9283C135.575 32.9283 135.251 33.0626 135.031 33.3174C134.707 33.6787 134.688 34.3642 134.688 35.2674C134.688 36.1614 134.647 37.0322 135.031 37.4212C135.273 37.6667 135.58 37.8103 135.941 37.8103C136.306 37.8103 136.617 37.676 136.841 37.4212C137.134 37.0831 137.198 36.7218 137.198 35.235C137.198 34.0353 137.125 33.637 136.841 33.3174Z" fill="white"/>
<path d="M141.554 39.0186V31.7188H146.299V32.9879H142.957V34.7017H145.8V35.9755H142.957V37.7495H146.299V39.0232H141.554V39.0186Z" fill="white"/>
<path d="M155.939 39.0186H153.054V31.7188H157.822V32.9879H154.462V34.4655H155.939C157.388 34.4655 158.275 35.4104 158.275 36.7443C158.279 38.0737 157.397 39.0186 155.939 39.0186ZM155.87 35.7392H154.462V37.7495H155.87C156.496 37.7495 156.871 37.3511 156.871 36.7443C156.871 36.1468 156.496 35.7392 155.87 35.7392Z" fill="white"/>
<path d="M168.294 32.4556C168.829 33.0114 169.003 33.7155 169.003 34.7206C169.021 34.7808 169.021 35.3042 169.003 35.3691C169.003 36.6428 169.012 37.5229 168.294 38.2825C167.787 38.8152 167.129 39.0838 166.352 39.0838C165.561 39.0838 164.903 38.8198 164.4 38.2825C163.801 37.6665 163.7 36.93 163.682 35.9666H162.599V39.0236H161.191V31.7191H162.599V34.6928H163.691C163.732 33.6275 163.865 33.0207 164.4 32.4556C164.898 31.9229 165.565 31.6543 166.342 31.6543C167.119 31.6543 167.778 31.9229 168.294 32.4556ZM167.595 35.1004C167.595 34.1555 167.522 33.6321 167.252 33.3171C167.028 33.0624 166.704 32.9281 166.342 32.9281C165.981 32.9281 165.652 33.0624 165.442 33.3171C165.159 33.646 165.085 34.2296 165.085 35.1514V35.6007C165.085 36.666 165.168 37.0968 165.442 37.4071C165.666 37.6619 165.99 37.8054 166.342 37.8054C166.694 37.8054 167.033 37.6619 167.252 37.4071C167.554 37.069 167.595 36.5456 167.595 35.5312V35.1004Z" fill="white"/>
<path d="M174.744 31.7188C176.129 31.7188 177.121 32.6637 177.121 33.993C177.121 35.327 176.138 36.2719 174.744 36.2719H173.359V39.0186H171.951V31.7188H174.744ZM174.675 34.9889C175.301 34.9889 175.717 34.5998 175.717 33.993C175.717 33.3862 175.301 32.9879 174.675 32.9879H173.359V34.9889H174.675Z" fill="white"/>
<path d="M184.183 38.2828C183.675 38.8154 183.017 39.0841 182.24 39.0841C181.463 39.0841 180.791 38.8062 180.288 38.2828C179.53 37.4907 179.58 36.2818 179.58 35.4712V35.0729C179.58 33.6185 179.731 33.0349 180.288 32.4605C180.796 31.9371 181.463 31.6592 182.24 31.6592C183.008 31.6592 183.675 31.9371 184.183 32.4605C184.69 32.9839 184.9 33.6787 184.9 34.8598V35.374C184.9 36.4161 184.955 37.4722 184.183 38.2828ZM183.141 33.3174C182.917 33.0626 182.606 32.9283 182.24 32.9283C181.874 32.9283 181.55 33.0626 181.33 33.3174C181.006 33.6787 180.988 34.3642 180.988 35.2674C180.988 36.1614 180.947 37.0322 181.33 37.4212C181.573 37.6667 181.879 37.8103 182.24 37.8103C182.601 37.8103 182.917 37.676 183.141 37.4212C183.433 37.0831 183.497 36.7218 183.497 35.235C183.497 34.0353 183.424 33.637 183.141 33.3174Z" fill="white"/>
<path d="M37.066 50.6585C49.1837 50.6585 60.1906 51.8211 68.2995 53.7109C62.0281 50.8252 50.3904 46.8418 37.066 46.8418C23.7416 46.8418 12.1039 50.8252 5.83252 53.7109C13.9414 51.8211 24.9483 50.6585 37.066 50.6585Z" fill="#F7EB5C"/>
<path d="M23.5175 41.9274L13.2922 43.9006L33.1211 3.34375H42.3225L23.5175 41.9274Z" fill="url(#paint1_linear_197_6261)"/>
<path d="M51.9169 12.6582H61.1183L42.3133 39.097H33.1165L51.9169 12.6582Z" fill="url(#paint2_linear_197_6261)"/>
<path d="M51.9169 41.9274L62.4667 44.6787L42.3133 3.34375H33.1165L51.9169 41.9274Z" fill="url(#paint3_linear_197_6261)"/>
<path d="M23.4626 12.6582H14.2612L33.0662 39.097H42.263L23.4626 12.6582Z" fill="url(#paint4_linear_197_6261)"/>
<path d="M37.066 46.7585C50.7743 46.7585 63.2165 48.0739 72.3905 50.2138C65.2963 46.9484 52.1319 42.4462 37.066 42.4462C21.9955 42.4462 8.83561 46.9484 1.74146 50.2138C10.9154 48.0739 23.3576 46.7585 37.066 46.7585Z" fill="url(#paint5_linear_197_6261)"/>
<defs>
<linearGradient id="paint0_linear_197_6261" x1="71.4058" y1="35.3722" x2="189.871" y2="35.3722" gradientUnits="userSpaceOnUse">
<stop stop-color="#0069B4"/>
<stop offset="0.1718" stop-color="#0058A0"/>
<stop offset="0.3851" stop-color="#00498F"/>
<stop offset="0.5248" stop-color="#004388"/>
</linearGradient>
<linearGradient id="paint1_linear_197_6261" x1="13.2903" y1="23.6221" x2="42.3214" y2="23.6221" gradientUnits="userSpaceOnUse">
<stop stop-color="#0069B4"/>
<stop offset="0.1714" stop-color="#0064AE"/>
<stop offset="0.4085" stop-color="#00579E"/>
<stop offset="0.6632" stop-color="#004388"/>
</linearGradient>
<linearGradient id="paint2_linear_197_6261" x1="33.1144" y1="25.8785" x2="61.1163" y2="25.8785" gradientUnits="userSpaceOnUse">
<stop offset="0.3368" stop-color="#004388"/>
<stop offset="0.5915" stop-color="#00579E"/>
<stop offset="0.8286" stop-color="#0064AE"/>
<stop offset="1" stop-color="#0069B4"/>
</linearGradient>
<linearGradient id="paint3_linear_197_6261" x1="33.1144" y1="24.0114" x2="62.4682" y2="24.0114" gradientUnits="userSpaceOnUse">
<stop stop-color="#0069B4"/>
<stop offset="0.1714" stop-color="#0064AE"/>
<stop offset="0.4085" stop-color="#00579E"/>
<stop offset="0.6632" stop-color="#004388"/>
</linearGradient>
<linearGradient id="paint4_linear_197_6261" x1="14.2627" y1="25.8785" x2="42.2647" y2="25.8785" gradientUnits="userSpaceOnUse">
<stop offset="0.3368" stop-color="#004388"/>
<stop offset="0.5915" stop-color="#00579E"/>
<stop offset="0.8286" stop-color="#0064AE"/>
<stop offset="1" stop-color="#0069B4"/>
</linearGradient>
<linearGradient id="paint5_linear_197_6261" x1="1.73976" y1="46.3262" x2="72.3922" y2="46.3262" gradientUnits="userSpaceOnUse">
<stop stop-color="#0069B4"/>
<stop offset="0.1718" stop-color="#0058A0"/>
<stop offset="0.3851" stop-color="#00498F"/>
<stop offset="0.5248" stop-color="#004388"/>
</linearGradient>
</defs>
</svg>
