<svg width="241" height="98" viewBox="0 0 241 98" fill="none" xmlns="http://www.w3.org/2000/svg">
<path d="M124.481 50.3469H125.619L125.6 44.9378H128.767L128.786 43.8903H124.481V50.3469Z" fill="white"/>
<path d="M134.76 44.1569C134.302 43.9719 133.812 43.8812 133.319 43.8903H130.854V50.3469H132.01V48.4423H133.395C133.89 48.4545 134.382 48.3569 134.836 48.1566C135.222 48.0053 135.549 47.731 135.765 47.3757C135.988 47.0049 136.105 46.5801 136.105 46.1472C136.105 45.7143 135.988 45.2896 135.765 44.9188C135.54 44.5671 135.217 44.2891 134.836 44.1188M132.01 44.8997H133.376C133.799 44.8704 134.22 44.9844 134.571 45.2235C134.701 45.3347 134.804 45.4757 134.87 45.6346C134.936 45.7936 134.963 45.966 134.95 46.1377C134.963 46.3122 134.936 46.4874 134.87 46.6494C134.804 46.8115 134.702 46.9558 134.571 47.071C134.22 47.31 133.799 47.424 133.376 47.3947H132.01V44.8997Z" fill="white"/>
<path d="M140.336 47.6612L138.439 43.9663H137.188L139.729 48.785V48.9373C139.604 49.1883 139.386 49.3799 139.122 49.4706C138.868 49.5431 138.598 49.5431 138.344 49.4706H138.212L137.908 50.4229H138.022C138.302 50.5493 138.606 50.6142 138.913 50.6134H139.046C139.389 50.5814 139.717 50.4564 139.994 50.2515C140.308 50.0036 140.567 49.6921 140.753 49.3373L143.597 44.0425H142.232L140.336 47.6612Z" fill="white"/>
<path d="M145.247 50.3469H146.385V44.9378H149.685V50.3469H150.823V43.8903H145.247V50.3469Z" fill="white"/>
<path d="M153.705 50.3467H154.843V44.9377H158.143V50.3467H159.262V43.8901H153.705V50.3467Z" fill="white"/>
<path d="M165.178 43.8901H164.135L161.31 50.2134V50.4039H162.523L163.187 48.8611H166.297L166.98 50.4039H168.194L165.311 44.0235L165.178 43.8901ZM165.766 47.8327H163.528L164.647 45.2614L165.766 47.8327Z" fill="white"/>
<path d="M179.079 43.8903H177.79L175.856 46.5757H174.756V43.8903H173.637V50.3469H174.756V47.6233H175.856L177.809 50.2897L177.847 50.3469H179.174L176.785 47.0329L179.079 43.8903Z" fill="white"/>
<path d="M186.229 44.7663C185.916 44.465 185.549 44.2259 185.148 44.0616C184.273 43.7381 183.311 43.7381 182.436 44.0616C182.032 44.2211 181.665 44.4608 181.355 44.7663C181.038 45.0701 180.789 45.4372 180.622 45.8441C180.455 46.2509 180.376 46.6883 180.388 47.128C180.382 47.5721 180.466 48.0127 180.634 48.4232C180.801 48.8183 181.046 49.1749 181.355 49.4707C181.665 49.7763 182.032 50.016 182.436 50.1754C182.873 50.3379 183.335 50.4217 183.802 50.423C184.262 50.4291 184.719 50.345 185.148 50.1754C185.549 50.0181 185.915 49.7854 186.229 49.4897C186.53 49.1869 186.774 48.832 186.95 48.4422C187.118 48.0251 187.202 47.5782 187.196 47.128C187.204 46.6777 187.12 46.2304 186.95 45.8139C186.784 45.4187 186.538 45.0621 186.229 44.7663ZM186.058 47.128C186.058 47.4346 186 47.7384 185.888 48.0232C185.77 48.2831 185.61 48.5213 185.413 48.7279C185.209 48.9357 184.964 49.098 184.693 49.204C184.082 49.4367 183.407 49.4367 182.796 49.204C182.532 49.0861 182.288 48.9253 182.076 48.7279C181.88 48.5213 181.719 48.2831 181.602 48.0232C181.489 47.7384 181.431 47.4346 181.431 47.128C181.427 46.8211 181.485 46.5166 181.602 46.2329C181.714 45.9645 181.875 45.7192 182.076 45.5091C182.284 45.3114 182.529 45.1562 182.796 45.052C183.086 44.9367 183.395 44.8785 183.707 44.8806C184.012 44.8765 184.316 44.9349 184.598 45.052C184.865 45.1562 185.11 45.3114 185.319 45.5091C185.519 45.7192 185.68 45.9645 185.793 46.2329C185.909 46.5166 185.967 46.8211 185.963 47.128" fill="white"/>
<path d="M196.394 43.8903H195.465L192.999 48.0994L190.553 43.9474L190.515 43.8903H189.586V50.3469H190.686V46.2139L192.677 49.5279L192.715 49.6041H193.265L195.275 46.1948L195.294 50.2135V50.3469H196.413L196.394 44.0236V43.8903Z" fill="white"/>
<path d="M199.276 50.3469H200.414V44.9378H203.714V50.3469H204.852V43.8903H199.276V50.3469Z" fill="white"/>
<path d="M210.75 43.8901H209.707L206.881 50.2134V50.4039H208.076L208.758 48.8611H211.85L212.532 50.4039H213.746L210.863 44.0235L210.75 43.8901ZM211.356 47.8327H209.1L210.238 45.2614L211.356 47.8327Z" fill="white"/>
<path d="M220.043 46.5566H216.781V43.8901H215.624V50.3467H216.781V47.5851H220.043V50.3467H221.2V43.8901H220.043V46.5566Z" fill="white"/>
<path d="M225.2 48.404V43.8901H224.062V50.3467H225.068L228.519 45.8519V50.3467H229.657V43.8901H228.652L225.2 48.404Z" fill="white"/>
<path d="M234.114 43.3759C234.468 43.6118 234.884 43.7376 235.309 43.7376C235.734 43.7376 236.149 43.6118 236.503 43.3759C236.646 43.254 236.761 43.1022 236.84 42.9312C236.918 42.7601 236.959 42.5739 236.959 42.3855V42.2522H236.067V42.3855C236.067 42.4649 236.051 42.5435 236.018 42.6158C235.985 42.6881 235.937 42.7525 235.878 42.8045C235.713 42.9253 235.512 42.9858 235.309 42.9759C235.111 42.9862 234.916 42.9254 234.759 42.8045C234.694 42.7565 234.643 42.6928 234.61 42.6196C234.577 42.5463 234.563 42.4658 234.569 42.3855V42.2522H233.678V42.3855C233.677 42.5739 233.718 42.7601 233.796 42.9312C233.875 43.1022 233.99 43.254 234.133 43.3759" fill="white"/>
<path d="M237.11 43.8903L233.678 48.4042V43.8903H232.521V50.3469H233.545L236.996 45.852V50.3469H238.115V43.8903H237.11Z" fill="white"/>
<path d="M46.8607 83.6202C46.8607 83.4298 46.9555 83.2012 47.0503 83.1631C47.1452 83.125 47.8279 83.1631 48.5296 83.1631C49.4565 83.2275 50.3829 83.0295 51.2035 82.5917C52.8913 81.5632 53.6689 79.792 53.6689 76.8779C53.6689 72.5735 51.488 69.6404 47.2589 69.6404C46.7585 69.6142 46.2574 69.6787 45.7797 69.8309C45.6004 70.0024 45.4863 70.2315 45.4573 70.4785C45.4573 71.7736 45.3625 74.44 45.3625 81.068C45.3625 84.4392 45.3625 89.4673 45.4573 92.0005C45.4573 93.2956 45.7797 94.0574 46.9745 94.3812C47.9427 94.5931 48.9252 94.7332 49.9139 94.8002C50.0064 95.0497 50.0457 95.316 50.0294 95.5817C50.013 95.8474 49.9414 96.1067 49.8191 96.343H35.6528C35.4636 95.8594 35.4636 95.3219 35.6528 94.8383C36.4693 94.7458 37.2798 94.6059 38.0802 94.4193C39.2371 94.1527 39.3698 93.3527 39.4267 91.8481C39.4836 90.3435 39.5595 86.8199 39.5595 81.3537C39.5595 76.3065 39.5595 73.5639 39.4646 72.1545C39.3698 70.7451 39.1422 69.869 37.9285 69.5833C37.1635 69.4349 36.3912 69.3268 35.6149 69.2595C35.4607 68.7699 35.4607 68.2445 35.6149 67.7549H50.2932C52.4568 67.6619 54.5981 68.2261 56.4377 69.3738C57.4328 70.1277 58.2318 71.112 58.7667 72.2428C59.3016 73.3736 59.5566 74.6174 59.5099 75.8685C59.5521 77.4439 59.1667 79.0012 58.395 80.3735C57.6233 81.7457 56.4944 82.8812 55.1291 83.6583C53.4394 84.6147 51.5311 85.1135 49.5916 85.1058C48.8925 85.1118 48.1943 85.0544 47.5055 84.9344C47.1581 84.5618 46.9045 84.1112 46.7659 83.6202" fill="white"/>
<path d="M68.3854 67.6978C70.0163 67.6978 88.734 67.6978 90.1374 67.6978C90.1863 67.702 90.2321 67.7235 90.2667 67.7583C90.3014 67.7932 90.3228 67.8391 90.327 67.8882C89.9212 69.5754 89.6736 71.2971 89.5874 73.0306C89.0576 73.2694 88.4634 73.3231 87.8996 73.183C87.5583 72.4974 87.4824 72.3259 87.16 71.5831C87.0121 71.1714 86.7418 70.8154 86.3856 70.5632C86.0294 70.3111 85.6045 70.1751 85.1688 70.1737C84.0499 70.1737 79.1192 70.1737 78.4744 70.1737C78.1899 70.1737 77.9623 70.7832 77.9623 71.0118C77.9623 73.9067 77.9623 77.5636 77.9623 80.3634C77.9623 80.5348 78.0951 80.7252 78.2468 80.7252C79.6881 80.7252 83.0258 80.7252 84.5619 80.7252C85.5291 80.7252 85.9084 80.211 86.1928 79.1825C86.3825 78.6683 86.1928 79.1825 86.4014 78.573C86.9853 78.4237 87.6006 78.4569 88.1651 78.6683C88.0703 79.7539 88.1651 80.5729 88.1651 82.0394C88.1651 83.5059 88.0513 84.4392 88.1651 85.6581C87.6039 85.8389 87.0005 85.8389 86.4394 85.6581C86.3876 85.3087 86.2854 84.9686 86.1359 84.6487C86.0503 84.2882 85.8506 83.9653 85.5668 83.7283C85.2831 83.4914 84.9305 83.3532 84.5619 83.3345C83.5378 83.3345 79.8588 83.3345 78.3796 83.3345C78.2278 83.3345 78.0951 83.6202 78.0951 83.7155C78.0951 86.3248 78.0951 90.0578 78.0951 92.3052C78.0675 92.6525 78.1523 92.9996 78.3368 93.2946C78.5213 93.5897 78.7957 93.8172 79.1192 93.9432C81.1523 94.1783 83.1981 94.2865 85.2446 94.2669C87.3496 94.2669 87.9565 93.9812 88.9237 92.8194C89.8909 91.6576 89.6633 92.4195 90.365 90.9148C90.9355 90.9685 91.4802 91.1794 91.939 91.5243C91.7929 93.0399 91.4354 94.5274 90.877 95.943C90.6494 96.4001 90.365 96.6858 88.2789 96.6858H67.4182C67.2668 96.1828 67.2668 95.6461 67.4182 95.1431C68.5742 95.0639 69.7221 94.8919 70.8507 94.6288C71.78 94.4003 72.1972 93.8289 72.2541 92.2481C72.3868 90.1911 72.3868 86.3248 72.3868 81.049C72.3868 77.2398 72.3868 73.4306 72.2541 72.0783C72.1213 70.7261 71.8748 70.1737 70.9456 69.9833C70.0789 69.6581 69.1836 69.4158 68.2716 69.2595C68.1105 68.7642 68.1445 68.2258 68.3664 67.7549" fill="white"/>
<path d="M102.786 94.4955C104.038 94.2098 104.227 93.6194 104.265 92.1719C104.303 90.7244 104.398 85.5439 104.398 81.7537C104.398 76.4399 104.398 73.5449 104.398 71.8498C104.398 70.1547 104.019 69.9452 103.033 69.6595C102.151 69.4658 101.258 69.3322 100.359 69.2595C100.244 68.7646 100.244 68.2498 100.359 67.7549C101.743 67.7549 121.788 67.7549 122.623 67.6216C122.755 67.6216 122.945 67.812 122.888 67.9454C122.439 70.5526 122.16 73.1866 122.054 75.8304C121.533 76.0769 120.942 76.1309 120.385 75.9828C120.164 74.4814 119.789 73.007 119.266 71.5832C119.095 71.1726 118.812 70.8189 118.45 70.5628C118.087 70.3067 117.66 70.1586 117.218 70.1357C115.019 70.021 112.817 70.021 110.618 70.1357C110.353 70.1357 110.163 70.6499 110.163 70.9356C110.163 73.4497 110.163 78.0207 110.163 81.5252C110.163 85.0296 110.163 89.4293 110.163 92.0386C110.163 93.4861 110.486 94.1336 111.604 94.4193C112.633 94.6125 113.671 94.7523 114.715 94.8383C114.806 95.3554 114.76 95.8874 114.582 96.3811H100.51C100.388 95.887 100.388 95.3705 100.51 94.8764C101.307 94.7812 102.179 94.705 102.843 94.5526" fill="white"/>
<path d="M133.603 94.4003C134.892 94.0765 135.139 93.4289 135.234 91.372C135.234 90.3816 135.234 86.6485 135.234 82.5536C135.234 78.0207 135.234 73.0306 135.234 71.8117C135.234 70.5928 134.949 69.9071 134.058 69.6595C133.162 69.4406 132.248 69.3067 131.327 69.2595C131.138 68.776 131.138 68.2384 131.327 67.7549H144.431C144.533 67.9925 144.586 68.2485 144.586 68.5072C144.586 68.7659 144.533 69.0219 144.431 69.2595C143.72 69.3438 143.016 69.4839 142.326 69.6785C141.397 70.0023 141.17 70.5166 141.132 71.9069C141.037 73.9639 141.132 84.5154 141.132 87.7342C141.132 87.9246 141.321 87.8865 141.416 87.7342C142.573 86.2867 151.733 75.7923 153.819 72.8402C153.932 72.6058 154.009 72.3553 154.046 72.0974C154.075 71.8188 154.075 71.538 154.046 71.2594C154.084 70.9252 154.009 70.588 153.834 70.3014C153.659 70.0149 153.393 69.7956 153.079 69.6785C152.287 69.3856 151.456 69.2123 150.614 69.1643C150.488 68.9338 150.421 68.675 150.421 68.412C150.421 68.149 150.488 67.8902 150.614 67.6597H163.528C163.63 67.8973 163.683 68.1533 163.683 68.412C163.683 68.6707 163.63 68.9267 163.528 69.1643C162.729 69.2621 161.937 69.4148 161.158 69.6214C160.267 69.9452 160.039 70.3642 159.944 71.8688C159.944 74.5734 159.944 76.0209 159.944 81.7156C159.944 85.1249 159.944 89.9816 160.096 91.9433C160.096 93.2004 160.418 93.8479 161.215 94.2289C162.182 94.4981 163.173 94.6703 164.173 94.7431C164.325 94.9717 164.173 96.1906 163.946 96.2858H150.671C150.563 96.0429 150.508 95.7801 150.508 95.5145C150.508 95.2488 150.563 94.986 150.671 94.7431C151.504 94.6805 152.329 94.5403 153.136 94.3241C153.914 94.0955 154.16 93.5241 154.236 92.1338C154.236 90.1149 154.236 78.954 154.236 75.9828C154.224 75.9631 154.207 75.9467 154.187 75.9354C154.168 75.9241 154.145 75.9181 154.122 75.9181C154.099 75.9181 154.077 75.9241 154.057 75.9354C154.037 75.9467 154.02 75.9631 154.008 75.9828C152.984 77.4684 142.288 89.8864 141.682 90.6863C141.534 90.8373 141.424 91.0215 141.362 91.2235C141.299 91.4255 141.285 91.6396 141.321 91.8481C141.321 93.3337 141.492 93.9432 142.516 94.3241C143.374 94.5698 144.249 94.7544 145.133 94.8764C145.264 95.38 145.21 95.914 144.981 96.3811H131.27C131.137 96.1906 131.043 95.0288 131.27 94.8383C132.055 94.7595 132.834 94.6323 133.603 94.4574" fill="white"/>
<path d="M173.845 91.9814C171.4 88.823 170.265 84.8376 170.678 80.8585C170.732 79.0262 171.153 77.2236 171.915 75.558C172.677 73.8925 173.766 72.3981 175.116 71.1641C176.728 69.6706 178.635 68.5342 180.713 67.8288C182.791 67.1233 184.993 66.8645 187.177 67.0692C189.121 67.0783 191.041 67.5015 192.811 68.3107C194.58 69.12 196.158 70.2969 197.442 71.7638C198.725 73.2308 199.684 74.9543 200.255 76.8208C200.826 78.6873 200.997 80.6542 200.755 82.5917C200.626 85.9888 199.387 89.2487 197.228 91.8671C195.652 93.6636 193.677 95.0619 191.463 95.9487C189.249 96.8356 186.858 97.1859 184.484 96.9714C182.451 96.9441 180.448 96.4854 178.604 95.6254C176.761 94.7654 175.12 93.5236 173.788 91.9814M190.287 93.7717C192.752 91.7338 193.871 87.7913 194.08 83.6964C194.421 78.8968 193.397 73.8115 190.42 71.0498C189.122 69.7707 187.4 69.0179 185.584 68.9357C184.267 68.8313 182.949 69.116 181.791 69.7547C178.833 71.4688 177.448 75.4685 177.145 79.9633C176.841 84.4582 177.865 89.9244 181.146 92.9527C182.53 94.1809 184.289 94.8996 186.134 94.9907C187.612 95.0903 189.078 94.6582 190.268 93.7717" fill="white"/>
<path d="M208.285 67.6978H221.351C221.514 68.1859 221.514 68.7143 221.351 69.2024C220.614 69.2857 219.885 69.4258 219.17 69.6214C218.241 69.9452 218.013 70.4594 217.975 71.9069C217.975 73.9639 217.975 76.6684 217.975 79.8872C218.004 80.0372 218.085 80.1721 218.203 80.2681C218.62 80.2681 219.284 80.2681 224.859 80.2681C228.481 80.2681 230.112 80.2681 230.662 80.2681C230.757 80.2681 230.947 80.0777 230.947 79.9443C230.947 77.6017 230.947 73.5068 230.947 71.2213C230.973 70.8938 230.893 70.5666 230.718 70.2886C230.544 70.0106 230.285 69.7966 229.98 69.6785C229.154 69.3894 228.292 69.2163 227.419 69.1643C227.298 68.9322 227.235 68.6741 227.235 68.412C227.235 68.1499 227.298 67.8917 227.419 67.6597H240.391C240.493 67.8973 240.545 68.1533 240.545 68.412C240.545 68.6707 240.493 68.9267 240.391 69.1643C239.612 69.235 238.843 69.3882 238.096 69.6214C237.224 69.9452 236.94 70.4213 236.902 71.9069C236.902 74.5353 236.902 76.7637 236.902 82.4584C236.902 85.8677 236.902 90.0768 236.902 91.9814C236.902 93.2385 237.167 93.886 238.021 94.2098C238.968 94.5166 239.948 94.7084 240.941 94.7812C241.063 95.3017 240.995 95.8487 240.751 96.3239H227.476C227.369 96.081 227.314 95.8182 227.314 95.5526C227.314 95.2869 227.369 95.0241 227.476 94.7812C228.279 94.7269 229.074 94.5865 229.847 94.3622C230.681 94.1336 231.061 93.5622 231.099 92.1147C231.099 90.2101 231.099 86.4009 231.099 83.2964C231.101 83.2564 231.096 83.2163 231.083 83.1783C231.07 83.1403 231.05 83.1053 231.023 83.0752C230.997 83.0451 230.965 83.0206 230.929 83.003C230.893 82.9854 230.854 82.9751 230.814 82.9727C229.942 82.9727 227.021 82.9727 224.859 82.9727C220.08 82.9727 218.544 82.9727 218.26 83.125C218.201 83.2056 218.156 83.2958 218.127 83.3917C218.127 86.1914 218.127 90.0768 218.127 91.81C218.127 93.2575 218.355 94.0003 219.473 94.3241C220.336 94.5685 221.218 94.7405 222.109 94.8383C222.244 95.3581 222.176 95.9097 221.92 96.3811H208.398C208.237 95.8795 208.237 95.3399 208.398 94.8383C209.151 94.7577 209.899 94.6305 210.636 94.4574C211.888 94.1336 212.172 93.3908 212.267 91.3339C212.267 90.3625 212.362 86.1533 212.362 82.0394C212.362 77.5255 212.362 73.1259 212.267 71.9069C212.172 70.688 211.945 70.0023 210.996 69.7166C210.164 69.4898 209.314 69.3368 208.455 69.2595C208.293 68.7712 208.293 68.2433 208.455 67.7549" fill="white"/>
<path d="M0 0.693848V96.4572H21.1072L21.1641 50.2325L46.9745 33.0721L72.6331 50.3468H119.266V46.69L73.771 46.6138L46.9934 28.5582L17.4471 48.2327V92.8004H3.64114V4.36973H33.434V30.1771L37.0941 27.8154V0.693848H0Z" fill="url(#paint0_linear_537_6961)"/>
<path d="M16.821 10.674H9.91797V22.711H16.821V10.674Z" fill="url(#paint1_linear_537_6961)"/>
<path d="M27.1571 10.674H20.4248V22.711H27.1571V10.674Z" fill="url(#paint2_linear_537_6961)"/>
<path d="M16.821 26.9392H9.91797V38.9763H16.821V26.9392Z" fill="url(#paint3_linear_537_6961)"/>
<path d="M20.2539 26.9392V38.9572L27.1569 34.3291V26.9392H20.2539Z" fill="url(#paint4_linear_537_6961)"/>
<path d="M42.6506 46.0043C42.6506 46.8519 42.9009 47.6804 43.3697 48.3852C43.8386 49.0899 44.505 49.6391 45.2847 49.9635C46.0644 50.2878 46.9223 50.3727 47.75 50.2074C48.5777 50.042 49.338 49.6339 49.9348 49.0345C50.5315 48.4352 50.9379 47.6717 51.1026 46.8404C51.2672 46.0091 51.1827 45.1475 50.8597 44.3644C50.5368 43.5814 49.9899 42.9121 49.2882 42.4412C48.5865 41.9703 47.7615 41.719 46.9176 41.719C45.7859 41.719 44.7006 42.1705 43.9004 42.9741C43.1002 43.7778 42.6506 44.8678 42.6506 46.0043Z" fill="url(#paint5_linear_537_6961)"/>
<defs>
<linearGradient id="paint0_linear_537_6961" x1="78.0569" y1="123.179" x2="30.0543" y2="-10.1073" gradientUnits="userSpaceOnUse">
<stop stop-color="#7A9D3E"/>
<stop offset="1" stop-color="#EACE20"/>
</linearGradient>
<linearGradient id="paint1_linear_537_6961" x1="55.6598" y1="135.102" x2="-1.41975" y2="-23.3957" gradientUnits="userSpaceOnUse">
<stop offset="0.34" stop-color="#7A9D3E"/>
<stop offset="0.809154" stop-color="#EACE20"/>
</linearGradient>
<linearGradient id="paint2_linear_537_6961" x1="73.5816" y1="156.09" x2="16.483" y2="-2.4069" gradientUnits="userSpaceOnUse">
<stop offset="0.34" stop-color="#7A9D3E"/>
<stop offset="1" stop-color="#EACE20"/>
</linearGradient>
<linearGradient id="paint3_linear_537_6961" x1="59.2061" y1="161.271" x2="2.10749" y2="2.77357" gradientUnits="userSpaceOnUse">
<stop offset="0.29" stop-color="#7A9D3E"/>
<stop offset="1" stop-color="#EACE20"/>
</linearGradient>
<linearGradient id="paint4_linear_537_6961" x1="68.3473" y1="157.976" x2="11.2678" y2="-0.521476" gradientUnits="userSpaceOnUse">
<stop stop-color="#7A9D3E"/>
<stop offset="1" stop-color="#EACE20"/>
</linearGradient>
<linearGradient id="paint5_linear_537_6961" x1="84.7892" y1="152.053" x2="27.7098" y2="-6.44472" gradientUnits="userSpaceOnUse">
<stop offset="0.38" stop-color="#7A9D3E"/>
<stop offset="1" stop-color="#EACE20"/>
</linearGradient>
</defs>
</svg>
