<svg width="75" height="81" viewBox="0 0 75 81" fill="none" xmlns="http://www.w3.org/2000/svg">
<path d="M0 0.327026V80.3909H20.258L20.3325 48.6632L45.655 31.9057L70.7541 48.7377V80.3909H74.329V46.7268L45.655 27.5115L16.6831 46.6523V77.1883H3.20256V3.90197H32.3979V29.0755L35.9729 26.7667V0.327026H0Z" fill="url(#paint0_linear_936_6038)"/>
<path d="M9.30981 25.873V37.6405H16.0873V25.873H9.30981Z" fill="url(#paint1_linear_936_6038)"/>
<path d="M26.2165 25.873H19.439V37.6405L26.2165 33.0974V25.873Z" fill="url(#paint2_linear_936_6038)"/>
<path d="M41.4099 44.4925C41.4099 46.8013 43.2719 48.6632 45.5807 48.6632C47.8895 48.6632 49.7514 46.8013 49.7514 44.4925C49.7514 42.1837 47.8895 40.3217 45.5807 40.3217C43.2719 40.3217 41.4099 42.1837 41.4099 44.4925Z" fill="url(#paint3_linear_936_6038)"/>
<defs>
<linearGradient id="paint0_linear_936_6038" x1="-0.814866" y1="81.4463" x2="74.7568" y2="-0.319743" gradientUnits="userSpaceOnUse">
<stop stop-color="#799E3E"/>
<stop offset="1" stop-color="#EBCE21"/>
</linearGradient>
<linearGradient id="paint1_linear_936_6038" x1="-17.4713" y1="64.4138" x2="58.1003" y2="-17.3522" gradientUnits="userSpaceOnUse">
<stop stop-color="#799E3E"/>
<stop offset="1" stop-color="#EBCE21"/>
</linearGradient>
<linearGradient id="paint2_linear_936_6038" x1="-24.6065" y1="80.8181" x2="50.9651" y2="-0.947878" gradientUnits="userSpaceOnUse">
<stop stop-color="#799E3E"/>
<stop offset="1" stop-color="#EBCE21"/>
</linearGradient>
<linearGradient id="paint3_linear_936_6038" x1="-4.86467" y1="99.0644" x2="70.7069" y2="17.2984" gradientUnits="userSpaceOnUse">
<stop stop-color="#799E3E"/>
<stop offset="1" stop-color="#EBCE21"/>
</linearGradient>
</defs>
</svg>
