<svg width="170" height="39" viewBox="0 0 170 39" fill="none" xmlns="http://www.w3.org/2000/svg">
<path d="M162.761 11.0776L162.743 16.8321H163.514L165.544 11.0776H169.401L166.635 18.6852L169.8 27.1084H165.624L163.567 20.6624H162.725L162.743 27.1084H159.178V11.0776H162.761ZM147.182 11.0776H150.729V16.8587H153.264V11.0776H156.801V27.1084H153.264V20.6802H150.729V27.1084H147.182V11.0776ZM134.831 27.1351H138.518L138.963 24.3598H141.498L141.941 27.1351H145.63L142.526 11.1043H137.951L134.831 27.1351ZM140.239 15.9631L140.913 20.8397H139.548L140.239 15.9631ZM124.936 27.1084H129.253C130.193 27.1084 134.121 26.7006 134.138 21.8416C134.138 17.7631 131.097 17.0537 129.129 17.0537H128.482V14.9258H133.287V11.0776H124.944L124.936 27.1084ZM128.473 23.8899V20.2634H128.996C129.439 20.2634 130.565 20.2811 130.565 21.9391C130.565 23.615 129.431 23.8899 128.996 23.8899H128.473ZM110.864 11.0776H113.95L116.672 14.8636L119.42 11.0776H122.479V27.1084H118.853V17.3375L116.672 20.1304L114.49 17.3375V27.1084H110.864V11.0776ZM103.372 27.3035C107.672 27.3035 109.117 23.1716 109.117 19.0752C109.117 14.9789 107.672 10.8471 103.372 10.8471C99.0715 10.8471 97.6257 14.9701 97.6257 19.0752C97.6257 23.1805 99.08 27.3035 103.372 27.3035ZM103.372 23.4111C102.095 23.4111 101.438 21.886 101.438 19.0752C101.438 16.2645 102.086 14.7306 103.372 14.7306C104.658 14.7306 105.296 16.2557 105.296 19.0752C105.296 21.8948 104.658 23.4199 103.372 23.4111ZM87.1285 27.1084H90.7548V21.8239H91.9695C95.5513 21.8239 96.6685 18.5167 96.6685 16.4065C96.6685 14.3494 95.3923 11.0776 91.9695 11.0776H87.1285V27.1084ZM90.7548 14.6065H91.6144C92.4306 14.6065 92.9532 15.1208 92.9532 16.4508C92.9532 18.1708 92.067 18.295 91.6144 18.295H90.7548V14.6065ZM75.1493 11.0776H85.0445V27.1084H81.4181V14.9524H78.7758V27.1084H75.1493V11.0776ZM67.7103 17.2931C68.2955 17.2931 69.3683 16.903 69.3683 15.7237C69.3683 14.3316 68.1358 14.243 67.7724 14.243C67.3556 14.243 66.5576 14.3139 65.7773 14.6952L65.733 11.2107C66.9655 10.8914 67.8522 10.8028 68.8984 10.8028C71.8775 10.8028 73.1987 12.9307 73.1987 15.0144C73.1987 17.036 72.0638 18.2596 70.9554 18.7295V18.8802C72.0283 19.226 73.447 20.2811 73.447 22.7283C73.447 25.7607 71.3899 27.4365 68.7477 27.4365C67.3468 27.4187 66.4158 27.2237 65.3074 26.603L65.3695 23.2691C66.3981 23.7213 67.0896 23.7657 67.7812 23.7657C68.9516 23.7657 69.4126 22.879 69.4126 22.2406C69.4126 21.3362 68.8452 20.7333 67.6127 20.7333H66.1409V17.2931H67.7103ZM53.4528 27.1084H57.1236L57.5846 24.3332H60.1204L60.5638 27.1084H64.2346L61.1313 11.0776H56.565C56.5561 11.0776 53.4528 27.1084 53.4528 27.1084ZM58.8349 15.9188L59.5264 20.8131H58.1432L58.8349 15.9188ZM46.4304 11.0776H53.8695V15.0765H50.119V27.1084H46.4304V11.0776ZM1.12211 19.2792C1.12211 29.1389 8.96908 37.172 18.6159 37.172C28.245 37.172 36.083 29.1389 36.083 19.2792C36.083 9.40179 28.245 1.3687 18.6159 1.3687C8.96017 1.35984 1.12211 9.39299 1.12211 19.2792ZM0.200012 19.2792C0.200012 8.87868 8.45476 0.419983 18.6159 0.419983C28.7504 0.419983 37.0052 8.86988 37.0052 19.2792C37.0052 29.662 28.7504 38.1118 18.6159 38.1118C8.45476 38.1118 0.200012 29.662 0.200012 19.2792Z" fill="#0D356C"/>
<path d="M13.1186 7.37136C12.4801 7.65512 11.8772 8.00979 11.3187 8.41768C15.6987 6.42266 21.0452 6.54678 23.918 7.85906C24.8224 8.28465 25.4254 8.55061 25.7002 9.06492C22.7211 8.24914 21.4443 8.09841 18.9528 8.16053C15.4061 8.22254 10.6891 9.65894 8.88915 10.7584L8.09118 11.7781C10.6891 10.2087 15.5303 9.18014 18.2168 9.09152C21.2138 9.04722 23.5457 9.33087 25.6825 10.12C25.5584 10.6787 25.2835 10.9535 24.8224 11.2372C16.2662 9.71215 11.2122 11.512 6.64598 14.5622L6.309 15.573C11.4073 11.9908 17.6494 10.9978 23.6698 12.0707C21.5152 12.842 18.935 13.0194 16.7716 13.5248C14.9273 13.9593 13.9431 14.0834 11.4871 14.9257C8.99557 15.7591 7.52376 16.6192 6.60156 17.7187C6.15827 18.233 5.8214 18.8359 5.74159 19.4831C5.70608 19.8644 5.72378 20.2191 5.8479 20.556C5.94553 20.8574 6.18488 21.1589 6.43313 21.4603C6.14057 21.9747 5.88341 22.6396 6.309 23.4199C6.49525 23.7834 6.98285 24.1469 7.44395 24.4928L7.31092 24.874C7.24891 25.3262 7.18679 25.8671 7.47945 26.3104C7.97596 27.1262 8.58768 27.667 9.55419 28.1813C9.70492 28.8462 9.92657 29.3871 10.432 29.857C11.5048 30.8678 13.8899 32.8008 18.1459 33.1022C21.3379 33.315 23.6166 32.3309 24.4767 31.8964L25.5229 31.3377C23.7407 32.0648 20.7438 32.4993 18.2877 32.2776C14.7234 31.9762 11.5403 29.5911 11.1413 28.8994C11.2655 28.9882 11.4339 29.0502 11.5757 29.1123C15.7519 31.1781 21.1339 32.2954 28.041 29.4137L28.6084 28.8551C22.3309 30.85 16.8425 30.788 10.9462 27.6316C11.0083 27.3301 11.1413 27.064 11.4073 26.8601C12.9146 27.5428 14.3687 28.1104 16.1243 28.4649C18.1813 28.8551 20.531 28.9437 22.455 28.8551C24.4057 28.7664 28.2627 27.7823 30.0891 26.7892C30.2577 26.6384 30.3374 26.3813 30.5059 26.2129C26.9416 27.5428 22.7033 28.1635 20.1497 27.9684C17.6494 27.7734 15.4327 27.4719 12.4979 26.0976C13.0653 25.8671 13.6506 25.672 14.2358 25.4947C16.1687 26.0976 18.137 26.4611 20.4601 26.5675C22.7654 26.674 28.1562 25.7962 31.5522 23.6947C31.6586 23.3933 31.765 23.0652 31.765 23.0652C31.765 23.0652 27.0479 25.6454 21.7014 25.6454C19.201 25.6454 17.676 25.2819 16.5411 24.9981C19.0591 24.5282 22.2245 24.1381 25.7889 23.2159C27.5888 22.746 29.8143 21.6643 30.8251 20.7688C31.6852 19.9708 32.359 18.9423 32.1285 17.8872C32.0842 17.6034 31.7118 16.9384 31.2418 16.7079C31.6852 16.1315 31.6409 15.635 31.5788 15.2094C31.5345 14.8813 31.3837 14.5179 31.2064 14.1986C30.9138 13.8085 30.6389 13.5071 30.0714 13.1613C30.1602 12.7091 30.0981 12.248 29.903 11.8313C29.4596 11.0598 28.6706 10.3949 27.3051 9.68555C27.243 9.40179 27.0745 9.03831 26.7819 8.67473C25.0619 6.93697 22.2511 6.09459 19.8838 6.05028H19.4936C16.7272 6.07688 14.5017 6.71522 13.1186 7.37136ZM26.5426 11.6717C26.7553 11.4323 27.0657 11.0687 27.1455 10.7673C27.7396 11.1575 28.4045 11.7338 28.4843 12.3367C27.8637 12.0973 27.1898 11.8401 26.5426 11.6717ZM27.0657 14.2873C26.0638 14.0036 25.1771 13.6667 24.0068 13.4538C24.7249 13.1701 25.2037 12.8775 25.6204 12.5318C26.5603 12.7889 27.4381 13.1081 28.1562 13.4361C28.0321 13.6223 27.314 14.305 27.0923 14.305C27.0834 14.2962 27.0745 14.2962 27.0657 14.2873ZM28.8922 15.041C29.1671 14.8281 29.4153 14.5888 29.6459 14.3139C30.2133 14.8104 30.3818 15.1474 30.107 15.6882C29.7257 15.4045 29.3267 15.2537 28.8922 15.041ZM7.35522 20.3698C5.8036 18.1798 11.1856 16.6103 12.2142 16.2912C14.8298 15.4932 17.8977 14.8992 20.6641 14.5533C22.5704 14.3139 23.5811 14.5356 25.3811 15.0233C20.7438 16.2912 16.1687 16.699 11.8152 18.0113C8.30403 19.0486 7.37303 20.3698 7.35522 20.3698ZM8.50797 21.4249C10.1482 20.0062 13.4821 19.2083 14.6968 18.9334C18.5715 18.0733 22.1802 17.5325 23.6698 17.1512C25.4697 16.699 26.7287 16.2734 27.6065 15.839C27.6508 15.7769 29.0784 16.4862 29.2203 16.6547C28.7415 17.0625 28.0676 17.4084 27.3317 17.6654C25.1328 18.4812 21.125 19.3413 19.006 19.6694C16.8691 20.0328 15.0781 20.3077 12.7196 20.9549C11.3541 21.3274 10.432 21.753 9.75814 22.2052C9.26163 21.8948 8.96897 21.8062 8.50797 21.4249ZM11.5491 23.145C12.2408 22.8435 12.9944 22.6042 13.7215 22.418C17.41 21.487 20.6641 21.3185 25.1505 20.0772C27.3051 19.492 28.8833 18.8713 29.8675 18.0999C30.0094 17.9669 30.1602 17.8606 30.3109 17.7365C31.6143 19.8023 26.7287 21.3894 23.386 22.1254C21.6394 22.4801 19.8926 22.8169 18.1459 23.1362C15.9648 23.4997 15.2554 23.6947 13.7392 24.1469C12.9944 23.8278 12.2408 23.5086 11.5491 23.145ZM7.62128 22.4978C7.95815 22.7194 8.20651 22.8878 8.60549 23.1007C8.45476 23.2337 8.26852 23.3579 8.12669 23.5086C7.79862 23.3135 7.46165 22.8878 7.62128 22.4978ZM9.36795 24.475C9.5808 24.2799 9.84675 24.0937 10.1394 23.8987C10.769 24.2001 11.4162 24.475 12.0279 24.7587C11.6201 24.9095 11.2299 25.1045 10.8576 25.344C10.3522 25.0513 9.85566 24.7677 9.36795 24.475ZM8.81824 25.5213C9.17291 25.7607 9.52759 25.9557 9.89106 26.1419C9.74033 26.3547 9.63401 26.5232 9.5808 26.7449C9.04879 26.3016 8.80053 25.938 8.81824 25.5213Z" fill="#0D356C"/>
</svg>
