<svg width="294" height="80" viewBox="0 0 294 80" fill="none" xmlns="http://www.w3.org/2000/svg">
<path d="M0.366943 10.9921V2.35352H6.28264V3.42331H1.28959L1.58806 3.12912V11.1526L0.366943 10.9921Z" fill="white"/>
<path d="M9.40332 10.9922V2.35357H12.8225C13.5023 2.33797 14.1777 2.46562 14.8034 2.728C15.3185 2.9408 15.7544 3.30505 16.0517 3.77106C16.3538 4.25823 16.5137 4.81814 16.5137 5.38913C16.5137 5.96011 16.3538 6.52002 16.0517 7.00719C15.7544 7.4732 15.3185 7.83745 14.8034 8.05025C14.1777 8.31263 13.5023 8.44029 12.8225 8.42468H10.1089L10.6787 7.83629V11.0457L9.40332 10.9922ZM10.6516 7.88978L10.0817 7.27464H12.7953C13.4436 7.32544 14.0888 7.14511 14.6135 6.76649C14.8268 6.59229 14.9948 6.37029 15.1034 6.11905C15.212 5.86781 15.258 5.59461 15.2376 5.32226C15.2581 5.05381 15.212 4.78446 15.1033 4.53749C14.9946 4.29052 14.8264 4.07336 14.6135 3.90478C14.0925 3.51666 13.447 3.32674 12.7953 3.36988H10.0817L10.6516 2.75474V7.88978Z" fill="white"/>
<path d="M22.5644 9.49442L18.6567 2.35352H19.9864L23.2156 8.55835L22.5644 9.49442ZM19.8507 9.89559C20.2269 10.0544 20.642 10.1009 21.0447 10.0293C21.2592 9.96296 21.4582 9.85557 21.6305 9.71331C21.8028 9.57104 21.9449 9.39669 22.0488 9.20022L22.483 8.5316L25.7936 2.35352H27.0418L23.1071 9.44093C22.8769 9.93168 22.533 10.3623 22.103 10.6979C21.728 10.9614 21.2869 11.1186 20.8276 11.1526C20.3595 11.1805 19.8921 11.0884 19.4708 10.8852L19.8507 9.89559Z" fill="white"/>
<path d="M30.0811 10.9921V2.35352H37.6792V11.0456H36.4309V3.02214L36.7566 3.34308H31.0037L31.3293 3.02214V11.0456L30.0811 10.9921Z" fill="white"/>
<path d="M42.1838 10.9921V2.35352H49.7006V11.0456H48.4794V3.02214L48.7779 3.34308H43.1065L43.4321 3.02214V11.0456L42.1838 10.9921Z" fill="white"/>
<path d="M53.0383 10.9921L57.0273 2.35352H58.2756L62.2918 11.0456H60.9621L57.4072 3.02214H57.8414L54.2866 11.0456L53.0383 10.9921ZM54.7479 8.8258L55.0735 7.83623H60.0395L60.4194 8.8258H54.7479Z" fill="white"/>
<path d="M70.7039 10.9921V2.35352H71.925V11.0456L70.7039 10.9921ZM71.5451 7.16761V6.07106H74.4215V7.16761H71.5451ZM74.5572 6.79318L73.4175 6.60597L76.5653 2.35352H77.9221L74.5572 6.79318ZM76.6196 10.9921L73.4175 6.71294L74.4487 6.09781L78.0578 10.9921H76.6196Z" fill="white"/>
<path d="M84.9777 11.0992C84.336 11.1107 83.6987 10.9923 83.1052 10.7515C82.5468 10.5458 82.0383 10.2269 81.6128 9.81543C81.1796 9.42436 80.8451 8.93897 80.6359 8.39795C80.167 7.2758 80.167 6.0165 80.6359 4.89436C80.8518 4.35682 81.1853 3.87283 81.6128 3.47687C82.0383 3.06536 82.5468 2.74646 83.1052 2.5408C83.7026 2.31304 84.3372 2.1952 84.9777 2.19312C85.6093 2.1948 86.2351 2.31272 86.8229 2.5408C87.378 2.75316 87.8851 3.07124 88.3154 3.47687C88.7423 3.86278 89.0761 4.33798 89.2923 4.86761C89.7615 6.00822 89.7615 7.28408 89.2923 8.42469C89.0764 8.96223 88.7428 9.44622 88.3154 9.84217C87.8841 10.2399 87.3767 10.549 86.8229 10.7515C86.239 10.9924 85.6106 11.1108 84.9777 11.0992ZM84.9777 9.9759C85.4411 9.9785 85.901 9.8969 86.3345 9.7352C86.7364 9.57084 87.1043 9.33514 87.4199 9.03983C87.7254 8.73336 87.9653 8.36957 88.1255 7.97003C88.3011 7.55462 88.3933 7.10955 88.3968 6.65953C88.3934 6.20083 88.3013 5.74699 88.1255 5.32228C87.9687 4.92101 87.7283 4.5566 87.4198 4.25256C87.1113 3.94851 86.7416 3.7116 86.3345 3.55711C85.901 3.3954 85.4411 3.31381 84.9777 3.3164C84.514 3.31129 84.0536 3.39297 83.6208 3.55711C83.2074 3.71501 82.8294 3.95125 82.5082 4.25247C82.2086 4.56351 81.9695 4.92612 81.8027 5.32228C81.6145 5.74321 81.5219 6.19961 81.5314 6.65953C81.5214 7.11085 81.6141 7.55865 81.8027 7.97003C81.9629 8.36957 82.2028 8.73336 82.5082 9.03983C82.8294 9.34105 83.2074 9.5773 83.6208 9.7352C84.0536 9.89934 84.514 9.98102 84.9777 9.9759Z" fill="white"/>
<path d="M93.5256 10.9921V2.35352H94.5568L98.5458 8.87929H97.976L101.856 2.35352H102.888V11.0456H101.694V4.17217H101.992L98.5458 9.94909H97.976L94.4754 4.17217H94.7739V10.9921H93.5256Z" fill="white"/>
<path d="M107.392 10.9921V2.35352H114.99V11.0456H113.769V3.02214L114.068 3.34308H108.315L108.64 3.02214V11.0456L107.392 10.9921Z" fill="white"/>
<path d="M118.274 10.9921L122.263 2.35352H123.511L127.5 11.0456H126.197L122.615 3.02214H123.131L119.549 11.0456L118.274 10.9921ZM119.956 8.8258L120.309 7.83623H125.275L125.628 8.8258H119.956Z" fill="white"/>
<path d="M132.032 10.9922H130.784V2.35354H132.032V10.9922ZM137.215 7.11415H131.788V6.04434H137.215V7.11415ZM137.215 2.30005H138.463V10.9922H137.215V2.30005Z" fill="white"/>
<path d="M142.859 10.9921V2.35352H144.107V9.0665L149.318 2.35352H150.484V11.0456H149.236V4.35939L144.026 11.0456L142.859 10.9921Z" fill="white"/>
<path d="M154.989 10.9922V2.35355H156.237V9.06654L161.447 2.35355H162.587V11.0457H161.366V4.35943L156.129 11.0457L154.989 10.9922ZM158.761 1.68493C158.202 1.72669 157.645 1.5754 157.187 1.25701C156.998 1.10489 156.847 0.912965 156.744 0.695405C156.64 0.477846 156.588 0.240203 156.59 0H157.486C157.49 0.141913 157.523 0.281528 157.584 0.410294C157.644 0.539061 157.731 0.654265 157.838 0.748856C158.114 0.922826 158.434 1.0153 158.761 1.0153C159.088 1.0153 159.408 0.922826 159.684 0.748856C159.795 0.657628 159.885 0.543105 159.946 0.413585C160.007 0.284065 160.038 0.142794 160.036 0H160.959C160.959 0.237257 160.908 0.471871 160.81 0.688488C160.712 0.905106 160.569 1.09884 160.389 1.25701C159.911 1.57731 159.337 1.72819 158.761 1.68493Z" fill="white"/>
<path d="M16.2134 61.1925C16.2101 61.0687 16.2324 60.9456 16.2791 60.8306C16.3257 60.7156 16.3957 60.6112 16.4848 60.5239C16.8918 60.5239 17.6245 60.5239 18.6285 60.5239C19.9284 60.5576 21.2132 60.2434 22.3462 59.6146C24.7342 58.1703 25.8739 55.683 25.8739 51.5911C25.8739 45.5734 22.7532 41.4547 16.7019 41.4547C15.9789 41.4226 15.2553 41.5039 14.5581 41.6954C14.308 41.9517 14.1465 42.2793 14.0968 42.6315C14.0968 44.4502 13.9611 48.1945 13.9611 57.5017C13.9611 62.2356 13.9611 69.2962 14.0968 72.8533C14.0968 74.672 14.5581 75.715 16.2948 76.1964C17.6732 76.483 19.0692 76.6796 20.4738 76.7848C20.6061 77.1352 20.6623 77.509 20.639 77.8822C20.6156 78.2553 20.5131 78.6195 20.3381 78.9512H0.203049C-0.067683 78.2722 -0.067683 77.5173 0.203049 76.8383C1.3625 76.7087 2.51324 76.5123 3.64935 76.2499C5.30466 75.8488 5.52175 74.7522 5.57602 72.6394C5.6303 70.5265 5.79311 65.5787 5.79311 57.9029C5.79311 50.8155 5.79311 46.9374 5.65743 44.9851C5.52175 43.0327 5.19611 41.7757 3.4594 41.3745C2.35679 41.1402 1.24275 40.9617 0.121644 40.8396C-0.0263327 40.145 0.0205732 39.4238 0.257323 38.7535H21.2879C24.3752 38.6234 27.4304 39.4158 30.0529 41.0268C31.4768 42.0855 32.6202 43.4677 33.3856 45.0556C34.151 46.6434 34.5158 48.3901 34.4489 50.1468C34.5352 52.3748 33.9986 54.5833 32.898 56.5312C31.7973 58.4791 30.1748 60.0916 28.2076 61.1925C25.7888 62.5332 23.0589 63.2335 20.2839 63.2251C19.284 63.2212 18.286 63.1408 17.2989 62.9844C16.8018 62.4775 16.4303 61.8643 16.2134 61.1925Z" fill="white"/>
<path d="M47.0131 38.8337C49.3468 38.8337 76.1574 38.8337 78.1383 38.8337C78.2082 38.8397 78.2738 38.8698 78.3234 38.9187C78.373 38.9676 78.4036 39.0322 78.4097 39.1011C77.8268 41.4699 77.4725 43.8877 77.3514 46.3223C76.6028 46.6576 75.761 46.7331 74.9634 46.5362C74.4749 45.5734 74.3664 45.3327 73.9051 44.2897C73.6886 43.7094 73.2967 43.2085 72.7824 42.8546C72.268 42.5008 71.6559 42.3108 71.0286 42.3105C69.4276 42.3105 62.3993 42.3105 61.4495 42.3105C61.0696 42.3105 60.7169 43.1664 60.7169 43.4873C60.7169 47.5525 60.7169 52.6608 60.7169 56.5923C60.7169 56.8598 60.934 57.1272 61.1239 57.1272C63.1863 57.1272 67.9622 57.1272 70.1603 57.1272C71.5714 57.1272 72.0869 56.4051 72.494 54.9609C72.7653 54.2388 72.494 54.9609 72.7925 54.1051C73.6115 53.8359 74.4971 53.8359 75.3161 54.1051C75.3161 55.6028 75.3161 56.7796 75.3161 58.8389C75.3161 60.8983 75.1533 62.2088 75.3161 63.9205C74.5153 64.1874 73.6476 64.1874 72.8468 63.9205C72.7661 63.4312 72.6201 62.9545 72.4126 62.503C72.285 62.0017 71.9971 61.5542 71.5915 61.2267C71.1858 60.8991 70.684 60.709 70.1603 60.6843C68.6949 60.5506 63.4305 60.5506 61.3139 60.5506C61.1239 60.5506 60.9068 60.9518 60.9068 61.0855C60.9068 64.7496 60.9068 69.9916 60.9068 73.1475C60.869 73.6316 60.9914 74.1147 61.2555 74.5245C61.5197 74.9344 61.9115 75.2488 62.3722 75.4208C65.2894 75.7646 68.2266 75.9165 71.1643 75.8755C74.1493 75.8755 75.0177 75.501 76.4016 73.8696C77.7855 72.2382 77.4599 73.3079 78.4639 71.0614C79.2925 71.12 80.0852 71.4177 80.7434 71.9172C80.5208 74.0459 80.0003 76.134 79.1966 78.122C78.871 78.7639 78.464 79.1651 75.479 79.1651H45.6291C45.4394 78.4551 45.4394 77.7088 45.6291 76.9988C47.1941 76.8196 48.7446 76.5336 50.2694 76.1429C51.5991 75.7952 52.2232 75.0196 52.2775 72.7998C52.4675 69.9113 52.4675 64.4554 52.4675 57.047C52.4675 51.698 52.4675 46.349 52.2775 44.4769C52.0876 42.6047 51.7348 41.8024 50.4051 41.5349C49.2498 41.2281 48.0694 41.0222 46.8774 40.9198C46.6741 40.2301 46.7221 39.4921 47.0131 38.8337Z" fill="white"/>
<path d="M96.2382 76.4638C98.0292 76.0627 98.3006 75.2068 98.382 73.1742C98.4634 71.1416 98.5719 63.8669 98.5719 58.518C98.5719 51.0294 98.5719 46.9641 98.5719 44.6106C98.5719 42.257 98.0292 41.9361 96.6452 41.5349C95.4193 41.2457 94.1782 41.0225 92.9276 40.8663C92.7507 40.1818 92.7507 39.4646 92.9276 38.7802C94.9357 38.7802 123.591 38.7802 124.785 38.593C125.003 38.593 125.247 38.8604 125.193 39.0476C124.521 42.7048 124.122 46.4055 123.999 50.12C123.253 50.469 122.403 50.5357 121.611 50.3073C121.282 48.2102 120.746 46.1499 120.01 44.1559C119.76 43.583 119.353 43.0897 118.836 42.7309C118.319 42.372 117.71 42.1617 117.079 42.1233C113.933 41.9623 110.781 41.9623 107.635 42.1233C107.228 42.1233 106.957 42.8454 106.957 43.2466C106.957 46.7769 106.957 53.1957 106.957 58.1168C106.957 63.0379 106.957 69.1892 106.957 72.88C106.957 74.9126 107.445 75.8219 109.019 76.2231C110.593 76.6243 111.733 76.5976 113.497 76.8115C113.619 77.5399 113.544 78.2871 113.28 78.9779H92.9819C92.8204 78.2826 92.8204 77.5603 92.9819 76.865C94.0402 76.7848 95.3156 76.651 96.2382 76.4638Z" fill="white"/>
<path d="M140.334 76.3302C142.207 75.8755 142.533 74.9662 142.668 72.0777C142.668 70.687 142.668 65.445 142.668 59.6948C142.668 53.3295 142.668 46.3223 142.668 44.6106C142.668 42.899 142.261 41.9361 141.013 41.5885C139.731 41.2603 138.424 41.0366 137.105 40.9198C136.963 40.5899 136.89 40.2351 136.89 39.8768C136.89 39.5184 136.963 39.1637 137.105 38.8337H155.856C155.977 39.1726 156.027 39.532 156.004 39.8904C155.981 40.2488 155.884 40.5989 155.721 40.9198C154.711 41.0457 153.712 41.2514 152.736 41.535C151.406 41.9896 151.053 42.7118 150.999 44.6641C150.999 47.5526 150.999 62.3693 150.999 66.8892C150.999 67.1567 151.243 67.0764 151.379 66.8892C153.061 64.8566 166.141 50.1201 169.153 45.9746C169.315 45.6455 169.425 45.2937 169.479 44.9316C169.506 44.5398 169.506 44.1466 169.479 43.7548C169.528 43.2794 169.416 42.8013 169.161 42.395C168.906 41.9886 168.521 41.6769 168.068 41.5082C166.936 41.1249 165.76 40.8823 164.567 40.7861C164.381 40.469 164.284 40.1093 164.284 39.7431C164.284 39.3769 164.381 39.0171 164.567 38.7H183.047C183.2 39.027 183.279 39.3829 183.279 39.7431C183.279 40.1032 183.2 40.4591 183.047 40.7861C181.913 40.9438 180.789 41.167 179.682 41.4547C178.407 41.9094 178.081 42.4978 177.945 44.6106C177.81 48.5422 177.81 50.4945 177.81 58.518C177.81 63.3054 177.81 70.1253 178 72.8801C178 74.6452 178.461 75.5546 179.601 76.0895C180.996 76.4538 182.422 76.6955 183.861 76.8116C184.051 77.1325 183.861 78.8442 183.535 78.9779H164.241C164.088 78.6368 164.009 78.2678 164.009 77.8948C164.009 77.5217 164.088 77.1527 164.241 76.8116C165.432 76.7129 166.612 76.5161 167.769 76.2232C168.909 75.8755 169.235 75.0999 169.37 73.1208C169.37 70.4463 169.37 54.64 169.37 50.4411C169.353 50.4134 169.329 50.3904 169.301 50.3745C169.272 50.3586 169.24 50.3503 169.207 50.3503C169.175 50.3503 169.142 50.3586 169.114 50.3745C169.085 50.3904 169.061 50.4134 169.045 50.4411C167.579 52.5539 152.274 69.9916 151.433 71.1149C151.224 71.3292 151.067 71.5872 150.973 71.8696C150.879 72.152 150.851 72.4517 150.89 72.7464C150.89 74.8325 151.162 75.6883 152.627 76.2232C153.849 76.5561 155.091 76.8151 156.345 76.9988C156.535 77.2663 156.345 78.8977 156.155 79.1117H137.105C136.888 78.8442 136.78 77.186 137.105 76.9453C138.543 76.6511 139.493 76.5174 140.334 76.3302Z" fill="white"/>
<path d="M197.917 72.9336C194.399 68.5064 192.756 62.9092 193.331 57.3145C193.413 54.7334 194.023 52.195 195.123 49.8514C196.224 47.5077 197.792 45.4069 199.736 43.6746C202.051 41.5905 204.781 40.0051 207.753 39.0196C210.724 38.0341 213.872 37.6702 216.994 37.9512C219.771 37.9649 222.513 38.5578 225.041 39.691C227.569 40.8241 229.824 42.4719 231.66 44.5257C233.495 46.5796 234.868 48.9931 235.69 51.6076C236.511 54.2221 236.761 56.9782 236.424 59.6948C236.275 64.4661 234.529 69.0549 231.458 72.7464C229.203 75.269 226.377 77.2326 223.209 78.4779C220.041 79.7232 216.619 80.2152 213.222 79.914C210.317 79.8757 207.452 79.2342 204.815 78.0314C202.178 76.8287 199.828 75.0916 197.917 72.9336ZM221.553 75.4476C225.081 72.5859 226.655 67.0497 226.98 61.2995C227.442 54.5598 226.003 47.4189 221.743 43.5409C219.877 41.7429 217.403 40.686 214.796 40.5722C212.914 40.411 211.026 40.8018 209.369 41.6955C205.136 44.1292 203.128 49.719 202.693 56.0575C202.259 62.3961 203.725 70.0451 208.446 74.2976C210.43 76.0626 212.969 77.1014 215.637 77.2395C217.763 77.3565 219.861 76.721 221.553 75.4476Z" fill="white"/>
<path d="M247.224 38.8337H265.894C266.14 39.5078 266.14 40.2456 265.894 40.9198C264.838 41.0384 263.794 41.2442 262.773 41.5349C261.443 41.9896 261.091 42.7117 261.036 44.7443C261.036 47.606 261.036 51.4306 261.036 55.9505C261.057 56.0544 261.099 56.1531 261.159 56.2405C261.22 56.3279 261.298 56.4021 261.389 56.4586C264.55 56.6829 267.721 56.7276 270.887 56.5923C276.07 56.5923 278.403 56.5923 279.218 56.5923C279.353 56.5923 279.597 56.3249 279.597 56.1377C279.597 52.848 279.597 47.0711 279.597 43.8617C279.635 43.4019 279.52 42.9425 279.27 42.5521C279.021 42.1617 278.65 41.8612 278.214 41.6954C277.026 41.3117 275.796 41.0693 274.55 40.9733C274.389 40.6484 274.306 40.2917 274.306 39.9302C274.306 39.5688 274.389 39.2121 274.55 38.8872H293.111C293.253 39.2172 293.326 39.5719 293.326 39.9302C293.326 40.2886 293.253 40.6433 293.111 40.9733C292.006 41.0896 290.915 41.3136 289.855 41.6419C288.58 42.0966 288.2 42.7652 288.118 44.8513C288.118 48.5154 288.118 51.6713 288.118 59.668C288.118 64.4554 288.118 70.366 288.118 73.0405C288.118 74.8057 288.525 75.715 289.719 76.1696C291.076 76.5975 292.478 76.8668 293.898 76.972C294.093 77.6989 294.006 78.4713 293.654 79.1383H274.659C274.505 78.7972 274.426 78.4283 274.426 78.0552C274.426 77.6821 274.505 77.3131 274.659 76.972C275.805 76.8775 276.94 76.6806 278.051 76.3836C279.245 76.0359 279.76 75.2603 279.842 73.2277C279.842 70.5532 279.842 65.2042 279.842 60.8448C279.849 60.7355 279.814 60.6274 279.744 60.5428C279.673 60.4582 279.572 60.4036 279.462 60.3901C278.186 60.3901 274.035 60.3901 270.941 60.3901C264.076 60.3901 261.905 60.3901 261.498 60.5773C261.399 60.6959 261.326 60.8321 261.281 60.9785C261.281 64.91 261.281 70.366 261.281 72.773C261.281 75.1801 261.606 75.8755 263.207 76.3301C264.455 76.6596 265.724 76.9009 267.006 77.0522C267.196 77.7823 267.099 78.5558 266.735 79.2186H247.387C247.143 78.5165 247.143 77.7543 247.387 77.0522C248.906 76.8383 249.639 76.7045 250.562 76.5173C252.38 76.0627 252.76 75.0196 252.895 72.1312C252.895 70.7404 252.895 64.8565 252.895 59.0796C252.895 52.7143 252.895 46.563 252.895 44.8513C252.895 43.1396 252.434 42.1768 251.104 41.7756C249.903 41.4574 248.678 41.2339 247.441 41.107C247.078 40.404 247 39.5911 247.224 38.8337Z" fill="white"/>
</svg>
