<svg width="341" height="137" viewBox="0 0 341 137" fill="none" xmlns="http://www.w3.org/2000/svg">
<path d="M175.771 70.1111H177.377L177.351 62.4734H181.823L181.849 60.9943H175.771V70.1111Z" fill="#414141"/>
<path d="M190.284 61.3708C189.638 61.1095 188.946 60.9814 188.249 60.9943H184.768V70.1112H186.402V67.4218H188.356C189.056 67.439 189.751 67.3013 190.391 67.0184C190.937 66.8049 191.398 66.4175 191.704 65.9158C192.018 65.3922 192.184 64.7924 192.184 64.1812C192.184 63.5699 192.018 62.9701 191.704 62.4465C191.385 61.9499 190.929 61.5574 190.391 61.317M186.402 62.4196H188.33C188.927 62.3783 189.521 62.5393 190.017 62.8768C190.201 63.0339 190.346 63.2329 190.439 63.4574C190.533 63.6818 190.571 63.9253 190.552 64.1677C190.571 64.4141 190.533 64.6615 190.44 64.8903C190.347 65.1191 190.202 65.3229 190.017 65.4855C189.521 65.823 188.927 65.984 188.33 65.9427H186.402V62.4196Z" fill="#414141"/>
<path d="M198.157 66.3191L195.479 61.1018H193.712L197.3 67.9058V68.121C197.124 68.4754 196.816 68.7459 196.443 68.874C196.084 68.9764 195.704 68.9764 195.345 68.874H195.158L194.729 70.2187H194.89C195.286 70.3971 195.715 70.4888 196.149 70.4876H196.336C196.82 70.4425 197.283 70.2659 197.675 69.9766C198.118 69.6266 198.483 69.1868 198.746 68.6858L202.763 61.2094H200.835L198.157 66.3191Z" fill="#414141"/>
<path d="M205.093 70.1111H206.699V62.4734H211.359V70.1111H212.965V60.9943H205.093V70.1111Z" fill="#414141"/>
<path d="M217.036 70.1111H218.642V62.4734H223.302V70.1111H224.882V60.9943H217.036V70.1111Z" fill="#414141"/>
<path d="M233.236 60.9943H231.763L227.773 69.9229V70.1918H229.487L230.424 68.0134H234.816L235.78 70.1918H237.494L233.424 61.1825L233.236 60.9943ZM234.066 66.5612H230.906L232.486 62.9306L234.066 66.5612Z" fill="#414141"/>
<path d="M252.864 60.9943H251.044L248.312 64.7862H246.759V60.9943H245.179V70.1111H246.759V66.2654H248.312L251.07 70.0305L251.124 70.1111H252.998L249.624 65.4317L252.864 60.9943Z" fill="#414141"/>
<path d="M262.96 62.2314C262.518 61.8059 262 61.4682 261.433 61.2363C260.198 60.7795 258.84 60.7795 257.604 61.2363C257.034 61.4614 256.515 61.7999 256.078 62.2314C255.631 62.6603 255.278 63.1787 255.043 63.7532C254.807 64.3276 254.695 64.9453 254.712 65.5661C254.704 66.1931 254.822 66.8153 255.06 67.3949C255.295 67.9529 255.641 68.4564 256.078 68.874C256.515 69.3055 257.034 69.644 257.604 69.8691C258.221 70.0986 258.874 70.2169 259.532 70.2187C260.183 70.2273 260.828 70.1085 261.433 69.8691C261.999 69.647 262.517 69.3184 262.96 68.9009C263.385 68.4733 263.729 67.9722 263.977 67.4218C264.216 66.8328 264.334 66.2018 264.325 65.5661C264.337 64.9302 264.219 64.2987 263.977 63.7105C263.743 63.1525 263.397 62.649 262.96 62.2314ZM262.719 65.5661C262.719 65.999 262.637 66.428 262.478 66.8301C262.312 67.1971 262.085 67.5335 261.808 67.8252C261.52 68.1187 261.173 68.3478 260.791 68.4975C259.928 68.8261 258.976 68.8261 258.113 68.4975C257.739 68.3311 257.396 68.1039 257.095 67.8252C256.818 67.5335 256.592 67.1971 256.426 66.8301C256.267 66.428 256.185 65.999 256.185 65.5661C256.179 65.1328 256.261 64.7028 256.426 64.3022C256.585 63.9233 256.812 63.5769 257.095 63.2802C257.39 63.001 257.735 62.7819 258.113 62.6348C258.522 62.472 258.958 62.3898 259.398 62.3927C259.83 62.387 260.258 62.4693 260.657 62.6348C261.034 62.7819 261.38 63.001 261.674 63.2802C261.958 63.5769 262.185 63.9233 262.344 64.3022C262.509 64.7028 262.591 65.1328 262.585 65.5661" fill="#414141"/>
<path d="M277.313 60.9943H276.001L272.519 66.9377L269.065 61.0749L269.012 60.9943H267.699V70.1111H269.253V64.2753L272.064 68.9547L272.118 69.0623H272.894L275.733 64.2484L275.76 69.9229V70.1111H277.34L277.313 61.1825V60.9943Z" fill="#414141"/>
<path d="M281.383 70.1111H282.99V62.4734H287.649V70.1111H289.256V60.9943H281.383V70.1111Z" fill="#414141"/>
<path d="M297.584 60.9943H296.111L292.121 69.9229V70.1918H293.808L294.772 68.0134H299.137L300.101 70.1918H301.815L297.744 61.1825L297.584 60.9943ZM298.441 66.5612H295.254L296.861 62.9306L298.441 66.5612Z" fill="#414141"/>
<path d="M310.705 64.7593H306.099V60.9943H304.466V70.1111H306.099V66.2116H310.705V70.1111H312.338V60.9943H310.705V64.7593Z" fill="#414141"/>
<path d="M317.989 67.368V60.9943H316.382V70.1111H317.801L322.675 63.7643V70.1111H324.281V60.9943H322.862L317.989 67.368Z" fill="#414141"/>
<path d="M330.574 60.2681C331.074 60.6012 331.661 60.7788 332.261 60.7788C332.861 60.7788 333.448 60.6012 333.948 60.2681C334.15 60.096 334.312 59.8817 334.423 59.6401C334.534 59.3986 334.591 59.1357 334.591 58.8696V58.6814H333.332V58.8696C333.333 58.9818 333.309 59.0927 333.263 59.1948C333.216 59.2969 333.149 59.3878 333.064 59.4613C332.832 59.6319 332.549 59.7173 332.261 59.7033C331.982 59.7178 331.707 59.632 331.485 59.4613C331.394 59.3935 331.322 59.3036 331.275 59.2001C331.228 59.0967 331.208 58.983 331.217 58.8696V58.6814H329.958V58.8696C329.958 59.1357 330.015 59.3986 330.126 59.6401C330.237 59.8817 330.399 60.096 330.601 60.2681" fill="#414141"/>
<path d="M334.805 60.9943L329.958 67.368V60.9943H328.325V70.1111H329.771L334.644 63.7643V70.1111H336.224V60.9943H334.805Z" fill="#414141"/>
<path d="M66.1683 117.094C66.1683 116.825 66.3022 116.502 66.4361 116.448C66.57 116.395 67.534 116.448 68.5248 116.448C69.8337 116.539 71.1418 116.26 72.3005 115.642C74.6837 114.189 75.7816 111.688 75.7816 107.574C75.7816 101.496 72.7022 97.3541 66.7307 97.3541C66.024 97.3171 65.3165 97.4082 64.642 97.6231C64.3887 97.8652 64.2277 98.1887 64.1868 98.5375C64.1868 100.366 64.0529 104.131 64.0529 113.49C64.0529 118.25 64.0529 125.35 64.1868 128.927C64.1868 130.756 64.642 131.832 66.329 132.289C67.6962 132.588 69.0835 132.786 70.4796 132.88C70.6101 133.233 70.6656 133.609 70.6426 133.984C70.6195 134.359 70.5184 134.725 70.3457 135.059H50.3426C50.0754 134.376 50.0754 133.617 50.3426 132.934C51.4955 132.803 52.6399 132.606 53.7701 132.342C55.4036 131.966 55.591 130.836 55.6714 128.712C55.7517 126.587 55.8588 121.612 55.8588 113.894C55.8588 106.767 55.8588 102.894 55.7249 100.904C55.591 98.914 55.2697 97.6769 53.5559 97.2735C52.4756 97.0639 51.3852 96.9113 50.289 96.8163C50.0713 96.125 50.0713 95.383 50.289 94.6917H71.0152C74.0702 94.5605 77.0938 95.3571 79.6912 96.9776C81.0964 98.0422 82.2246 99.432 82.9799 101.029C83.7352 102.625 84.0952 104.382 84.0293 106.148C84.0889 108.373 83.5448 110.572 82.4551 112.509C81.3654 114.447 79.7713 116.05 77.8435 117.148C75.4576 118.498 72.7631 119.202 70.0244 119.192C69.0373 119.2 68.0514 119.119 67.0788 118.95C66.5883 118.424 66.2302 117.787 66.0344 117.094" fill="#414141"/>
<path d="M96.5614 94.6111C98.8643 94.6111 125.294 94.6111 127.276 94.6111C127.345 94.6171 127.409 94.6474 127.458 94.6966C127.507 94.7458 127.537 94.8107 127.543 94.88C126.97 97.2624 126.621 99.6934 126.499 102.141C125.751 102.478 124.912 102.554 124.116 102.356C123.634 101.388 123.527 101.146 123.072 100.097C122.863 99.516 122.481 99.0132 121.978 98.6572C121.475 98.3012 120.875 98.1092 120.26 98.1072C118.68 98.1072 111.718 98.1072 110.807 98.1072C110.406 98.1072 110.084 98.9678 110.084 99.2905C110.084 103.378 110.084 108.542 110.084 112.495C110.084 112.737 110.272 113.006 110.486 113.006C112.521 113.006 117.234 113.006 119.403 113.006C120.769 113.006 121.304 112.28 121.706 110.828C121.974 110.102 121.706 110.828 122 109.967C122.825 109.756 123.694 109.803 124.491 110.102C124.357 111.635 124.491 112.791 124.491 114.862C124.491 116.933 124.33 118.25 124.491 119.972C123.698 120.227 122.846 120.227 122.054 119.972C121.981 119.478 121.837 118.998 121.626 118.546C121.505 118.037 121.223 117.581 120.822 117.247C120.421 116.912 119.923 116.717 119.403 116.691C117.957 116.691 112.762 116.691 110.673 116.691C110.459 116.691 110.272 117.094 110.272 117.228C110.272 120.913 110.272 126.184 110.272 129.357C110.233 129.848 110.352 130.338 110.613 130.754C110.874 131.171 111.261 131.492 111.718 131.67C114.589 132.002 117.477 132.155 120.367 132.127C123.339 132.127 124.196 131.724 125.562 130.083C126.928 128.443 126.606 129.519 127.597 127.394C128.403 127.47 129.172 127.768 129.82 128.255C129.613 130.395 129.109 132.495 128.32 134.494C127.999 135.139 127.597 135.543 124.651 135.543H95.1957C94.982 134.833 94.982 134.075 95.1957 133.364C96.828 133.253 98.4488 133.01 100.043 132.638C101.355 132.316 101.944 131.509 102.024 129.277C102.212 126.372 102.212 120.913 102.212 113.463C102.212 108.085 102.212 102.706 102.024 100.797C101.837 98.8871 101.489 98.1072 100.176 97.8383C98.9526 97.3792 97.6885 97.037 96.4007 96.8163C96.1733 96.117 96.2212 95.3567 96.5346 94.6918" fill="#414141"/>
<path d="M145.137 132.45C146.904 132.047 147.172 131.213 147.225 129.169C147.279 127.125 147.413 119.81 147.413 114.458C147.413 106.955 147.413 102.867 147.413 100.474C147.413 98.0802 146.877 97.7844 145.485 97.381C144.24 97.1076 142.979 96.9189 141.709 96.8163C141.547 96.1174 141.547 95.3905 141.709 94.6917C143.664 94.6917 171.968 94.6917 173.146 94.5034C173.334 94.5034 173.602 94.7724 173.521 94.9606C172.887 98.6421 172.494 102.361 172.343 106.094C171.607 106.443 170.773 106.519 169.987 106.31C169.675 104.19 169.145 102.108 168.407 100.097C168.165 99.5175 167.766 99.0181 167.254 98.6565C166.742 98.2949 166.14 98.0858 165.515 98.0533C162.411 97.8915 159.3 97.8915 156.196 98.0533C155.821 98.0533 155.553 98.7795 155.553 99.1829C155.553 102.733 155.553 109.187 155.553 114.136C155.553 119.084 155.553 125.296 155.553 128.981C155.553 131.025 156.008 131.939 157.588 132.342C159.041 132.615 160.507 132.813 161.98 132.934C162.109 133.664 162.044 134.415 161.793 135.112H141.923C141.751 134.415 141.751 133.686 141.923 132.988C143.048 132.853 144.28 132.746 145.217 132.531" fill="#414141"/>
<path d="M188.651 132.316C190.472 131.858 190.82 130.944 190.954 128.04C190.954 126.641 190.954 121.37 190.954 115.588C190.954 109.187 190.954 102.141 190.954 100.42C190.954 98.6988 190.552 97.7307 189.293 97.3811C188.029 97.0719 186.738 96.8828 185.437 96.8163C185.17 96.1335 185.17 95.3745 185.437 94.6917H203.941C204.085 95.0273 204.159 95.3887 204.159 95.754C204.159 96.1193 204.085 96.4807 203.941 96.8163C202.936 96.9352 201.943 97.1331 200.969 97.408C199.657 97.8651 199.335 98.5913 199.282 100.554C199.148 103.459 199.282 118.358 199.282 122.903C199.282 123.172 199.549 123.118 199.683 122.903C201.317 120.859 214.251 106.041 217.196 101.872C217.356 101.541 217.465 101.188 217.517 100.823C217.558 100.43 217.558 100.034 217.517 99.6401C217.571 99.1683 217.465 98.6921 217.218 98.2875C216.97 97.8829 216.595 97.5732 216.152 97.408C215.034 96.9944 213.86 96.7497 212.671 96.6818C212.492 96.3564 212.399 95.991 212.399 95.6195C212.399 95.2481 212.492 94.8827 212.671 94.5573H230.906C231.05 94.8928 231.124 95.2543 231.124 95.6195C231.124 95.9848 231.05 96.3463 230.906 96.6818C229.777 96.82 228.659 97.0356 227.559 97.3273C226.301 97.7845 225.979 98.3761 225.845 100.501C225.845 104.32 225.845 106.363 225.845 114.405C225.845 119.219 225.845 126.076 226.06 128.846C226.06 130.621 226.515 131.536 227.64 132.074C229.005 132.454 230.404 132.697 231.817 132.8C232.031 133.122 231.817 134.844 231.496 134.978H212.751C212.6 134.635 212.522 134.264 212.522 133.889C212.522 133.514 212.6 133.143 212.751 132.8C213.927 132.711 215.092 132.513 216.232 132.208C217.33 131.885 217.678 131.079 217.785 129.115C217.785 126.265 217.785 110.505 217.785 106.31C217.769 106.282 217.745 106.259 217.717 106.243C217.689 106.227 217.657 106.218 217.625 106.218C217.592 106.218 217.56 106.227 217.532 106.243C217.504 106.259 217.481 106.282 217.464 106.31C216.018 108.407 200.915 125.942 200.058 127.071C199.85 127.285 199.695 127.545 199.607 127.83C199.518 128.115 199.498 128.418 199.549 128.712C199.549 130.81 199.79 131.67 201.236 132.208C202.448 132.555 203.683 132.816 204.932 132.988C205.116 133.699 205.04 134.453 204.718 135.113H185.357C185.17 134.844 185.036 133.203 185.357 132.934C186.465 132.823 187.565 132.643 188.651 132.396" fill="#414141"/>
<path d="M245.474 128.9C242.021 124.44 240.419 118.813 241.002 113.194C241.078 110.607 241.672 108.062 242.748 105.71C243.825 103.358 245.362 101.248 247.268 99.5056C249.544 97.3968 252.237 95.7922 255.171 94.7961C258.105 93.7999 261.215 93.4345 264.299 93.7235C267.044 93.7364 269.755 94.334 272.254 95.4766C274.752 96.6193 276.981 98.2811 278.793 100.352C280.605 102.424 281.959 104.858 282.765 107.493C283.572 110.129 283.812 112.906 283.472 115.642C283.29 120.439 281.539 125.042 278.491 128.739C276.266 131.275 273.477 133.25 270.351 134.502C267.225 135.754 263.848 136.249 260.496 135.946C257.626 135.908 254.797 135.26 252.194 134.046C249.591 132.831 247.274 131.078 245.393 128.9M268.69 131.428C272.171 128.551 273.751 122.984 274.046 117.202C274.528 110.424 273.082 103.244 268.878 99.3443C267.046 97.5381 264.614 96.4751 262.049 96.3591C260.19 96.2116 258.328 96.6136 256.694 97.5155C252.516 99.9359 250.561 105.584 250.133 111.93C249.705 118.277 251.151 125.996 255.783 130.272C257.737 132.006 260.221 133.021 262.826 133.149C264.913 133.29 266.983 132.68 268.663 131.428" fill="#414141"/>
<path d="M294.103 94.611H312.553C312.783 95.3003 312.783 96.0464 312.553 96.7356C311.513 96.8532 310.483 97.051 309.473 97.3273C308.161 97.7845 307.84 98.5106 307.786 100.554C307.786 103.459 307.786 107.278 307.786 111.823C307.827 112.035 307.941 112.225 308.107 112.361C308.697 112.361 309.634 112.361 317.507 112.361C322.621 112.361 324.924 112.361 325.701 112.361C325.834 112.361 326.102 112.092 326.102 111.904C326.102 108.596 326.102 102.814 326.102 99.5863C326.139 99.1239 326.026 98.6619 325.78 98.2694C325.534 97.8768 325.168 97.5747 324.737 97.408C323.571 96.9997 322.354 96.7553 321.122 96.6818C320.95 96.3541 320.861 95.9896 320.861 95.6195C320.861 95.2495 320.95 94.8849 321.122 94.5573H339.438C339.581 94.8928 339.655 95.2543 339.655 95.6195C339.655 95.9848 339.581 96.3463 339.438 96.6818C338.338 96.7817 337.252 96.998 336.198 97.3273C334.966 97.7845 334.564 98.4568 334.511 100.554C334.511 104.266 334.511 107.412 334.511 115.453C334.511 120.267 334.511 126.211 334.511 128.9C334.511 130.675 334.885 131.589 336.09 132.047C337.428 132.48 338.813 132.751 340.214 132.853C340.386 133.588 340.291 134.361 339.946 135.032H321.202C321.051 134.689 320.972 134.318 320.972 133.943C320.972 133.568 321.051 133.196 321.202 132.853C322.335 132.777 323.458 132.579 324.549 132.262C325.727 131.939 326.263 131.132 326.317 129.088C326.317 126.399 326.317 121.02 326.317 116.637C326.32 116.58 326.313 116.524 326.294 116.47C326.276 116.416 326.248 116.367 326.21 116.324C326.173 116.282 326.128 116.247 326.077 116.222C326.026 116.198 325.971 116.183 325.915 116.18C324.683 116.18 320.559 116.18 317.507 116.18C310.758 116.18 308.589 116.18 308.188 116.395C308.104 116.509 308.041 116.636 308 116.771C308 120.725 308 126.211 308 128.658C308 130.702 308.322 131.751 309.902 132.208C311.12 132.553 312.365 132.796 313.624 132.934C313.813 133.668 313.717 134.447 313.356 135.113H294.263C294.036 134.404 294.036 133.642 294.263 132.934C295.327 132.82 296.382 132.641 297.423 132.396C299.19 131.939 299.592 130.89 299.726 127.986C299.726 126.614 299.86 120.671 299.86 114.862C299.86 108.488 299.86 102.276 299.726 100.554C299.592 98.8333 299.271 97.8651 297.932 97.4617C296.757 97.1414 295.556 96.9255 294.344 96.8163C294.115 96.1267 294.115 95.3813 294.344 94.6917" fill="#414141"/>
<path d="M0 0V135.22H29.8039L29.8842 69.9498L66.3291 45.7188L102.56 70.1111H168.407V64.9476L104.166 64.84L66.3558 39.3451L24.6357 67.126V130.057H5.14137V5.19043H47.2096V41.631L52.3777 38.2962V0H0Z" fill="url(#paint0_linear_141_4809)"/>
<path d="M23.7521 14.0922H14.0049V31.0888H23.7521V14.0922Z" fill="url(#paint1_linear_141_4809)"/>
<path d="M38.346 14.0922H28.8398V31.0888H38.346V14.0922Z" fill="url(#paint2_linear_141_4809)"/>
<path d="M23.7521 37.0591H14.0049V54.0557H23.7521V37.0591Z" fill="url(#paint3_linear_141_4809)"/>
<path d="M28.5989 37.0591V54.0288L38.3461 47.4937V37.0591H28.5989Z" fill="url(#paint4_linear_141_4809)"/>
<path d="M60.2236 63.9795C60.2236 65.1763 60.577 66.3462 61.239 67.3412C61.9011 68.3363 62.8421 69.1119 63.943 69.5699C65.0439 70.0279 66.2554 70.1477 67.4241 69.9142C68.5929 69.6808 69.6664 69.1045 70.509 68.2582C71.3516 67.412 71.9255 66.3338 72.158 65.16C72.3904 63.9862 72.2711 62.7695 71.8151 61.6639C71.3591 60.5582 70.5868 59.6131 69.596 58.9482C68.6052 58.2834 67.4403 57.9285 66.2487 57.9285C64.6507 57.9285 63.1182 58.566 61.9883 59.7008C60.8584 60.8356 60.2236 62.3747 60.2236 63.9795Z" fill="url(#paint5_linear_141_4809)"/>
<defs>
<linearGradient id="paint0_linear_141_4809" x1="110.218" y1="172.952" x2="42.4374" y2="-15.2515" gradientUnits="userSpaceOnUse">
<stop stop-color="#7A9D3E"/>
<stop offset="1" stop-color="#EACE20"/>
</linearGradient>
<linearGradient id="paint1_linear_141_4809" x1="78.5934" y1="189.787" x2="-2.00424" y2="-34.015" gradientUnits="userSpaceOnUse">
<stop offset="0.34" stop-color="#7A9D3E"/>
<stop offset="0.809154" stop-color="#EACE20"/>
</linearGradient>
<linearGradient id="paint2_linear_141_4809" x1="103.899" y1="219.423" x2="23.274" y2="-4.3783" gradientUnits="userSpaceOnUse">
<stop offset="0.34" stop-color="#7A9D3E"/>
<stop offset="1" stop-color="#EACE20"/>
</linearGradient>
<linearGradient id="paint3_linear_141_4809" x1="83.6008" y1="226.738" x2="2.97631" y2="2.93663" gradientUnits="userSpaceOnUse">
<stop offset="0.29" stop-color="#7A9D3E"/>
<stop offset="1" stop-color="#EACE20"/>
</linearGradient>
<linearGradient id="paint4_linear_141_4809" x1="96.5078" y1="222.086" x2="15.9102" y2="-1.71604" gradientUnits="userSpaceOnUse">
<stop stop-color="#7A9D3E"/>
<stop offset="1" stop-color="#EACE20"/>
</linearGradient>
<linearGradient id="paint5_linear_141_4809" x1="119.724" y1="213.722" x2="39.1268" y2="-10.0798" gradientUnits="userSpaceOnUse">
<stop offset="0.38" stop-color="#7A9D3E"/>
<stop offset="1" stop-color="#EACE20"/>
</linearGradient>
</defs>
</svg>
