<svg width="61" height="77" viewBox="0 0 61 77" fill="none" xmlns="http://www.w3.org/2000/svg">
<circle cx="30.5" cy="30.5" r="30.5" fill="#799E3E"/>
<path d="M30.5 77L5.81828 47.75L55.1817 47.75L30.5 77Z" fill="#799E3E"/>
<path d="M30.4615 30.3228C30.4615 30.163 30.5405 29.9712 30.6195 29.9392C30.6984 29.9072 31.267 29.9392 31.8513 29.9392C32.6233 29.9932 33.3948 29.8271 34.0781 29.4597C35.4837 28.5966 36.1312 27.1101 36.1312 24.6645C36.1312 21.0522 34.315 18.5907 30.7932 18.5907C30.3764 18.5687 29.9591 18.6228 29.5613 18.7505C29.412 18.8945 29.317 19.0867 29.2929 19.294C29.2929 20.3809 29.2139 22.6186 29.2139 28.181C29.2139 31.0101 29.2139 35.2298 29.2929 37.3557C29.2929 38.4426 29.5613 39.0819 30.5563 39.3537C31.3626 39.5315 32.1808 39.649 33.0042 39.7053C33.0812 39.9147 33.1139 40.1381 33.1003 40.3611C33.0867 40.5841 33.0271 40.8018 32.9253 41H21.1279C20.9703 40.5942 20.9703 40.1431 21.1279 39.7373C21.8078 39.6596 22.4828 39.5422 23.1494 39.3856C24.1128 39.1619 24.2233 38.4905 24.2707 37.2278C24.3181 35.9651 24.3812 33.0081 24.3812 28.4207C24.3812 24.185 24.3812 21.8834 24.3023 20.7006C24.2233 19.5178 24.0338 18.7825 23.023 18.5427C22.3859 18.4182 21.7428 18.3275 21.0963 18.271C20.9679 17.8601 20.9679 17.4192 21.0963 17.0083H33.3201C35.1219 16.9303 36.9051 17.4038 38.437 18.3669C39.2657 18.9997 39.9311 19.8257 40.3766 20.7747C40.8221 21.7236 41.0344 22.7675 40.9955 23.8174C41.0307 25.1395 40.7097 26.4465 40.0671 27.5981C39.4244 28.7497 38.4842 29.7027 37.3473 30.3548C35.9401 31.1574 34.351 31.576 32.7357 31.5695C32.1536 31.5746 31.5721 31.5264 30.9985 31.4257C30.7092 31.113 30.498 30.7349 30.3826 30.3228" fill="white"/>
<circle cx="30.5" cy="30.5" r="25.5" stroke="white" stroke-width="2"/>
</svg>
