<svg width="42" height="38" viewBox="0 0 42 38" fill="none" xmlns="http://www.w3.org/2000/svg">
<circle cx="12" cy="26" r="12" fill="#FFD600" fill-opacity="0.25"/>
<path d="M15.3423 18.8318L16.3463 17.6626C16.9111 16.9965 17.7408 16.3517 17.7966 15.3951C17.7795 14.4745 17.5753 13.5675 17.197 12.7309C16.9948 12.1994 16.7786 11.6609 16.5764 11.1224C16.2607 10.0849 15.7904 9.10277 15.182 8.21011C14.8031 7.83351 14.3182 7.58614 13.7947 7.50234C13.2712 7.41853 12.735 7.50245 12.2605 7.74245C12.2605 7.74245 6.58498 10.513 8.33505 16.0612C8.33505 16.0612 11.7167 31.6925 28.7363 34.9095C28.7363 34.9095 34.8441 35.7952 36.4827 32.0256C36.8611 31.1315 37.042 30.164 37.0126 29.1912C36.9605 28.7942 36.8096 28.4173 36.5741 28.0961C36.3386 27.7749 36.0264 27.5202 35.6669 27.356C34.7674 26.8317 33.9726 26.3427 32.9476 25.8326C32.0621 25.3861 31.0442 24.7342 30.0192 25.0177C29.3105 25.3232 28.6928 25.8117 28.2273 26.4348C27.5301 27.1434 26.8956 27.852 26.2262 28.5606C26.2541 28.5889 17.6362 25.372 15.3423 18.8318Z" fill="#799E3E"/>
<path d="M23.3118 12.2207C23.2445 12.2276 23.1768 12.2276 23.1096 12.2207C22.8692 12.1617 22.6613 12.009 22.5308 11.7955C22.4004 11.5821 22.3578 11.325 22.4123 11.0799L24.3855 1.75492C24.4382 1.50686 24.5857 1.29023 24.7956 1.1527C25.0055 1.01516 25.2605 0.967982 25.5046 1.02154C25.7487 1.0751 25.9619 1.22501 26.0972 1.43829C26.2325 1.65157 26.2789 1.91075 26.2262 2.15882L24.2321 11.4696C24.1872 11.6833 24.0711 11.8747 23.9034 12.0115C23.7358 12.1484 23.5268 12.2222 23.3118 12.2207Z" fill="url(#paint0_linear_15_1523)" stroke="url(#paint1_linear_15_1523)" stroke-width="0.5"/>
<path d="M31.5115 20.1356C31.2854 20.1316 31.0683 20.0451 30.8998 19.8918C30.7314 19.7385 30.6229 19.5288 30.5941 19.3009C30.5653 19.0729 30.6182 18.8421 30.7431 18.6506C30.8681 18.4591 31.0566 18.3197 31.2744 18.2578L40.3385 15.8557C40.5754 15.8047 40.8225 15.8485 41.0285 15.9778C41.2344 16.1072 41.3834 16.3123 41.4445 16.5504C41.5055 16.7885 41.4739 17.0414 41.3562 17.2564C41.2386 17.4715 41.0439 17.6322 40.8127 17.7051L31.7485 20.1001C31.6713 20.1223 31.5917 20.1342 31.5115 20.1356Z" fill="url(#paint2_linear_15_1523)" stroke="url(#paint3_linear_15_1523)" stroke-width="0.5"/>
<path d="M29.5448 14.2188C29.3268 14.2201 29.1151 14.1451 28.9452 14.0063C28.7529 13.8446 28.6317 13.612 28.6082 13.3595C28.5847 13.1071 28.6607 12.8554 28.8197 12.66L34.7881 5.31196C34.8628 5.20395 34.9588 5.11285 35.07 5.04439C35.1811 4.97594 35.305 4.93161 35.4338 4.91421C35.5626 4.89681 35.6936 4.9067 35.8185 4.94328C35.9434 4.97985 36.0595 5.04231 36.1594 5.12671C36.2594 5.21112 36.341 5.31564 36.3993 5.43371C36.4575 5.55177 36.4911 5.68082 36.4978 5.81271C36.5046 5.9446 36.4844 6.07649 36.4386 6.20007C36.3927 6.32364 36.3221 6.43622 36.2313 6.53072L30.2699 13.8716C30.182 13.9806 30.0713 14.0682 29.9459 14.1283C29.8205 14.1883 29.6835 14.2193 29.5448 14.2188Z" fill="url(#paint4_linear_15_1523)" stroke="url(#paint5_linear_15_1523)" stroke-width="0.5"/>
<defs>
<linearGradient id="paint0_linear_15_1523" x1="19.0466" y1="-19.1406" x2="38.9705" y2="-6.17871" gradientUnits="userSpaceOnUse">
<stop stop-color="#E2CE2B"/>
<stop offset="0.483305" stop-color="#C8C230"/>
<stop offset="1" stop-color="#799E3E"/>
</linearGradient>
<linearGradient id="paint1_linear_15_1523" x1="24.9998" y1="-9.00001" x2="22.9998" y2="15" gradientUnits="userSpaceOnUse">
<stop stop-color="#E2CE2B"/>
<stop offset="1" stop-color="#799E3E"/>
</linearGradient>
<linearGradient id="paint2_linear_15_1523" x1="21.1535" y1="8.11918" x2="24.4923" y2="24.1205" gradientUnits="userSpaceOnUse">
<stop stop-color="#E2CE2B"/>
<stop offset="0.483305" stop-color="#C8C230"/>
<stop offset="1" stop-color="#799E3E"/>
</linearGradient>
<linearGradient id="paint3_linear_15_1523" x1="53.5" y1="12" x2="29" y2="21" gradientUnits="userSpaceOnUse">
<stop stop-color="#E2CE2B"/>
<stop offset="1" stop-color="#799E3E"/>
</linearGradient>
<linearGradient id="paint4_linear_15_1523" x1="21.7643" y1="-11.8027" x2="37.9949" y2="14.2425" gradientUnits="userSpaceOnUse">
<stop stop-color="#E2CE2B"/>
<stop offset="0.483305" stop-color="#C8C230"/>
<stop offset="1" stop-color="#799E3E"/>
</linearGradient>
<linearGradient id="paint5_linear_15_1523" x1="44" y1="-4.00001" x2="26" y2="19" gradientUnits="userSpaceOnUse">
<stop stop-color="#E2CE2B"/>
<stop offset="1" stop-color="#799E3E"/>
</linearGradient>
</defs>
</svg>
