<svg width="176" height="44" viewBox="0 0 176 44" fill="none" xmlns="http://www.w3.org/2000/svg">
<path d="M140.027 0H141.553C141.91 0.21981 142.255 0.474337 142.643 0.644986C143.066 0.52351 143.402 0.216919 143.779 0H145.266C144.792 0.942892 144.087 1.9552 142.908 1.92916C141.559 2.14898 140.547 1.13089 140.027 0ZM0 2.38615H4.96074V38.8986C8.1989 38.9044 11.4371 38.9015 14.6753 38.9015C17.9768 28.9462 21.2753 18.9938 24.571 9.04139C27.9558 9.03561 31.3407 9.03844 34.7255 9.03844C34.7283 18.4616 34.7255 27.8847 34.7283 37.3108C30.5699 37.3108 26.4115 37.3136 22.2559 37.3079C22.8023 35.6448 23.3545 33.9817 23.9067 32.3187C25.8363 32.3245 27.7632 32.3215 29.6928 32.3215V14.1C29.2154 14.1 28.738 14.1029 28.2635 14.1029C24.9678 24.0583 21.6635 34.0077 18.3708 43.963H0V2.38615Z" fill="#93130A"/>
<path d="M6.55107 2.38036C8.22483 2.38903 9.89859 2.38614 11.5724 2.38614C11.5781 10.6205 11.5724 18.8578 11.5752 27.0951C14.3331 18.8722 17.0478 10.6349 19.7683 2.40061C26.9579 2.3659 34.1503 2.39483 41.3398 2.38614V43.963H20.0473C20.6053 42.2769 21.166 40.5907 21.7239 38.9044C26.5841 38.8957 31.4442 38.9044 36.3072 38.9015V7.44772C32.0395 7.44477 27.7717 7.4535 23.5041 7.44477C20.2026 17.4029 16.8638 27.3497 13.5738 37.3107C11.2301 37.3079 8.88624 37.3107 6.54251 37.3107C6.54826 25.6663 6.53382 14.0248 6.55107 2.38036ZM49.5359 2.38614C50.3901 2.38614 51.2413 2.38614 52.0983 2.38036C52.9898 4.87636 53.8066 7.40429 54.7182 9.89457C55.5752 7.38978 56.4409 4.88805 57.2949 2.38325C58.1605 2.38614 59.0232 2.38614 59.8889 2.38614V12.4369H57.9478C57.9391 10.0652 57.9621 7.69647 57.9363 5.32467C57.0678 7.67618 56.3632 10.0826 55.5062 12.4398C54.9626 12.4369 54.4191 12.4341 53.8756 12.4311C53.1135 10.0421 52.2508 7.68774 51.5087 5.29293C51.4426 7.67323 51.4915 10.0566 51.4772 12.4369C50.8301 12.4369 50.1802 12.4369 49.5331 12.4341C49.5359 9.0847 49.5359 5.73545 49.5359 2.38614ZM65.0568 2.3659C66.9721 1.9176 69.1634 2.49027 70.4202 4.06369C72.3124 6.21845 71.9673 9.94661 69.6236 11.6358C67.113 13.6083 62.9142 12.7349 61.6029 9.74707C60.1563 6.89816 61.9048 3.008 65.0568 2.3659ZM65.4105 4.22855C64.1106 4.5843 63.0954 5.82513 63.0494 7.1874C62.8338 9.0067 64.3694 10.7507 66.1783 10.8288C68.3266 11.0081 70.2361 8.7695 69.6379 6.66392C69.2756 4.80993 67.1791 3.65298 65.4105 4.22855ZM72.3872 7.22492C72.4389 4.92274 74.1817 2.70141 76.4766 2.32251C78.8462 1.77008 81.4 3.06872 82.3202 5.34497C81.6042 5.35075 80.891 5.35075 80.1777 5.34497C79.0619 3.98848 76.908 3.62983 75.5506 4.82727C73.9862 6.00155 73.8653 8.54671 75.3177 9.85988C76.583 11.2048 78.8462 11.0949 80.0368 9.70081C80.7759 9.68629 81.5179 9.68924 82.2598 9.70364C81.7076 10.6176 81.0865 11.5576 80.1087 12.058C78.1733 13.1368 75.5276 12.8447 73.9459 11.2598C72.9135 10.2012 72.3095 8.71451 72.3872 7.22492ZM87.8361 2.99931C88.3567 1.9494 89.665 2.5134 90.5884 2.4006C89.3493 4.06657 88.0551 5.69202 86.8324 7.3696C88.0974 9.04139 89.3435 10.7304 90.5684 12.4311C89.8034 12.4369 89.0349 12.4369 88.2699 12.4398C87.2667 11.0284 86.2774 9.60534 85.268 8.19965V12.4369H83.3268V2.38614H85.268C85.268 3.78023 85.2593 5.17433 85.2795 6.56845C86.1595 5.39996 86.9733 4.18227 87.8361 2.99931Z" fill="#93130A"/>
<path d="M93.8643 2.47581C95.7651 1.87711 98.039 2.32252 99.4083 3.8352C101.218 5.66889 101.319 8.8881 99.6465 10.8404C97.9452 12.943 94.5976 13.2902 92.434 11.7197C90.5227 10.3891 89.7741 7.68774 90.6541 5.53873C91.1891 4.09551 92.4023 2.9357 93.8643 2.47581ZM94.7384 4.19384C93.3692 4.50332 92.2791 5.79905 92.2334 7.21631C92.0633 8.85919 93.3058 10.476 94.9133 10.7593C96.8716 11.2221 98.9308 9.55613 98.9308 7.53445C99.0692 5.37683 96.7976 3.58357 94.7384 4.19384ZM102.092 2.38613C103.699 2.45554 105.456 2.10846 106.922 2.94146C108.309 3.78311 108.315 5.92048 107.127 6.94442C109.011 7.83808 109.1 10.8837 107.277 11.8787C105.687 12.7347 103.817 12.3588 102.092 12.4339C102.092 9.0847 102.088 5.73545 102.092 2.38613ZM103.963 4.23141C103.961 4.90528 103.961 5.57921 103.963 6.25609C104.478 6.21267 105.007 6.25019 105.508 6.0969C106.069 5.93205 106.143 5.21764 105.985 4.74042C105.503 4.11862 104.639 4.31529 103.963 4.23141ZM103.961 8.07822C103.961 8.90828 103.961 9.74128 103.963 10.5743C104.769 10.4932 105.772 10.7738 106.403 10.1086C106.946 9.56487 106.678 8.53514 105.985 8.26326C105.338 8.02028 104.633 8.1187 103.961 8.07822ZM109.615 5.81062C110.133 4.11864 111.556 2.7043 113.304 2.34855C114.699 2.07378 116.255 2.21838 117.442 3.06005C118.283 3.6067 118.823 4.4715 119.303 5.33045C118.576 5.34792 117.848 5.3537 117.123 5.34497C116.419 4.6219 115.518 3.97402 114.452 4.10417C112.476 4.09839 110.892 6.16641 111.332 8.09557C111.647 9.76158 113.328 11.0631 115.021 10.8027C115.815 10.7218 116.398 10.1404 117.046 9.74412C117.767 9.62847 118.504 9.69502 119.232 9.70942C118.679 10.6437 118.021 11.575 117.038 12.0869C115.605 12.8621 113.813 12.8939 112.333 12.2402C110.002 11.1874 108.761 8.22856 109.615 5.81062ZM120.356 2.38324C120.977 2.38613 121.598 2.38613 122.223 2.38613C122.223 3.80047 122.219 5.21197 122.225 6.62628C123.238 5.22354 124.238 3.81204 125.233 2.39192C126.012 2.38613 126.795 2.38613 127.577 2.38613C126.326 4.03764 125.079 5.68919 123.81 7.32617C125.043 9.04127 126.323 10.7246 127.56 12.4369C126.775 12.4369 125.995 12.4339 125.213 12.4224C124.235 10.9937 123.223 9.59378 122.228 8.17947C122.217 9.59661 122.223 11.0168 122.223 12.4369H120.353C120.353 9.0847 120.35 5.73545 120.356 2.38324ZM128.621 2.38614C129.265 2.38614 129.913 2.38614 130.563 2.38325C130.565 4.67974 130.557 6.97628 130.565 9.27268C132.02 6.97628 133.455 4.66818 134.925 2.38036C135.554 2.38325 136.184 2.38614 136.817 2.38903C136.817 5.73828 136.817 9.08765 136.82 12.4369H134.876C134.873 10.1607 134.882 7.88151 134.87 5.60529C133.429 7.87868 132 10.1635 130.559 12.4369C129.909 12.4369 129.265 12.4369 128.618 12.4341C128.621 9.0847 128.621 5.73545 128.621 2.38614ZM138.543 2.38614C139.187 2.38614 139.831 2.38325 140.479 2.38036C140.489 4.68553 140.483 6.98785 140.481 9.29003C141.928 6.99363 143.388 4.70578 144.817 2.40061C145.456 2.38903 146.094 2.38614 146.736 2.38036C146.738 5.7325 146.738 9.0847 146.738 12.4369H144.869C144.861 10.1433 144.883 7.84681 144.857 5.55325C143.377 7.8179 141.944 10.1173 140.521 12.4195C139.86 12.4311 139.201 12.4369 138.543 12.4427V2.38614ZM169.34 15.7197C169.858 15.7052 170.381 15.6936 170.904 15.6936C171.289 16.5151 172.446 16.5787 172.817 15.7024C173.36 15.6994 173.909 15.7052 174.458 15.7197C174.093 17.0617 172.75 17.9381 171.382 17.6257C170.329 17.5562 169.642 16.6538 169.34 15.7197ZM87.0999 19.9193C88.7333 17.6836 92.2533 17.296 94.3818 19.0255C95.0576 19.5462 95.4859 20.3011 95.9059 21.0328C95.1984 21.0328 94.4827 21.1052 93.7834 20.9837C93.1157 20.5787 92.5326 19.9685 91.7242 19.8615C89.8175 19.5057 87.8533 21.1919 87.9166 23.1471C87.8188 25.0386 89.5957 26.7481 91.4742 26.5456C92.3742 26.5571 93.0841 25.9498 93.7177 25.3829C94.4334 25.3771 95.1526 25.38 95.8707 25.3944C95.4342 26.1349 94.9942 26.91 94.2867 27.4248C92.2393 29.0012 88.975 28.7321 87.2983 26.725C85.6678 24.868 85.5297 21.8572 87.0999 19.9193ZM49.5359 18.1492H51.4771C51.4829 20.4254 51.4656 22.7018 51.4857 24.975C52.9322 22.7046 54.3644 20.4254 55.8023 18.1492C56.4437 18.1492 57.0878 18.1492 57.732 18.1522C57.7205 21.5044 57.755 24.8594 57.7147 28.2144C57.0735 28.2029 56.4322 28.2 55.7908 28.1942C55.788 25.9121 55.7938 23.6301 55.7908 21.3481C54.3184 23.6157 52.9007 25.9179 51.4455 28.1971C50.8128 28.2 50.1802 28.2029 49.5474 28.2086C49.5187 24.8564 49.5446 21.5044 49.5359 18.1492ZM59.4575 18.152C60.1017 18.1492 60.7487 18.1492 61.3929 18.1463C61.4016 19.4738 61.3987 20.7986 61.3987 22.1261C62.5692 22.1261 63.7425 22.1232 64.9129 22.1319C64.9244 20.8044 64.9216 19.4768 64.9216 18.1492H66.8627V28.1999H64.9216C64.9216 26.803 64.9216 25.406 64.9244 24.009C63.7482 24.0061 62.572 24.0033 61.3958 24.009C61.4016 25.406 61.3987 26.803 61.3987 28.1999H59.4575V18.152ZM68.7062 26.3229C69.9513 23.6042 71.1506 20.8622 72.3987 18.1434C72.9623 18.1492 73.5289 18.1522 74.0983 18.155C75.2802 20.8825 76.5427 23.5751 77.7276 26.3026C78.0352 26.3142 78.3459 26.3257 78.6593 26.3345C78.6508 27.367 78.6536 28.3966 78.6536 29.4263C78.0324 29.4292 77.4083 29.4292 76.7872 29.4321C76.7843 29.0214 76.7843 28.6107 76.7814 28.2C74.4089 28.2 72.0363 28.1971 69.6637 28.2029C69.6637 28.5094 69.6667 29.1226 69.6695 29.4292H67.7974V26.32C68.0246 26.32 68.4789 26.32 68.7062 26.3229ZM73.2183 20.8593C72.4418 22.6873 71.6366 24.5008 70.8457 26.32H75.6225C74.8057 24.5066 74.0465 22.6699 73.2183 20.8593ZM77.1352 18.1492C77.9145 18.1492 78.6938 18.1492 79.4761 18.1464C80.3733 19.8643 81.1497 21.646 82.0614 23.3582C82.8034 21.6171 83.5482 19.8759 84.3161 18.1434C85.012 18.1464 85.7079 18.1492 86.4067 18.1522C84.92 21.5042 83.3929 24.8391 81.9032 28.1942C81.1958 28.1971 80.4855 28.2 79.778 28.2029C80.1403 27.312 80.6954 26.4762 80.8968 25.5362C79.6917 23.0517 78.389 20.6134 77.1352 18.1492ZM96.1242 18.1492C97.9933 18.1492 99.8624 18.1492 101.732 18.1522V20.0263C101.108 20.0292 100.484 20.0293 99.8624 20.0293V28.2H97.9217V20.0321C97.3233 20.0293 96.7226 20.0293 96.1242 20.0293V18.1492ZM102.595 18.1522C104.163 18.2302 105.81 17.9034 107.317 18.4703C109.324 19.3119 109.586 22.4616 107.883 23.7372C106.92 24.44 105.672 24.4255 104.536 24.4689C104.536 25.7126 104.536 26.9562 104.533 28.2H102.595V18.1522ZM104.539 20.0148C104.536 20.8651 104.533 21.7155 104.53 22.5687C105.295 22.5195 106.195 22.6901 106.817 22.1233C107.251 21.5419 107.164 20.5151 106.451 20.1882C105.85 19.9367 105.174 20.0523 104.539 20.0148ZM110.072 18.1492H112.013C112.013 20.4428 112.01 22.7365 112.013 25.0271C113.48 22.7422 114.906 20.4284 116.376 18.1434C117.006 18.1464 117.635 18.1492 118.268 18.1522V28.2H116.398C116.393 25.889 116.408 23.5809 116.393 21.273C114.929 23.5694 113.474 25.8688 112.036 28.1827C111.38 28.1942 110.725 28.2 110.072 28.2058V18.1492ZM123.349 18.152C123.858 18.1492 124.371 18.1463 124.883 18.1405C126.306 21.4783 127.657 24.8478 129.058 28.1971C128.347 28.1999 127.64 28.1999 126.932 28.1999C126.593 27.3322 126.248 26.4675 125.903 25.5998C124.707 25.594 123.511 25.5912 122.314 25.6085C121.989 26.4762 121.646 27.338 121.305 28.1971C120.598 28.1999 119.89 28.1999 119.185 28.2029C120.558 24.8449 121.963 21.5014 123.349 18.152ZM124.118 21.0067C123.769 21.9121 123.418 22.8145 123.067 23.7169H125.17C124.825 22.8116 124.477 21.9063 124.118 21.0067ZM129.112 28.2029C130.438 24.8536 131.738 21.4899 133.082 18.1434C133.641 18.1492 134.206 18.1492 134.769 18.1522C136.073 21.5072 137.409 24.8449 138.717 28.1971C138.007 28.2 137.3 28.2 136.592 28.2C135.692 25.7646 134.824 23.3149 133.904 20.8853C133.018 23.3265 132.127 25.7618 131.235 28.2029C130.527 28.2 129.818 28.2 129.112 28.2029ZM139.621 18.1492H141.563C141.563 19.4247 141.563 20.7003 141.559 21.9758C142.782 21.9902 144.142 21.8341 145.192 22.6034C146.863 23.8615 146.643 26.9418 144.688 27.8153C143.092 28.5037 141.303 28.093 139.621 28.1971V18.1492ZM141.565 23.8528C141.563 24.6772 141.559 25.5044 141.563 26.3315C142.264 26.2998 142.998 26.4039 143.678 26.184C144.573 25.8601 144.619 24.4428 143.773 24.0322C143.077 23.7372 142.296 23.8934 141.565 23.8528ZM147.386 18.1492H149.327C149.327 19.4768 149.324 20.8015 149.33 22.1291C150.503 22.1261 151.677 22.1261 152.85 22.1261C152.85 20.7986 152.847 19.474 152.852 18.1492H154.791V28.2H152.85C152.85 26.803 152.847 25.406 152.852 24.009C151.677 24.0061 150.5 24.0061 149.324 24.009C149.327 25.406 149.327 26.803 149.327 28.2H147.386V18.1492ZM156.517 18.1522C157.161 18.1492 157.807 18.1492 158.457 18.1492V21.9758C159.682 21.996 161.066 21.8167 162.11 22.6149C163.815 23.9251 163.502 27.0922 161.442 27.8905C159.873 28.4632 158.162 28.0988 156.531 28.2086C156.496 24.8564 156.525 21.5044 156.517 18.1522ZM158.457 23.8528C158.455 24.6772 158.457 25.5044 158.457 26.3315C159.163 26.3026 159.896 26.3981 160.586 26.1927C161.569 25.8283 161.474 24.1681 160.445 23.9339C159.789 23.8181 159.119 23.8615 158.457 23.8528ZM164.138 18.1492H166.007V28.2H164.138V18.1492ZM167.804 18.1492H169.673C169.676 20.4601 169.668 22.7712 169.679 25.0821C171.126 22.7682 172.595 20.4689 174.044 18.1578C174.694 18.152 175.348 18.1492 176 18.1463V28.1971C175.353 28.1999 174.706 28.1999 174.062 28.2029C174.053 25.9035 174.062 23.604 174.056 21.3047C172.597 23.5983 171.146 25.8948 169.702 28.1999H167.804V18.1492ZM49.5359 33.9122H55.4314V35.7923H51.4772C51.4772 36.4402 51.4772 37.088 51.48 37.7359C52.7511 37.7707 54.1947 37.5971 55.2675 38.4329C56.3085 39.2631 56.5213 40.7902 56.1418 42.005C55.7765 43.1272 54.6607 43.8676 53.5161 43.9399C52.1903 44.0093 50.8618 43.9457 49.5331 43.9602C49.5359 40.6108 49.5359 37.2616 49.5359 33.9122ZM51.4772 39.613V42.0859C52.5441 42.1004 54.4623 42.3752 54.4248 40.7729C54.2177 39.344 52.5096 39.6448 51.4772 39.613ZM60.9242 33.9094C61.4275 33.9094 61.9278 33.9064 62.4311 33.9036C63.8402 37.2471 65.2207 40.6051 66.6039 43.9601C65.8936 43.963 65.1832 43.963 64.4729 43.9601C64.148 43.1156 63.8172 42.2739 63.4837 41.4293C62.2816 41.4323 61.0766 41.4293 59.8745 41.4351C59.5524 42.2826 59.2188 43.1214 58.8881 43.963C58.1779 43.963 57.4646 43.963 56.7542 43.9601C58.1375 40.608 59.5179 37.2529 60.9242 33.9094ZM60.6136 39.5522C61.3268 39.5522 62.0372 39.5522 62.7503 39.5552C62.3966 38.6354 62.0372 37.7185 61.692 36.7959C61.3239 37.7099 60.9616 38.6296 60.6136 39.5522ZM67.5127 33.9094C68.1568 33.9122 68.8039 33.9122 69.451 33.9122V37.9615C70.6272 37.9615 71.8005 37.9615 72.9738 37.9587V33.9122H74.915V43.963H72.9738C72.9738 42.5661 72.971 41.172 72.9796 39.7778C71.8034 39.7663 70.6272 39.7663 69.451 39.7692C69.451 41.1632 69.4481 42.5574 69.4596 43.9515C68.8097 43.9573 68.1598 43.963 67.5097 43.9688C67.5097 40.6138 67.5097 37.2616 67.5127 33.9094ZM81.5437 33.9297C82.3288 33.9122 83.1111 33.9122 83.8961 33.9122C82.6453 35.5696 81.3885 37.2182 80.1288 38.8639C81.3655 40.5733 82.6279 42.2653 83.8818 43.963C82.9846 43.8127 81.6616 44.4027 81.1354 43.3904C80.2842 42.1727 79.4416 40.9521 78.5731 39.7519C78.5846 41.1546 78.5816 42.5603 78.5816 43.963H76.6405V33.9122H78.5816C78.5816 35.3064 78.5816 36.7005 78.5788 38.0946C79.5911 36.7236 80.5775 35.3324 81.5437 33.9297Z" fill="#93130A"/>
</svg>
