<svg width="23" height="23" viewBox="0 0 23 23" fill="none" xmlns="http://www.w3.org/2000/svg">
<path d="M13.8343 2.30864C13.8796 2.1429 13.9882 2.00162 14.1368 1.91529C14.2854 1.82896 14.4619 1.80451 14.6284 1.84721C16.1923 2.26756 17.6182 3.09157 18.7633 4.23668C19.9084 5.38178 20.7324 6.80774 21.1528 8.37165C21.1754 8.4541 21.1814 8.54022 21.1703 8.625C21.1593 8.70978 21.1315 8.79152 21.0886 8.86544C21.0456 8.93935 20.9884 9.00398 20.9202 9.05554C20.852 9.1071 20.7742 9.14456 20.6914 9.16574L20.5304 9.1872C20.3878 9.18698 20.2494 9.13944 20.1367 9.05205C20.0241 8.96465 19.9436 8.84235 19.908 8.70431C19.5441 7.36019 18.8345 6.13483 17.8498 5.15018C16.8652 4.16553 15.6398 3.45592 14.2957 3.092C14.1323 3.04663 13.9929 2.93962 13.9068 2.7935C13.8207 2.64738 13.7947 2.47355 13.8343 2.30864ZM13.405 6.40788C14.1673 6.61656 14.8621 7.0202 15.4209 7.57905C15.9798 8.13791 16.3834 8.83269 16.5921 9.59498C16.6278 9.73302 16.7082 9.85533 16.8209 9.94272C16.9335 10.0301 17.072 10.0776 17.2145 10.0779L17.3755 10.0564C17.5397 10.0087 17.6793 9.89962 17.7652 9.75176C17.8511 9.60389 17.8768 9.42862 17.8369 9.26232C17.5718 8.28024 17.0537 7.38487 16.3344 6.66558C15.6151 5.94628 14.7198 5.42822 13.7377 5.16308C13.5714 5.1232 13.3961 5.14888 13.2482 5.2348C13.1004 5.32072 12.9913 5.46028 12.9436 5.62452C12.9012 5.78957 12.9259 5.96472 13.0124 6.11156C13.0989 6.2584 13.2401 6.36495 13.405 6.40788ZM21.9898 16.935C21.8099 18.3338 21.127 19.6194 20.0685 20.5515C19.01 21.4836 17.6484 21.9985 16.238 22C7.83564 22 1 15.1644 1 6.762C1.00152 5.35161 1.51641 3.99001 2.44851 2.93153C3.38061 1.87304 4.66616 1.19007 6.06502 1.01019C6.38691 0.97251 6.71235 1.03993 6.99278 1.20238C7.27321 1.36484 7.49358 1.61362 7.62102 1.91159L9.77795 6.94443C9.87579 7.17214 9.91619 7.42041 9.89561 7.6674C9.87503 7.91439 9.79409 8.15254 9.65991 8.36092L7.86783 11.0866C7.85012 11.1173 7.83991 11.1518 7.83805 11.1872C7.83619 11.2227 7.84271 11.258 7.8571 11.2905C8.68138 12.9805 10.0494 14.3448 11.7417 15.1644C11.7746 15.1791 11.8107 15.1849 11.8466 15.1811C11.8824 15.1774 11.9165 15.1642 11.9456 15.1429L14.6391 13.3508C14.8454 13.2122 15.0833 13.1278 15.3309 13.1052C15.5784 13.0827 15.8276 13.1229 16.0556 13.2221L21.0884 15.379C21.3864 15.5064 21.6352 15.7268 21.7976 16.0072C21.9601 16.2876 22.0275 16.6131 21.9898 16.935ZM20.7128 16.774C20.7165 16.7293 20.7061 16.6845 20.683 16.646C20.6599 16.6075 20.6253 16.5772 20.584 16.5594L15.5512 14.4025C15.518 14.3897 15.4821 14.3849 15.4467 14.3887C15.4112 14.3924 15.3772 14.4045 15.3473 14.4239L12.6646 16.216C12.4474 16.3587 12.1973 16.4434 11.9381 16.4622C11.6789 16.481 11.4192 16.4332 11.1837 16.3233C9.23176 15.3731 7.65308 13.7981 6.69815 11.8485C6.58663 11.6158 6.53694 11.3583 6.55385 11.1008C6.57077 10.8433 6.65373 10.5945 6.79473 10.3783L8.57608 7.65267C8.59734 7.62361 8.61053 7.58943 8.6143 7.55362C8.61807 7.51781 8.61228 7.48164 8.59754 7.44878L6.44061 2.41595C6.42415 2.37822 6.39719 2.34603 6.36294 2.32319C6.3287 2.30036 6.28861 2.28786 6.24745 2.28718H6.22599C5.13912 2.43004 4.14098 2.96231 3.41674 3.78521C2.69251 4.60811 2.29136 5.66579 2.28772 6.762C2.29056 10.461 3.76123 14.0076 6.3768 16.6232C8.99237 19.2388 12.539 20.7094 16.238 20.7123C17.3342 20.7086 18.3919 20.3075 19.2148 19.5833C20.0377 18.859 20.57 17.8609 20.7128 16.774Z" fill="white" stroke="white" stroke-width="0.3"/>
</svg>
