<svg width="46" height="32" viewBox="0 0 46 32" fill="none" xmlns="http://www.w3.org/2000/svg">
<path d="M0.962501 32L7.315 9.41176L9.4325 17.8824C6.67334 17.8824 4.39542 17.098 2.59875 15.5294C0.86625 13.9608 0 11.7961 0 9.03529C0 6.27451 0.898334 4.07843 2.695 2.44706C4.49167 0.815686 6.70542 0 9.33625 0C12.0313 0 14.245 0.847059 15.9775 2.54118C17.71 4.17255 18.5763 6.33726 18.5763 9.03529C18.5763 9.85098 18.5121 10.6667 18.3838 11.4824C18.2554 12.2353 17.9988 13.1765 17.6138 14.3059C17.2929 15.3725 16.7475 16.7529 15.9775 18.4471L10.4913 32H0.962501Z" fill="#799E3E"/>
<path d="M28.3862 32L34.7387 9.41176L36.8562 17.8824C34.0971 17.8824 31.8192 17.098 30.0225 15.5294C28.29 13.9608 27.4237 11.7961 27.4237 9.03529C27.4237 6.27451 28.3221 4.07843 30.1187 2.44706C31.9154 0.815686 34.1292 0 36.76 0C39.455 0 41.6688 0.847059 43.4012 2.54118C45.1338 4.17255 46 6.33726 46 9.03529C46 9.85098 45.9358 10.6667 45.8075 11.4824C45.6792 12.2353 45.4225 13.1765 45.0375 14.3059C44.7167 15.3725 44.1712 16.7529 43.4012 18.4471L37.915 32H28.3862Z" fill="#799E3E"/>
</svg>
