<svg width="213" height="44" viewBox="0 0 213 44" fill="none" xmlns="http://www.w3.org/2000/svg">
<path d="M199.114 27.772H194.768V23.532H192.542V34.344H194.768V29.68H199.114V34.344H201.34V23.426H199.114V27.772ZM186.924 23.532H184.38L180.034 34.45H182.472L183.32 32.012H187.984L188.832 34.45H191.27L186.924 23.532ZM183.956 29.998L185.546 25.652L187.136 29.998H183.956ZM213 34.344L208.23 28.408L212.788 23.426H210.032L206.11 28.09V23.426H203.884V34.344H206.11V28.832L210.244 34.344H213ZM178.338 28.62C177.702 27.984 176.854 27.666 176.006 27.56H173.674V25.44H178.444V23.532H171.448V34.344H176.006C176.43 34.344 176.854 34.238 177.278 34.132C177.702 34.026 178.02 33.708 178.338 33.39C178.656 33.072 178.868 32.754 179.08 32.33C179.292 31.906 179.292 31.482 179.292 31.058C179.292 30.104 178.868 29.256 178.338 28.62ZM176.43 32.118C176.112 32.436 175.794 32.542 175.37 32.648H173.568V29.468H175.37C175.582 29.468 175.794 29.468 176.006 29.574C176.218 29.68 176.43 29.786 176.536 29.892C176.642 29.998 176.854 30.21 176.854 30.422C176.96 30.634 176.96 30.846 176.96 31.058C176.96 31.376 176.748 31.8 176.43 32.118ZM45.8381 36.146H40.6441L42.9761 32.012L37.1461 21.73H42.4461L45.5201 27.772L48.4881 21.73H53.5761L45.8381 36.146ZM110.71 36.146H104.244C100.746 36.146 97.8841 33.178 97.8841 29.15C97.8841 24.486 100.746 21.73 104.244 21.73H110.71V25.334H106.576C104.138 25.334 102.654 26.076 102.654 29.044C102.654 32.012 104.032 32.648 106.576 32.648H110.71V36.146ZM127.564 36.146H122.794V25.97L117.388 36.146H111.664V21.73H116.434V31.588L121.84 21.73H127.564V36.146ZM93.0081 21.73H87.8141L82.7261 33.708L77.6381 21.73H72.3381L66.1901 36.252H71.1721L72.2321 33.178H77.5321L78.6981 36.252H86.5421L90.3581 25.758L94.0681 36.252H99.0501L93.0081 21.73ZM73.6101 29.892L75.2001 25.758L76.6841 29.892H73.6101ZM63.7521 21.73H54.0001V36.252H58.6641V32.012H63.7521C68.6281 32.012 68.6281 27.666 68.6281 26.712C68.6281 25.758 68.6281 21.73 63.7521 21.73ZM62.1621 28.408H58.7701V25.334H62.1621C62.6921 25.334 64.0701 25.334 64.0701 26.818C64.0701 28.302 62.6921 28.408 62.1621 28.408ZM138.058 27.136H133.288V25.228H142.298V21.624H128.518V36.146H138.058C143.04 36.146 143.04 33.178 143.04 31.588C143.04 29.998 143.04 27.242 138.058 27.136ZM137.21 32.86H133.182V30.528H137.21C138.27 30.528 138.27 31.27 138.27 31.588C138.27 31.906 138.27 32.86 137.21 32.86ZM16.1581 14.416C16.4761 14.416 16.9001 14.416 17.2181 14.522L17.1121 4.664H18.2781C18.1721 8.056 18.3841 11.342 18.7021 14.734C21.4581 15.37 24.0021 16.748 26.0161 18.868C28.0301 20.988 29.3021 23.532 29.8321 26.394C30.3621 29.256 29.9381 32.118 28.7721 34.768C27.6061 37.418 25.6981 39.538 23.2601 41.128C23.1541 41.022 23.0481 40.81 22.8361 40.598C18.4901 35.086 17.4301 26.924 17.1121 19.822C17.7481 19.928 18.2781 20.034 18.9141 20.14C19.8681 26.182 22.5181 31.906 26.7581 36.358C28.2421 34.556 29.0901 32.118 28.8781 29.786C28.7721 27.348 27.7121 25.122 26.1221 23.426C24.2141 21.412 21.8821 19.928 19.2321 19.292C17.9601 18.974 16.6881 18.762 15.4161 18.762C14.1441 18.762 12.7661 18.974 11.4941 19.292C5.98206 20.67 1.84806 25.016 1.84806 30.21C1.84806 32.436 2.59006 34.556 3.96806 36.358C8.20806 31.906 10.8581 26.182 11.8121 20.14C12.4481 20.034 12.9781 20.034 13.7201 19.822C13.4021 27.03 12.3421 35.086 7.99606 40.492C7.89006 40.704 7.67806 40.916 7.57206 41.022C5.13406 39.432 3.33206 37.206 2.16606 34.556C1.00006 31.906 0.682061 29.044 1.21206 26.182C1.74206 23.32 3.12006 20.776 5.02806 18.762C6.93606 16.748 9.58606 15.264 12.3421 14.734C12.7661 7.42 12.6601 4.664 12.6601 4.664H13.8261L13.7201 14.522C14.0381 14.416 14.3561 14.31 14.6741 14.416V0H15.9461C16.0521 0 16.0521 14.416 16.1581 14.416Z" fill="#0E3263"/>
<path d="M16.1581 19.716C16.2641 26.606 16.7941 35.086 19.0201 40.916C19.2321 41.552 19.5501 42.188 19.9741 42.824C18.4901 43.248 17.0061 43.46 15.5221 43.566C14.0381 43.566 12.5541 43.354 11.0701 42.824C11.4941 42.082 11.8121 41.446 12.1301 40.704C14.1441 34.98 14.6741 26.5 14.7801 19.716H16.1581ZM156.608 18.02H157.562V39.856H156.608V18.02Z" fill="#0E3263"/>
</svg>
