<svg width="157" height="11" viewBox="0 0 157 11" fill="none" xmlns="http://www.w3.org/2000/svg">
<path d="M89.9152 3.64735C89.9152 3.96735 89.8288 4.28735 89.6559 4.60735C89.483 4.92735 89.3101 5.24735 88.9643 5.40735C89.8288 5.80735 90.261 6.52735 90.261 7.48736C90.261 8.44736 90.0016 9.24736 89.3101 9.80736C88.7049 10.4474 87.9269 10.6874 86.8031 10.6874H81.7891V0.527344H86.4573C87.4082 0.527344 88.2727 0.847343 88.8778 1.40734C89.5694 1.96735 89.9152 2.76735 89.9152 3.64735ZM86.2844 2.84735H84.469V4.52735H86.2844C86.6302 4.52735 86.8895 4.36735 87.0624 4.12735C87.2353 3.88735 87.1489 3.56735 87.0624 3.32735C86.8895 2.92735 86.6302 2.84735 86.2844 2.84735ZM86.8031 6.68735H84.469V8.44736H86.7166C87.0624 8.44736 87.3218 8.28736 87.4946 8.04736C87.6675 7.80736 87.5811 7.40736 87.4946 7.16736C87.3218 6.76735 87.1489 6.68735 86.8031 6.68735Z" fill="#8E8E8E"/>
<path d="M106.341 7.08744L108.502 10.2875V10.6075H105.303L103.402 7.56745H101.932V10.6075H99.0791V0.527344H103.92C104.612 0.527344 105.217 0.607345 105.822 0.847348C106.427 1.08735 106.773 1.48736 107.119 1.80736C107.378 2.12737 107.724 2.68737 107.81 3.08738C107.897 3.64739 107.983 4.0474 107.897 4.5274C107.81 5.08741 107.637 5.48742 107.465 5.88742C107.119 6.44743 106.773 6.84744 106.341 7.08744ZM103.92 5.40741C104.18 5.40741 104.525 5.32741 104.698 5.16741C104.871 5.00741 104.958 4.84741 105.044 4.5274C105.13 4.2874 105.13 3.96739 105.044 3.72739C105.044 3.48739 104.871 3.32738 104.698 3.08738C104.525 2.92738 104.266 2.84738 103.92 2.84738C103.747 2.84738 103.574 2.84738 103.229 2.84738C102.969 2.84738 102.796 2.84738 102.451 2.84738C102.105 2.84738 102.018 2.84738 101.759 2.84738V5.32741H103.92V5.40741Z" fill="#8E8E8E"/>
<path d="M119.222 3.64735C119.222 3.96735 119.135 4.28735 118.962 4.60735C118.79 4.92735 118.617 5.24735 118.271 5.40735C119.135 5.80735 119.568 6.52735 119.568 7.48736C119.568 8.44736 119.308 9.24736 118.617 9.80736C118.012 10.4474 117.233 10.6874 116.11 10.6874H110.923V0.527344H115.591C116.542 0.527344 117.406 0.847343 118.012 1.40734C118.962 1.96735 119.222 2.76735 119.222 3.64735ZM115.591 2.84735H113.776V4.52735H115.591C115.937 4.52735 116.196 4.36735 116.369 4.12735C116.542 3.88735 116.455 3.56735 116.369 3.32735C116.283 2.92735 115.937 2.84735 115.591 2.84735ZM116.023 6.68735H113.776V8.44736H116.023C116.369 8.44736 116.628 8.28736 116.801 8.04736C116.974 7.80736 116.888 7.40736 116.801 7.16736C116.715 6.76735 116.455 6.68735 116.023 6.68735Z" fill="#8E8E8E"/>
<path d="M129.595 10.6879L128.904 9.40782H124.581L123.89 10.6879H121.21V10.3679L126.138 0.367188H127.348L132.362 10.3679V10.6879H129.595ZM127.953 7.16767L126.743 4.44748L125.532 7.16767H127.953Z" fill="#8E8E8E"/>
<path d="M142.908 10.7693L137.376 5.72926V10.7693H134.437V0.449219H135.474L141.007 5.48926V0.449219H143.946V10.7693H142.908Z" fill="#8E8E8E"/>
<path d="M150.861 0.527344C151.985 0.527344 153.023 0.767318 153.887 1.32726C154.752 1.8872 155.27 2.44714 155.703 3.24706C156.048 4.04697 156.308 4.84689 156.308 5.6468C156.308 6.52671 156.135 7.32663 155.703 8.04655C155.357 8.84646 154.665 9.40641 153.887 9.96635C153.023 10.5263 151.985 10.7663 150.861 10.7663H146.712V0.527344H150.861ZM149.478 2.8471V8.36652H150.775C151.207 8.36652 151.726 8.28652 152.072 8.12654C152.418 7.96656 152.763 7.72658 152.936 7.32663C153.109 7.00666 153.282 6.6067 153.368 6.28673C153.455 5.96677 153.455 5.48682 153.368 5.16685C153.282 4.84689 153.109 4.36694 152.936 4.12696C152.763 3.807 152.504 3.48703 152.072 3.32705C151.726 3.16706 151.207 3.08707 150.775 3.08707H149.478V2.8471Z" fill="#8E8E8E"/>
<path d="M0.960562 7.24725C0.701217 6.60724 0.52832 5.88724 0.52832 5.16723C0.52832 4.44722 0.701217 3.72722 0.960562 3.08721C1.21991 2.44721 1.65215 1.9672 2.17084 1.5672C2.68953 1.16719 3.20822 0.847192 3.81336 0.68719C4.4185 0.527189 5.11009 0.367188 5.71522 0.367188C6.83905 0.367188 7.87643 0.68719 8.74092 1.2472C9.6054 1.8872 10.1241 2.76721 10.297 3.88722H7.70354C7.53064 3.00721 6.75261 2.60721 5.62878 2.60721C4.93719 2.60721 4.2456 2.84721 3.81336 3.32721C3.38112 3.80722 3.12177 4.44722 3.12177 5.16723C3.12177 5.88724 3.38112 6.44724 3.81336 6.92725C4.2456 7.40725 4.85074 7.72725 5.62878 7.72725C6.23392 7.72725 6.66616 7.56725 7.0984 7.32725C7.53064 7.08725 7.70354 6.68724 7.78999 6.20724H10.297C10.297 7.08725 9.9512 7.72725 9.43251 8.36726C8.91382 8.92727 8.30868 9.32727 7.70354 9.56727C7.01195 9.80727 6.32036 9.88727 5.54233 9.88727C4.85074 9.88727 4.2456 9.80727 3.64046 9.56727C3.03532 9.32727 2.51663 9.08727 1.99794 8.68726C1.65215 8.28726 1.30636 7.80725 0.960562 7.24725Z" fill="#8E8E8E"/>
<path d="M13.4953 9.72929V10.7693H11.3341V7.72928H12.3715L15.743 0.449219H16.8668L20.4112 7.72928H21.535V10.7693H19.3738V9.72929H13.4953ZM16.4346 4.36925L15.0514 7.64928H17.8177L16.4346 4.36925Z" fill="#8E8E8E"/>
<path d="M29.1423 0.607422V2.76737H25.5114V4.12733H28.8829V6.28728H25.5114V7.96724H29.3152V10.1272H22.918V0.607422H29.1423Z" fill="#8E8E8E"/>
<path d="M35.5394 4.5277L32.9459 9.96809H30.5254V9.64807L35.0207 0.607422H36.0581L40.5534 9.64807V9.96809H38.1329L35.5394 4.5277Z" fill="#8E8E8E"/>
<path d="M49.2847 9.96809L48.6796 8.768H44.7894L44.1842 9.96809H41.7637V9.64807L46.259 0.607422H47.3828L51.7917 9.64807V9.96809H49.2847ZM47.9015 6.84787L46.6912 4.4477L45.5674 6.84787H47.9015Z" fill="#8E8E8E"/>
<path d="M61.3881 0.607422V9.96809H58.7947V6.20782H55.769V9.96809H53.1755V0.607422H55.769V4.04767H58.7947V0.607422H61.3881Z" fill="#8E8E8E"/>
<path d="M72.5395 3.16747C72.7988 3.80754 72.9717 4.52761 72.9717 5.32769C72.9717 6.12777 72.7988 6.76784 72.5395 7.4079C72.2801 8.04797 71.8479 8.52802 71.3292 8.92806C70.8105 9.3281 70.2918 9.64813 69.6867 9.80815C69.0815 10.0482 68.3899 10.1282 67.7848 10.1282C67.1797 10.1282 66.4881 10.0482 65.8829 9.80815C65.2778 9.56812 64.6727 9.3281 64.2404 8.92806C63.7217 8.52802 63.3759 8.04797 63.0301 7.4079C62.7708 6.76784 62.5979 6.04776 62.5979 5.24768C62.5979 4.4476 62.7708 3.72753 63.0301 3.08746C63.2895 2.4474 63.7217 1.96735 64.2404 1.56731C64.7591 1.16727 65.2778 0.847236 65.8829 0.68722C66.4881 0.447196 67.1797 0.367188 67.7848 0.367188C68.4764 0.367188 69.0815 0.447196 69.6867 0.68722C70.2918 0.927244 70.8969 1.16727 71.3292 1.56731C71.8479 2.04736 72.2801 2.52741 72.5395 3.16747ZM65.3642 5.16767C65.3642 5.72773 65.4507 6.20778 65.71 6.60782C65.9694 7.00786 66.3152 7.32789 66.661 7.48791C67.0068 7.64793 67.439 7.72793 67.8712 7.72793C68.3035 7.72793 68.7357 7.64793 69.0815 7.48791C69.4273 7.32789 69.7731 7.00786 70.0325 6.60782C70.2918 6.20778 70.3783 5.72773 70.3783 5.16767C70.3783 4.60762 70.2054 4.20758 69.946 3.80754C69.6867 3.4075 69.3409 3.08746 68.9951 2.92745C68.6493 2.76743 68.217 2.68742 67.8712 2.68742C67.5255 2.68742 67.0068 2.76743 66.661 2.92745C66.3152 3.08746 65.9694 3.4075 65.71 3.80754C65.4507 4.28759 65.3642 4.76763 65.3642 5.16767Z" fill="#8E8E8E"/>
</svg>
