<svg width="194" height="48" viewBox="0 0 194 48" fill="none" xmlns="http://www.w3.org/2000/svg">
<path d="M52.5078 20.0258C53.6546 20.0258 54.9312 20.0656 56.0382 20.8136C56.7762 21.3023 57.6438 22.2697 57.6438 23.995C57.6438 25.8899 56.4471 28.1238 53.1261 28.1238H50.3336V33.3198H47.8903V20.0258H52.5078ZM52.6075 26.1791C53.146 26.1791 53.9239 26.199 54.5422 25.6206C54.9711 25.2317 55.2005 24.5734 55.2005 24.015C55.2005 23.4964 54.991 22.8681 54.5622 22.4991C54.1333 22.1301 53.4552 21.9505 52.6972 21.9505H50.3336V26.1791H52.6075ZM59.8978 24.4438C60.576 23.8055 61.5833 23.247 63.0892 23.247C64.6051 23.247 65.6124 23.8055 66.2905 24.4438C67.2978 25.3912 67.8164 26.8672 67.8164 28.3732C67.8164 29.8791 67.2978 31.3551 66.2905 32.3025C65.6124 32.9408 64.6051 33.5092 63.0892 33.5092C61.5833 33.5092 60.576 32.9408 59.8978 32.3025C58.8906 31.3551 58.372 29.8791 58.372 28.3732C58.362 26.8573 58.8906 25.3912 59.8978 24.4438ZM61.5434 31.1656C61.7528 31.4149 62.2415 31.8836 63.0892 31.8836C63.9469 31.8836 64.4256 31.4249 64.635 31.1656C64.7946 30.9961 65.373 30.2182 65.373 28.3732C65.373 26.5282 64.7946 25.7602 64.635 25.5807C64.4256 25.3314 63.9369 24.8627 63.0892 24.8627C62.2415 24.8627 61.7528 25.3214 61.5434 25.5807C61.3938 25.7602 60.8054 26.5282 60.8054 28.3732C60.8054 30.2082 61.3938 30.9861 61.5434 31.1656ZM75.5454 27.0567C75.5055 26.5581 75.316 25.9697 75.0567 25.6007C74.8173 25.2516 74.3586 24.8627 73.5807 24.8627C72.8227 24.8627 72.3241 25.2516 72.0149 25.7702C71.5262 26.568 71.4963 27.8047 71.4963 28.3732C71.4963 29.2807 71.626 30.3678 72.0149 30.9861C72.2642 31.375 72.7729 31.8737 73.5807 31.8737C74.1591 31.8737 74.6478 31.6443 75.0168 31.1357C75.306 30.7268 75.5055 30.1483 75.5354 29.6397L77.5898 29.8891C77.4701 30.7966 77.0712 31.8138 76.3532 32.4621C75.7548 33.0006 74.8173 33.4893 73.5009 33.4893C72.0349 33.4893 71.0775 32.9109 70.519 32.3823C69.761 31.6642 69.043 30.3877 69.043 28.3732C69.043 26.4982 69.6812 25.3713 70.1899 24.7729C70.9079 23.9152 72.1246 23.2271 73.5607 23.2271C74.7874 23.2271 75.7947 23.6559 76.423 24.3142C77.0612 24.9524 77.4502 25.9198 77.5898 26.7875L75.5454 27.0567ZM85.1594 27.0567C85.1195 26.5581 84.93 25.9697 84.6707 25.6007C84.4414 25.2516 83.9726 24.8627 83.1947 24.8627C82.4368 24.8627 81.9381 25.2516 81.629 25.7702C81.1503 26.568 81.1104 27.8047 81.1104 28.3732C81.1104 29.2807 81.25 30.3678 81.629 30.9861C81.8783 31.375 82.3869 31.8737 83.1947 31.8737C83.7732 31.8737 84.2618 31.6443 84.6308 31.1357C84.9201 30.7268 85.1195 30.1483 85.1494 29.6397L87.2039 29.8891C87.0942 30.7966 86.6853 31.8138 85.9672 32.4621C85.3688 33.0006 84.4414 33.4893 83.1249 33.4893C81.6489 33.4893 80.7015 32.9109 80.143 32.3823C79.3851 31.6642 78.667 30.3877 78.667 28.3732C78.667 26.4982 79.3053 25.3713 79.8139 24.7729C80.5319 23.9152 81.7487 23.2271 83.1848 23.2271C84.4015 23.2271 85.4087 23.6559 86.047 24.3142C86.6853 24.9524 87.0742 25.9198 87.2138 26.7875L85.1594 27.0567ZM97.576 30.4475C97.227 31.6044 96.5286 32.2826 95.9502 32.6915C95.1723 33.21 94.165 33.5092 93.0979 33.5092C91.7615 33.5092 90.4052 32.9408 89.5874 32.113C88.8295 31.3451 88.271 29.9987 88.271 28.413C88.271 26.3985 89.1087 25.0621 90.0163 24.3042C90.5448 23.8554 91.5322 23.2371 93.0181 23.2371C94.903 23.2371 96.0998 24.1047 96.7381 25.0023C97.416 25.9298 97.735 27.2263 97.735 28.3532V28.802H90.7244C90.7244 28.9117 90.7044 29.8093 91.0535 30.5273C91.5721 31.6144 92.5295 31.8836 93.1877 31.8836C93.7063 31.8836 94.3645 31.7241 94.913 31.1656C95.2421 30.8165 95.3817 30.4874 95.4316 30.1783L97.576 30.4475ZM95.292 27.326C95.292 26.7675 95.1524 26.1292 94.8631 25.7004C94.4941 25.1618 93.8359 24.7928 93.1179 24.7928C92.3799 24.7928 91.7416 25.1618 91.3526 25.6206C91.0435 26.0096 90.7742 26.6079 90.7742 27.326H95.292ZM107.299 23.4365V33.3198H105.046V25.112H102.492C102.433 26.4484 102.393 26.9869 102.353 27.9044C102.293 28.9316 102.223 31.0958 101.346 32.2826C100.857 32.9208 100.258 33.1702 99.83 33.2898C99.58 33.3696 99.311 33.3995 99.032 33.3995C98.842 33.3995 98.643 33.3796 98.453 33.3198V31.6144H98.643C98.932 31.5944 99.321 31.4448 99.57 31.2454C100.348 30.627 100.418 29.2308 100.498 28.1238C100.598 26.6678 100.618 25.8001 100.627 24.4837L100.647 23.4365H107.299ZM111.917 26.957H114.4C115.038 26.957 116.275 27.0368 117.093 27.8446C117.831 28.5626 117.901 29.5699 117.901 30.1085C117.901 31.5246 117.322 32.2427 116.873 32.6117C116.714 32.7314 115.986 33.3098 114.59 33.3098H109.673V23.4365H111.917V26.957ZM111.917 31.6842H113.682C114.111 31.6842 114.57 31.6642 114.959 31.3351C115.188 31.1157 115.467 30.7567 115.467 30.1284C115.467 29.5899 115.308 29.161 114.869 28.8718C114.48 28.6225 113.991 28.5826 113.692 28.5826H111.927V31.6842H111.917ZM121.172 23.4365L122.997 26.5082L124.892 23.4365H126.946L124.054 27.9044L127.485 33.3098H124.852L122.608 29.5899L120.244 33.3098H118.19L121.561 28.1837L118.539 23.4365H121.172ZM129.22 24.4438C129.898 23.8055 130.906 23.247 132.411 23.247C133.927 23.247 134.935 23.8055 135.613 24.4438C136.62 25.3912 137.139 26.8672 137.139 28.3732C137.139 29.8791 136.61 31.3551 135.613 32.3025C134.935 32.9408 133.927 33.5092 132.411 33.5092C130.906 33.5092 129.898 32.9408 129.22 32.3025C128.213 31.3551 127.694 29.8791 127.694 28.3732C127.694 26.8573 128.213 25.3912 129.22 24.4438ZM130.866 31.1656C131.075 31.4149 131.564 31.8836 132.411 31.8836C133.269 31.8836 133.748 31.4249 133.967 31.1656C134.117 30.9961 134.705 30.2182 134.705 28.3732C134.705 26.5282 134.127 25.7602 133.967 25.5807C133.758 25.3314 133.269 24.8627 132.411 24.8627C131.564 24.8627 131.075 25.3214 130.866 25.5807C130.706 25.7602 130.128 26.5282 130.128 28.3732C130.128 30.2082 130.716 30.9861 130.866 31.1656ZM138.345 26.1093C138.635 24.9125 139.392 24.2543 139.931 23.9252C140.26 23.7158 141.168 23.247 142.723 23.247C143.691 23.247 144.678 23.4166 145.416 23.8255C146.503 24.4239 146.772 25.2915 146.772 25.9198C146.772 26.598 146.443 27.8945 144.758 28.0839V28.1238C145.336 28.2036 145.975 28.4529 146.364 28.8618C146.713 29.2308 146.982 29.8492 146.982 30.5074C146.982 31.4947 146.403 32.3624 145.665 32.851C144.778 33.4295 143.551 33.5092 142.644 33.5092C141.726 33.5092 140.34 33.4095 139.363 32.6416C138.824 32.2128 138.315 31.4748 138.166 30.5473L140.2 30.1982C140.28 30.5074 140.45 30.9761 140.679 31.2454C141.188 31.8338 141.975 31.8836 142.484 31.8836C142.993 31.8836 143.531 31.8238 143.96 31.5346C144.349 31.2653 144.539 30.8963 144.539 30.4076C144.539 29.9988 144.459 29.6696 144.11 29.3804C143.661 29.0114 143.063 28.9516 142.504 28.9516H141.477V27.4357H142.504C142.893 27.4357 143.451 27.3559 143.761 27.2063C144.17 26.9969 144.399 26.6478 144.399 26.0794C144.399 25.7702 144.279 25.471 143.99 25.2416C143.541 24.8726 142.903 24.8527 142.574 24.8527C142.125 24.8527 141.467 24.9125 140.928 25.3713C140.699 25.5608 140.39 25.9298 140.29 26.5082L138.345 26.1093ZM158.481 22.3495H152.068V25.2915H154.92C155.948 25.2915 156.935 25.3713 157.942 26.0694C158.93 26.7476 159.548 27.7548 159.548 29.2109C159.548 30.5672 159.039 31.5745 158.401 32.2127C157.434 33.1801 156.327 33.3198 155.17 33.3198H148.967V20.0258H158.481V22.3495ZM152.068 30.9861H154.571C155.04 30.9861 155.469 30.9661 155.908 30.5173C156.337 30.0885 156.396 29.6098 156.396 29.2408C156.396 28.8219 156.277 28.3931 155.908 28.0241C155.469 27.5853 154.9 27.5354 154.492 27.5354H152.068V30.9861ZM161.144 26.1791C161.453 24.8427 162.32 24.1645 162.849 23.8554C163.617 23.4066 164.644 23.2371 165.931 23.2371C167.556 23.2371 169.202 23.4465 169.94 24.9823C170.329 25.7802 170.289 26.6279 170.289 27.3659V31.1855C170.289 31.9834 170.398 32.7214 170.578 33.3198H167.766C167.686 32.9308 167.626 32.4122 167.616 31.754C167.247 32.4122 166.349 33.5192 164.305 33.5192C163.397 33.5192 162.46 33.2898 161.822 32.7613C161.203 32.2526 160.814 31.4448 160.814 30.5572C160.814 29.5699 161.243 28.3831 162.929 27.685C164.016 27.2362 165.781 27.0866 166.569 27.0467L167.496 27.0069V26.7974C167.496 26.5281 167.476 25.9497 167.207 25.6306C166.838 25.2017 166.1 25.1818 165.811 25.1818C165.412 25.1818 164.923 25.2217 164.514 25.471C164.265 25.6206 163.936 25.9397 163.816 26.4783L161.144 26.1791ZM166.629 28.6424C165.661 28.7222 164.694 28.8219 164.145 29.4901C163.996 29.6796 163.836 29.9788 163.836 30.3777C163.836 30.8066 164.046 31.0958 164.265 31.2454C164.534 31.4548 164.943 31.5545 165.332 31.5545C165.911 31.5545 166.589 31.3052 166.978 30.8365C167.038 30.7766 167.496 30.1982 167.496 29.0713V28.5527L166.629 28.6424ZM175.415 23.4365V27.1365H178.536V23.4365H181.419V33.3098H178.536V29.161H175.415V33.3098H172.533V23.4365H175.415ZM186.555 23.4365V27.2362H187.333C188.17 27.2362 188.519 26.8273 188.729 26.3786C189.138 25.5109 189.118 24.8327 189.487 24.1546C189.776 23.616 190.165 23.4764 190.414 23.4365H192.798C192.489 23.7656 192.219 24.1546 192.04 24.5036C191.731 25.1419 191.442 26.1891 191.262 26.6379C191.033 27.2562 190.644 27.8745 189.656 27.9543V27.9942C190.185 28.074 190.724 28.3432 191.132 28.9416C191.382 29.3106 191.551 29.7893 191.831 30.5473C192.1 31.3252 192.219 31.5944 192.469 32.1928C192.668 32.6416 192.778 32.9109 193.107 33.3198H190.394C189.966 33.1801 189.676 32.8909 189.327 31.8836C189.058 31.1157 189.018 30.8365 188.839 30.4076L188.699 30.0586C188.41 29.3206 188.021 29.171 187.422 29.171H186.555V33.3198H183.673V23.4365H186.555Z" fill="#19502E"/>
<path d="M21.3223 48C9.5641 48 0 38.4459 0 26.6877C0 19.936 3.1016 13.7228 8.507 9.6539L8.7264 9.4743V0H20.9632V5.37544H21.3223C33.0704 5.37544 42.6345 14.9395 42.6345 26.6977C42.6345 38.4459 33.0704 48 21.3223 48Z" fill="#19502E"/>
<path d="M15.1489 27.0268L19.5869 22.6686V19.7066L15.1489 24.0449V27.0268ZM15.1489 15.9867L19.5869 11.6185V8.8261L15.1489 13.1643V15.9867ZM15.1489 19.6368L19.5869 15.2786V12.4862L15.1489 16.8244V19.6368ZM13.8824 8.85602L13.294 8.28756V1.37628H12.6159V7.62935L12.0374 7.05091V1.37628H11.3593V6.40267L10.7709 5.82423V1.37628H10.1027V7.96843L14.5506 12.3266V1.37628H13.8824V8.85602ZM15.1489 23.2869L19.5869 18.9287V16.1363L15.1489 20.4745V23.2869ZM10.1027 22.6686L14.5506 27.0268V24.0449L10.1027 19.7066V22.6686ZM18.9187 5.82423L18.3303 6.40267V1.37628H17.6621V7.06089L17.0737 7.62935V1.37628H16.4055V8.27759L15.8171 8.85602V1.37628H15.1489V12.3266L19.5869 7.96843V1.37628H18.9187V5.82423ZM10.1027 11.6185L14.5506 15.9867V13.1643L10.1027 8.8261V11.6185ZM10.1027 15.2786L14.5506 19.6368V16.8244L10.1027 12.4862V15.2786ZM10.1027 18.9287L14.5506 23.2869V20.4745L10.1027 16.1363V18.9287ZM36.561 21.2325H25.7603C25.9897 20.8735 26.1193 20.4546 26.1193 20.0058C26.1193 18.7193 25.0721 17.6821 23.7856 17.6821C22.4991 17.6821 21.4619 18.7293 21.4619 20.0058C21.4619 20.5145 21.6215 20.9732 21.9007 21.3522C21.7013 21.4818 21.5616 21.7112 21.5616 21.9805C21.5616 22.2398 21.7013 22.4692 21.9007 22.5988C21.6315 22.9778 21.4619 23.4465 21.4619 23.9452C21.4619 25.2317 22.4991 26.2689 23.7856 26.2689C25.0721 26.2689 26.1193 25.2317 26.1193 23.9452C26.1193 23.4964 25.9897 23.0675 25.7603 22.7185H33.7985V23.2072H33.0007V23.8953H33.7985V24.6034H33.0007V25.9098H33.7985V25.3214H34.9753V25.9098H35.7632V24.6034H34.9753V23.8953H35.7632V23.2072H34.9753V22.7185H36.561C36.8702 22.7185 37.1195 22.4592 37.1195 22.15V21.801C37.1195 21.4918 36.8602 21.2325 36.561 21.2325ZM24.9924 23.9452C24.9924 24.6034 24.4538 25.1419 23.7856 25.1419C23.1274 25.1419 22.5889 24.6034 22.5889 23.9452C22.5889 23.7058 22.6587 23.4764 22.7883 23.2869L23.1174 22.7185C22.908 22.539 22.7783 22.2697 22.7783 21.9705C22.7783 21.6713 22.908 21.4021 23.1174 21.2225L22.7883 20.6541C22.6587 20.4646 22.5889 20.2452 22.5889 19.9959C22.5889 19.3376 23.1274 18.7991 23.7856 18.7991C24.4438 18.7991 24.9924 19.3376 24.9924 19.9959C24.9924 20.4845 24.4239 21.6514 24.4239 21.6514V22.2797C24.4239 22.2897 24.9924 23.4565 24.9924 23.9452Z" fill="#FFCB05"/>
<path d="M6.06348 19.8163V22.7185C6.06348 25.491 7.2702 27.2761 7.9683 27.9643C8.3772 28.3632 12.506 32.4322 12.5659 32.482C13.8524 33.7386 14.0718 34.1475 14.361 34.8656V31.6543C14.361 28.792 12.9149 27.685 12.1669 26.957C10.4217 25.2616 9.2648 24.1446 8.3174 23.2071C6.54218 21.422 6.06348 19.8163 6.06348 19.8163ZM12.167 34.1276C10.4317 32.4222 9.2648 31.3152 8.3274 30.3777C6.54222 28.5926 6.07349 27.3858 6.07349 27.3858V29.889C6.07349 32.6615 7.3301 34.4268 7.9684 35.1548C8.3772 35.5537 12.516 39.6027 12.5659 39.6526C13.8524 40.9092 14.0718 41.5076 14.361 42.2157V38.8248C14.361 35.9626 12.905 34.8556 12.167 34.1276Z" fill="white"/>
<path d="M21.3222 6.74173C21.0031 6.74173 20.6839 6.7517 20.3648 6.76168V8.118C20.6839 8.09806 20.9931 8.09806 21.3222 8.09806C31.5844 8.09806 39.9019 16.4155 39.9019 26.6877C39.9019 36.9499 31.5844 45.2674 21.3222 45.2674C11.06 45.2674 2.73255 36.9499 2.73255 26.6877C2.73255 20.9931 5.29561 15.8969 9.3347 12.4862V10.7509C4.49777 14.391 1.37622 20.1753 1.37622 26.6877C1.37622 37.6979 10.302 46.6237 21.3222 46.6237C32.3324 46.6237 41.2582 37.6979 41.2582 26.6877C41.2582 15.6775 32.3324 6.74173 21.3222 6.74173Z" fill="white"/>
<path d="M35.4241 37.0995C35.7332 36.6806 36.0225 36.2418 36.3017 35.793V33.1203H35.4241V37.0995ZM37.9772 32.1429C38.1068 31.754 38.2165 31.3651 38.3162 30.9761H35.4241V31.6842H35.8629C36.6308 31.6642 37.4985 31.6543 37.9772 32.1429Z" fill="white"/>
<path d="M18.7193 30.8764H17.9314V38.8248H18.7193V30.8764Z" fill="white"/>
<path d="M18.7193 29.3505C19.3875 29.3505 19.8563 29.4901 20.1255 29.7494C20.3948 30.0087 20.5245 30.4775 20.5245 31.1457V38.5755C20.5245 39.2437 20.3948 39.7125 20.1255 39.9718C19.7166 40.3806 18.9587 40.3806 18.3304 40.3806C18.1908 40.3707 18.0512 40.3707 17.9315 40.3707V43.8911C18.1908 43.941 18.4501 43.9909 18.7193 44.0308V41.1386C19.9161 41.1386 20.694 40.7297 21.063 39.9119V44.2202H21.3223C21.4819 44.2202 21.6514 44.2202 21.811 44.2103V31.2753C21.811 30.5872 21.9506 30.1085 22.2099 29.8392C22.4692 29.5699 22.9379 29.4303 23.5961 29.4303C24.2643 29.4303 25.2517 29.3306 25.7603 29.8392C26.0196 30.1085 26.1392 30.5971 26.1392 31.2753V35.085H24.3641V31.016H23.5961V44.0707C23.8554 44.0407 24.1048 44.0008 24.3641 43.951V35.8529H26.1392V43.5421C26.5082 43.4424 26.8673 43.3227 27.2263 43.193V36.1521C27.2263 35.3543 27.4158 34.7559 28.2236 34.4866L27.326 29.5899H29.1212L29.4204 34.9354H29.6398L29.939 29.5899H31.8338L30.8166 34.4866C31.6643 34.7858 31.8338 35.3044 31.8338 36.1521V40.6998C32.3624 40.3009 32.861 39.882 33.3397 39.4232V29.54H38.6055C38.6454 29.3007 38.6753 29.0713 38.7052 28.822H26.3985L26.5681 29.7095C26.1791 28.9915 25.4411 28.6325 24.3541 28.6325H23.5862C22.2797 28.6325 21.4918 29.1511 21.1827 30.1883C20.9034 29.1012 20.0757 28.5627 18.7094 28.5627H15.3385V43.1531C15.5978 43.2429 15.8571 43.3326 16.1164 43.4124V29.3505H18.7193ZM32.4721 34.9653L31.6244 34.1575L32.4721 29.7694V34.9653Z" fill="white"/>
<path d="M29.1311 42.3852C29.4004 42.2456 29.6696 42.106 29.9389 41.9564V35.9427H29.1311V42.3852Z" fill="white"/>
</svg>
