<svg width="201" height="50" viewBox="0 0 201 50" fill="none" xmlns="http://www.w3.org/2000/svg">
<path d="M91 19.5004L94.8 16.7004H82.2V33.3004H94.8V30.5004H85.8V26.3004H93.4V23.5004H85.8V19.5004H91ZM75.3 19.5004L79.1 16.7004H64.7V33.3004H72.2C76.4 33.3004 78.8 31.4004 78.8 28.1004C78.8 24.9004 76.6 23.2004 72.6 23.2004H68.2V19.5004H75.3ZM72.1 25.9004C74.4 25.9004 75.4 26.7004 75.4 28.2004C75.4 29.7004 74.3 30.5004 72.1 30.5004H68.3V25.9004H72.1ZM104.9 16.7004H98.1V33.3004H101.7V28.6004H105C109.4 28.6004 112.1 26.3004 112.1 22.6004C112.1 18.9004 109.3 16.7004 104.9 16.7004ZM104.9 25.8004H101.7V19.4004H104.9C107.2 19.4004 108.5 20.5004 108.5 22.6004C108.4 24.7004 107.2 25.8004 104.9 25.8004ZM58.6 29.7004C57.6 30.2004 56.6 30.5004 55.5 30.5004C52.3 30.5004 49.9 28.2004 49.9 25.0004C49.9 21.8004 52.2 19.5004 55.5 19.5004C56.7 19.5004 57.8 19.9004 58.8 20.5004L61.4 18.6004L61.2 18.4004C59.7 17.1004 57.7 16.4004 55.4 16.4004C52.9 16.4004 50.7 17.2004 49 18.8004C47.4 20.4004 46.4 22.6004 46.5 24.9004C46.5 27.2004 47.4 29.4004 49 31.1004C50.7 32.7004 53 33.6004 55.3 33.5004C57.9 33.5004 60.1 32.6004 61.7 31.0004L59.4 29.3004L58.6 29.7004ZM166.5 23.5004H158.8V16.7004H155.2V33.3004H158.8V26.5004H166.5V33.3004H170.1V16.7004H166.5V23.5004ZM142.2 16.7004L135 33.3004H138.6L140 30.0004H147.6L149 33.3004H152.8L145.8 16.7004H142.2ZM141.2 27.2004L144 20.5004L146.6 27.2004H141.2ZM183.1 24.7004L189.6 16.7004H185.5L180.1 23.8004H178.1V16.7004H174.5V33.3004H178.1V26.6004H180.4L185.9 33.3004H190.5L183.1 24.7004ZM127.5 23.2004H123.1V19.5004H132.5V16.7004H119.5V33.3004H127C131.2 33.3004 133.6 31.4004 133.6 28.1004C133.7 24.9004 131.5 23.2004 127.5 23.2004ZM126.9 30.6004H123.1V26.0004H126.9C129.2 26.0004 130.2 26.8004 130.2 28.3004C130.3 29.8004 129.1 30.6004 126.9 30.6004Z" fill="#21A038"/>
<path d="M34.9811 16.3813C35.6303 17.2319 36.1799 18.1561 36.6187 19.1352L24.1698 28.4354L18.9671 25.1302V21.1538L24.1698 24.459L34.9811 16.3813Z" fill="#21A038"/>
<path d="M13.6573 24.8494C13.6573 24.671 13.6616 24.4938 13.6702 24.3175L10.5172 24.1609C10.5064 24.3893 10.5 24.6199 10.5 24.8527C10.4987 26.671 10.8516 28.4717 11.5385 30.1514C12.2254 31.8312 13.2328 33.357 14.503 34.6413L16.7395 32.3758C15.7618 31.3889 14.9862 30.2159 14.4572 28.9243C13.9283 27.6327 13.6564 26.2478 13.6573 24.8494Z" fill="url(#paint0_linear_43_4766)"/>
<path d="M24.1669 14.1993C24.3429 14.1993 24.5178 14.2058 24.6917 14.2145L24.8494 11.018C24.6234 11.0071 24.3958 11.0017 24.1669 11.0017C22.3719 10.9994 20.5942 11.3566 18.9357 12.0526C17.2773 12.7486 15.7709 13.7697 14.5029 15.0574L16.7394 17.324C17.7132 16.3328 18.8707 15.5465 20.1454 15.0103C21.4201 14.474 22.7867 14.1984 24.1669 14.1993Z" fill="url(#paint1_linear_43_4766)"/>
<path d="M24.1669 35.5008C23.9909 35.5008 23.816 35.5008 23.6411 35.4867L23.4833 38.6821C23.7101 38.6937 23.938 38.6996 24.1669 38.6996C25.9612 38.7014 27.7381 38.3441 29.3956 37.6479C31.0532 36.9517 32.5586 35.9304 33.8256 34.6427L31.5934 32.3772C30.6194 33.3679 29.462 34.1538 28.1876 34.6898C26.9132 35.2259 25.5468 35.5015 24.1669 35.5008Z" fill="url(#paint2_linear_43_4766)"/>
<path d="M30.091 16.0575L32.7482 14.0725C30.3195 12.0794 27.2879 10.9945 24.1627 11V14.1987C26.2789 14.1961 28.346 14.8442 30.091 16.0575Z" fill="url(#paint3_linear_43_4766)"/>
<path d="M37.8329 24.8499C37.8346 24.0178 37.7628 23.1871 37.6182 22.368L34.6767 24.565C34.6767 24.6596 34.6767 24.7542 34.6767 24.8499C34.6775 26.3381 34.3696 27.8099 33.7733 29.1697C33.1768 30.5296 32.3051 31.7473 31.2146 32.7439L33.3363 35.1204C34.754 33.8233 35.8869 32.2387 36.6616 30.4695C37.4363 28.7001 37.8353 26.7856 37.8329 24.8499Z" fill="#21A038"/>
<path d="M24.167 35.5014C22.6985 35.5019 21.2462 35.1898 19.9042 34.5854C18.5623 33.981 17.3605 33.0976 16.3768 31.9927L14.033 34.1418C15.3127 35.5788 16.8761 36.7272 18.622 37.5125C20.3678 38.2977 22.2569 38.7023 24.167 38.7V35.5014Z" fill="url(#paint4_linear_43_4766)"/>
<path d="M17.1194 16.9557L14.9988 14.5793C13.5806 15.8761 12.4473 17.4606 11.6723 19.2299C10.8973 20.9992 10.4979 22.9138 10.5 24.8497H13.6573C13.6566 23.3616 13.9645 21.8898 14.5609 20.53C15.1573 19.1701 16.029 17.9524 17.1194 16.9557Z" fill="url(#paint5_linear_43_4766)"/>
<defs>
<linearGradient id="paint0_linear_43_4766" x1="15.1415" y1="34.2421" x2="11.6091" y2="24.1662" gradientUnits="userSpaceOnUse">
<stop offset="0.14" stop-color="#F1E813"/>
<stop offset="0.3" stop-color="#E6E418"/>
<stop offset="0.58" stop-color="#C9DA26"/>
<stop offset="0.89" stop-color="#A2CC39"/>
</linearGradient>
<linearGradient id="paint1_linear_43_4766" x1="15.4044" y1="15.623" x2="24.319" y2="12.2708" gradientUnits="userSpaceOnUse">
<stop offset="0.06" stop-color="#0FA7DF"/>
<stop offset="0.54" stop-color="#0098F8"/>
<stop offset="0.92" stop-color="#0290EA"/>
</linearGradient>
<linearGradient id="paint2_linear_43_4766" x1="23.2752" y1="36.769" x2="33.3351" y2="34.5265" gradientUnits="userSpaceOnUse">
<stop offset="0.12" stop-color="#A2CC39"/>
<stop offset="0.28" stop-color="#86C239"/>
<stop offset="0.87" stop-color="#219F38"/>
</linearGradient>
<linearGradient id="paint3_linear_43_4766" x1="23.506" y1="12.0713" x2="32.1154" y2="14.6929" gradientUnits="userSpaceOnUse">
<stop offset="0.06" stop-color="#0290EA"/>
<stop offset="0.79" stop-color="#0C89CA"/>
</linearGradient>
<linearGradient id="paint4_linear_43_4766" x1="14.825" y1="33.7524" x2="24.2049" y2="37.2115" gradientUnits="userSpaceOnUse">
<stop offset="0.13" stop-color="#F1E813"/>
<stop offset="0.3" stop-color="#EAE616"/>
<stop offset="0.53" stop-color="#D8DF1F"/>
<stop offset="0.8" stop-color="#BAD52D"/>
<stop offset="0.98" stop-color="#A2CC39"/>
</linearGradient>
<linearGradient id="paint5_linear_43_4766" x1="11.6762" y1="25.2368" x2="15.5174" y2="15.3772" gradientUnits="userSpaceOnUse">
<stop offset="0.07" stop-color="#A2CC39"/>
<stop offset="0.26" stop-color="#81C45E"/>
<stop offset="0.92" stop-color="#0FA7DF"/>
</linearGradient>
</defs>
</svg>
