<svg width="200" height="50" viewBox="0 0 200 50" fill="none" xmlns="http://www.w3.org/2000/svg">
<path d="M12.326 32.698C8.101 32.698 4.659 29.308 4.659 25.146C4.659 20.984 8.1 17.593 12.324 17.593H12.804V13H12.325C5.532 13 0 18.451 0 25.145C0 31.883 5.532 37.334 12.326 37.334H12.805V32.7H12.326V32.698Z" fill="#FF4B5F"/>
<path fill-rule="evenodd" clip-rule="evenodd" d="M14.8081 19.5684V13.2598C20.4709 14.375 24.6951 19.2676 24.6951 25.1465C24.6951 31.0703 20.469 35.9609 14.8081 37.0352V30.7266H12.325C9.18994 30.7266 6.66406 28.2363 6.66406 25.1484C6.66406 22.0586 9.18994 19.5684 12.3262 19.5684H14.8081ZM38.5891 30.6387C39.873 30.6426 41.1179 30.2031 42.116 29.3945L44.0759 31.3281C42.6389 32.6133 40.7229 33.3867 38.5891 33.3867C33.9719 33.3867 30.27 29.6523 30.27 25.1465C30.27 20.6406 33.9719 16.9492 38.5891 16.9492C40.6631 16.9434 42.665 17.709 44.207 19.0957L42.2471 21.0254C41.2361 20.1367 39.9351 19.6484 38.5891 19.6543C35.4951 19.6543 33.0139 22.0996 33.0139 25.1465C33.0139 28.1934 35.4961 30.6387 38.5891 30.6387ZM124.609 24.8887L130.75 17.5938H133.189V32.6992H130.75V21.7988L124.609 28.9219L118.381 21.627V32.7012H115.898V17.5938H118.381V17.6797L118.424 17.5938L124.609 24.8887ZM54.355 33.3438C58.928 33.3438 62.6741 29.6953 62.6741 25.1465C62.6741 20.6406 58.928 16.9492 54.355 16.9492C49.782 16.9492 46.0371 20.6406 46.0371 25.1465C46.0371 29.6523 49.739 33.3438 54.355 33.3438ZM54.312 19.6543C57.405 19.6543 59.887 22.0996 59.887 25.1465C59.887 28.1934 57.405 30.6387 54.312 30.6387C51.219 30.6387 48.7371 28.1934 48.7371 25.1465C48.7371 22.0996 51.219 19.6543 54.312 19.6543ZM105.053 33.3438C109.626 33.3438 113.372 29.6953 113.372 25.1465C113.372 20.6406 109.669 16.9492 105.053 16.9492C100.48 16.9492 96.7341 20.6406 96.7341 25.1465C96.7341 29.6523 100.436 33.3438 105.053 33.3438ZM105.053 19.6543C108.146 19.6543 110.628 22.0996 110.628 25.1465C110.628 28.1934 108.101 30.6387 105.053 30.6387C101.96 30.6387 99.478 28.1934 99.478 25.1465C99.478 22.0996 101.96 19.6543 105.053 19.6543ZM93.3359 17.5938H96.6909L89.1121 25.1895L96.603 32.7012H93.293L86.9771 26.3906H84.4519V32.7012H82.0129V17.5938H84.4519V23.9453H87.022L93.3359 17.5938ZM196.692 17.5938H200L192.465 25.1895L199.913 32.7012H196.603L190.332 26.3906H187.762V32.7012H185.323V17.5938H187.762V23.9453H190.332L196.692 17.5938ZM166.639 32.6992H163.937L162.458 29.4395H154.53L153.05 32.7012H150.35L157.1 17.5938H159.887L166.639 32.6992ZM158.494 20.6836L155.62 27.0352H161.369L158.494 20.6836ZM77.4829 25.1465C78.3711 25.9629 78.877 27.1152 78.877 28.3223C78.877 30.7246 76.917 32.7012 74.4771 32.7441H65.5061V17.5938H74.4771C76.8999 17.5898 78.8689 19.5488 78.877 21.9707C78.877 23.2148 78.3101 24.332 77.4829 25.1465ZM74.4341 20.041H67.988V23.9004H74.4341C75.5229 23.9004 76.3931 23.043 76.3931 21.9707C76.3931 20.8965 75.5229 20.041 74.4341 20.041ZM67.988 30.2969H74.4341C75.5239 30.2969 76.394 29.3945 76.437 28.3242C76.437 27.8145 76.2236 27.3359 75.876 26.9824C75.5212 26.623 75.0269 26.3926 74.4771 26.3926H67.988V30.2969ZM179.792 23.9453V17.6367H182.275V32.6562H179.792V26.3887H170.864V32.6562H168.382V17.6367H170.864V23.9453H179.792ZM145.035 23.9453C147.474 23.9453 149.478 25.918 149.478 28.3223C149.478 30.7246 147.475 32.7012 145.034 32.7422H136.106V17.5938H147.997V20.0391H138.589V23.9453H145.035ZM138.59 30.2969H145.036C146.125 30.2969 146.996 29.3945 146.996 28.3242C146.996 27.293 146.125 26.3926 145.036 26.3926H138.59V30.2969Z" fill="#003791"/>
</svg>
