<svg width="133" height="55" viewBox="0 0 133 55" fill="none" xmlns="http://www.w3.org/2000/svg">
<path d="M0 17.2944H13.1023C18.9825 27.5291 27.4743 36.0199 37.7104 41.8993V55C28.9596 52.0166 21.0097 47.0662 14.4722 40.5296C7.93476 33.9929 2.98376 26.0441 0 17.2944Z" fill="#00AFAA"/>
<path d="M37.7484 17.2944H13.1023C9.98197 11.8896 7.65206 6.06558 6.18369 0H20.4138C25.0047 -1.26698e-05 29.408 1.82085 32.6577 5.0631C35.9076 8.30534 37.7384 12.7041 37.7484 17.2944Z" fill="#00AFAA"/>
<path d="M37.609 0C38.5501 4.26247 40.6902 8.16711 43.7772 11.2537C46.8641 14.3403 50.7692 16.4801 55.0323 17.4211V0H37.609Z" fill="#00AFAA"/>
<path d="M37.7484 17.2944V41.8993C27.5123 36.0199 19.0205 27.5291 13.1403 17.2944H37.7484Z" fill="#00539B"/>
<path d="M83.7712 21.3488V38.9346H78.3859V21.3488H72.6964V17.2184H89.4607V21.3361L83.7712 21.3488ZM117.49 19.1822C119.291 17.7342 121.516 16.9154 123.826 16.851C130.048 16.851 133 21.2347 133 27.519C133 35.463 128.54 39.5174 122.09 39.5174C115.64 39.5174 112.244 35.463 112.244 26.1126C112.244 18.3333 114.005 12.974 116.704 10.4907C119.796 7.62727 120.759 7.70329 124.383 6.76572C126.614 6.19558 128.768 5.84082 129.604 5.49873L131.568 9.95854C130.504 10.592 128.514 11.0608 124.548 11.859C119.961 12.7586 117.896 14.393 117.427 19.1442L117.49 19.1822ZM122.407 35.1463C125.967 35.1463 127.298 32.2575 127.298 28.1272C127.298 24.4022 126.195 21.3488 122.609 21.3488C120.982 21.2513 119.376 21.7465 118.086 22.7425C117.915 24.4259 117.859 26.1194 117.921 27.8104C117.845 32.2575 119.289 35.1463 122.407 35.1463ZM105.047 38.9473L97.7986 28.8113V38.9473H92.3498V17.2184H97.7986V26.7335L104.248 17.2184H110.242L103.222 27.0629L111.471 38.9726H105.135L105.047 38.9473Z" fill="#00539B"/>
<path d="M55.0323 34.5508V48.7791C48.9724 47.2791 43.1539 44.9333 37.7484 41.8106V17.2944C40.0164 17.2928 42.2627 17.7377 44.3587 18.6041C46.4548 19.4705 48.3597 20.741 49.9647 22.3435C51.5697 23.9458 52.8433 25.8486 53.7128 27.9432C54.5822 30.0377 55.0306 32.283 55.0323 34.5508Z" fill="#F39A00"/>
</svg>
