<svg width="131" height="48" viewBox="0 0 131 48" fill="none" xmlns="http://www.w3.org/2000/svg">
<g clip-path="url(#clip0_43_4759)">
<path d="M37.7346 6.13858H6.74971L8.98185 0H39.9667L37.7346 6.13858ZM36.6185 9.20787H5.61969L3.38756 15.3464H34.3724L36.6185 9.20787ZM33.2703 18.3878H2.27149L0.0393524 24.5264H30.9963L33.2703 18.3878Z" fill="#009FDF"/>
<path d="M111.562 39.8868H117.143C117.936 39.9815 118.74 39.8796 119.485 39.5901C120.229 39.3006 120.891 38.8323 121.412 38.2266C122.177 37.2248 122.563 35.9841 122.5 34.7248C122.552 33.9235 122.405 33.1218 122.072 32.3913C121.738 31.6609 121.229 31.0246 120.589 30.5394C119.553 29.8616 118.321 29.5475 117.087 29.6465H111.562V39.8868ZM104.238 46.0672V9.20786H128.22L126.113 15.3883H111.562V23.5498H117.492C122.277 23.5498 124.76 24.6938 126.476 26.1587C127.703 27.2451 128.668 28.5953 129.298 30.1078C129.929 31.6204 130.209 33.2561 130.117 34.8922C130.211 36.6542 129.864 38.4117 129.106 40.0052C128.348 41.5986 127.204 42.9775 125.778 44.0164C123.476 45.6069 121.063 46.0533 116.152 46.0533L104.238 46.0672ZM83.0051 46.0672V15.3743H72.3466V9.20786H101.936L99.8298 15.3883H90.399V46.0812L83.0051 46.0672ZM53.4711 23.9684H57.6564C58.5123 24.0268 59.3723 23.961 60.2094 23.773C61.08 23.4949 61.8302 22.9293 62.3372 22.1688C62.8441 21.4084 63.0777 20.4982 62.9995 19.5876C63.1157 18.6828 62.8957 17.7668 62.3815 17.0134C61.8672 16.2599 61.0943 15.7214 60.2094 15.4999C59.2954 15.2877 58.3564 15.2032 57.4192 15.2488H53.4711V23.9684ZM53.4711 30.3441V40.0124H58.5771C59.9843 40.1732 61.3991 39.7833 62.5252 38.9242C63.0442 38.4433 63.4508 37.854 63.716 37.1981C63.9812 36.5422 64.0986 35.8359 64.0598 35.1294C64.082 34.0007 63.7396 32.8949 63.0832 31.9764C61.9951 30.5813 60.6558 30.3162 58.3679 30.3162L53.4711 30.3441ZM65.2735 26.4517V26.5773C66.5174 27.0561 67.6797 27.7244 68.7194 28.5583C69.7703 29.4305 70.6009 30.5381 71.1439 31.7913C71.6868 33.0445 71.9268 34.4079 71.8444 35.7712C71.8444 40.8076 69.1658 44.4489 64.7713 45.5371C63.0196 45.9653 61.2154 46.1392 59.4142 46.0533H46.1469V9.20786H57.9493C59.8239 9.13933 61.6995 9.31283 63.5297 9.72406C67.7986 10.8681 70.6028 13.8118 70.6028 18.4576C70.6376 19.5652 70.4466 20.6684 70.0412 21.6997C69.6359 22.7311 69.0247 23.6692 68.2451 24.4567C67.4171 25.2974 66.4309 25.966 65.3433 26.4238L65.2735 26.4517Z" fill="#0A2973"/>
</g>
<defs>
<clipPath id="clip0_43_4759">
<rect width="131" height="48" fill="white"/>
</clipPath>
</defs>
</svg>
