<svg width="18" height="18" viewBox="0 0 18 18" fill="none" xmlns="http://www.w3.org/2000/svg">
<path d="M17.8355 17.0339L12.8605 12.0282C13.9259 10.7556 14.5671 9.11447 14.5671 7.32234C14.5671 3.27825 11.3063 -1.52588e-05 7.26248 -1.52588e-05C3.21865 -1.52588e-05 -0.0595703 3.27823 -0.0595703 7.32204C-0.0595703 11.3659 3.21868 14.6441 7.26248 14.6441C9.10832 14.6441 10.7899 13.9593 12.0735 12.8323L17.0399 17.8298C17.2595 18.0495 17.6159 18.0495 17.8352 17.8298C18.0552 17.6099 18.0552 17.2538 17.8355 17.0339L17.8355 17.0339ZM7.25298 13.5C3.8507 13.5 1.06548 10.7148 1.06548 7.31252C1.06548 3.91024 3.8507 1.12502 7.25298 1.12502C10.6553 1.12502 13.4405 3.91024 13.4405 7.31252C13.4405 10.7148 10.6553 13.5 7.25298 13.5ZM10.0655 6.75002H7.81549V4.50002C7.81549 4.18952 7.56348 3.93752 7.25298 3.93752C6.94248 3.93752 6.69048 4.18952 6.69048 4.50002V6.75002H4.44048C4.12998 6.75002 3.87798 7.00202 3.87798 7.31252C3.87798 7.62302 4.12998 7.87502 4.44048 7.87502H6.69048V10.125C6.69048 10.4355 6.94248 10.6875 7.25298 10.6875C7.56348 10.6875 7.81549 10.4355 7.81549 10.125V7.87502H10.0655C10.376 7.87502 10.628 7.62302 10.628 7.31252C10.628 7.00202 10.3763 6.75002 10.0655 6.75002Z" fill="white"/>
</svg>
