<svg width="185" height="12" viewBox="0 0 185 12" fill="none" xmlns="http://www.w3.org/2000/svg">
<path d="M117.916 4.6482C117.916 4.9682 117.829 5.2882 117.656 5.6082C117.483 5.92821 117.31 6.24821 116.965 6.40821C117.829 6.80821 118.261 7.52821 118.261 8.48821C118.261 9.44821 118.002 10.2482 117.31 10.8082C116.705 11.4482 115.927 11.6882 114.803 11.6882H109.789V1.5282H114.458C115.409 1.5282 116.273 1.8482 116.878 2.4082C117.57 2.9682 117.916 3.7682 117.916 4.6482ZM114.285 3.8482H112.469V5.52821H114.285C114.631 5.52821 114.89 5.36821 115.063 5.12821C115.236 4.8882 115.149 4.5682 115.063 4.3282C114.89 3.9282 114.631 3.8482 114.285 3.8482ZM114.803 7.68821H112.469V9.44821H114.717C115.063 9.44821 115.322 9.28821 115.495 9.04821C115.668 8.80821 115.581 8.40821 115.495 8.16821C115.322 7.76821 115.149 7.68821 114.803 7.68821Z" fill="#8E8E8E"/>
<path d="M134.341 8.08829L136.502 11.2883V11.6083H133.303L131.402 8.5683H129.932V11.6083H127.079V1.5282H131.92C132.612 1.5282 133.217 1.6082 133.822 1.8482C134.427 2.08821 134.773 2.48821 135.119 2.80822C135.378 3.12822 135.724 3.68823 135.81 4.08824C135.897 4.64824 135.983 5.04825 135.897 5.52826C135.81 6.08827 135.637 6.48827 135.465 6.88828C135.119 7.44828 134.773 7.84829 134.341 8.08829ZM131.92 6.40827C132.18 6.40827 132.525 6.32827 132.698 6.16827C132.871 6.00826 132.958 5.84826 133.044 5.52826C133.13 5.28825 133.13 4.96825 133.044 4.72825C133.044 4.48824 132.871 4.32824 132.698 4.08824C132.525 3.92823 132.266 3.84823 131.92 3.84823C131.747 3.84823 131.574 3.84823 131.229 3.84823C130.969 3.84823 130.796 3.84823 130.451 3.84823C130.105 3.84823 130.018 3.84823 129.759 3.84823V6.32827H131.92V6.40827Z" fill="#8E8E8E"/>
<path d="M147.222 4.6482C147.222 4.9682 147.135 5.2882 146.962 5.6082C146.79 5.92821 146.617 6.24821 146.271 6.40821C147.135 6.80821 147.568 7.52821 147.568 8.48821C147.568 9.44821 147.308 10.2482 146.617 10.8082C146.012 11.4482 145.233 11.6882 144.11 11.6882H138.923V1.5282H143.591C144.542 1.5282 145.406 1.8482 146.012 2.4082C146.962 2.9682 147.222 3.7682 147.222 4.6482ZM143.591 3.8482H141.776V5.52821H143.591C143.937 5.52821 144.196 5.36821 144.369 5.12821C144.542 4.8882 144.455 4.5682 144.369 4.3282C144.283 3.9282 143.937 3.8482 143.591 3.8482ZM144.023 7.68821H141.776V9.44821H144.023C144.369 9.44821 144.628 9.28821 144.801 9.04821C144.974 8.80821 144.888 8.40821 144.801 8.16821C144.715 7.76821 144.455 7.68821 144.023 7.68821Z" fill="#8E8E8E"/>
<path d="M157.595 11.6883L156.904 10.4082H152.581L151.889 11.6883H149.21V11.3683L154.137 1.36755H155.347L160.361 11.3683V11.6883H157.595ZM155.953 8.16803L154.742 5.44784L153.532 8.16803H155.953Z" fill="#8E8E8E"/>
<path d="M170.909 11.7687L165.376 6.72865V11.7687H162.437V1.44861H163.474L169.007 6.48865V1.44861H171.946V11.7687H170.909Z" fill="#8E8E8E"/>
<path d="M178.861 1.5282C179.985 1.5282 181.023 1.76817 181.887 2.32811C182.752 2.88805 183.27 3.448 183.703 4.24791C184.048 5.04783 184.308 5.84774 184.308 6.64766C184.308 7.52756 184.135 8.32748 183.703 9.0474C183.357 9.84732 182.665 10.4073 181.887 10.9672C181.023 11.5271 179.985 11.7671 178.861 11.7671H174.712V1.5282H178.861ZM177.478 3.84795V9.36737H178.775C179.207 9.36737 179.726 9.28738 180.072 9.1274C180.418 8.96741 180.763 8.72744 180.936 8.32748C181.109 8.00751 181.282 7.60755 181.368 7.28759C181.455 6.96762 181.455 6.48767 181.368 6.16771C181.282 5.84774 181.109 5.36779 180.936 5.12782C180.763 4.80785 180.504 4.48789 180.072 4.3279C179.726 4.16792 179.207 4.08793 178.775 4.08793H177.478V3.84795Z" fill="#8E8E8E"/>
<path d="M28.9601 8.24762C28.7007 7.60761 28.5278 6.8876 28.5278 6.1676C28.5278 5.44759 28.7007 4.72758 28.9601 4.08758C29.2194 3.44757 29.6517 2.96757 30.1704 2.56756C30.689 2.16756 31.2077 1.84756 31.8129 1.68756C32.418 1.52756 33.1096 1.36755 33.7147 1.36755C34.8386 1.36755 35.8759 1.68756 36.7404 2.24756C37.6049 2.88757 38.1236 3.76758 38.2965 4.88759H35.7031C35.5302 4.00758 34.7521 3.60757 33.6283 3.60757C32.9367 3.60757 32.2451 3.84758 31.8129 4.32758C31.3806 4.80758 31.1213 5.44759 31.1213 6.1676C31.1213 6.8876 31.3806 7.44761 31.8129 7.92761C32.2451 8.40762 32.8503 8.72762 33.6283 8.72762C34.2334 8.72762 34.6657 8.56762 35.0979 8.32762C35.5302 8.08761 35.7031 7.68761 35.7895 7.20761H38.2965C38.2965 8.08761 37.9507 8.72762 37.432 9.36763C36.9133 9.92763 36.3082 10.3276 35.7031 10.5676C35.0115 10.8076 34.3199 10.8876 33.5418 10.8876C32.8503 10.8876 32.2451 10.8076 31.64 10.5676C31.0348 10.3276 30.5161 10.0876 29.9975 9.68763C29.6517 9.28762 29.3059 8.80762 28.9601 8.24762Z" fill="#8E8E8E"/>
<path d="M41.4953 10.7287V11.7687H39.3341V8.72867H40.3715L43.743 1.44861H44.8668L48.4112 8.72867H49.535V11.7687H47.3738V10.7287H41.4953ZM44.4346 5.36864L43.0514 8.64867H45.8177L44.4346 5.36864Z" fill="#8E8E8E"/>
<path d="M57.1426 1.60803V3.76798H53.5118V5.12794H56.8833V7.28789H53.5118V8.96785H57.3155V11.1278H50.9183V1.60803H57.1426Z" fill="#8E8E8E"/>
<path d="M63.5398 5.52831L60.9463 10.9687H58.5258V10.6487L63.0211 1.60803H64.0585L68.5538 10.6487V10.9687H66.1332L63.5398 5.52831Z" fill="#8E8E8E"/>
<path d="M77.2852 10.9687L76.68 9.76861H72.7899L72.1847 10.9687H69.7642V10.6487L74.2595 1.60803H75.3833L79.7922 10.6487V10.9687H77.2852ZM75.902 7.84848L74.6917 5.44831L73.5679 7.84848H75.902Z" fill="#8E8E8E"/>
<path d="M89.3881 1.60803V10.9687H86.7947V7.20843H83.769V10.9687H81.1755V1.60803H83.769V5.04828H86.7947V1.60803H89.3881Z" fill="#8E8E8E"/>
<path d="M100.539 4.16784C100.799 4.8079 100.972 5.52798 100.972 6.32806C100.972 7.12814 100.799 7.7682 100.539 8.40827C100.28 9.04833 99.8479 9.52838 99.3292 9.92842C98.8105 10.3285 98.2918 10.6485 97.6867 10.8085C97.0815 11.0485 96.3899 11.1285 95.7848 11.1285C95.1797 11.1285 94.4881 11.0485 93.8829 10.8085C93.2778 10.5685 92.6727 10.3285 92.2404 9.92842C91.7217 9.52838 91.3759 9.04833 91.0301 8.40827C90.7708 7.7682 90.5979 7.04813 90.5979 6.24805C90.5979 5.44797 90.7708 4.72789 91.0301 4.08783C91.2895 3.44776 91.7217 2.96772 92.2404 2.56768C92.7591 2.16763 93.2778 1.8476 93.8829 1.68759C94.4881 1.44756 95.1797 1.36755 95.7848 1.36755C96.4764 1.36755 97.0815 1.44756 97.6867 1.68759C98.2918 1.92761 98.8969 2.16763 99.3292 2.56768C99.8479 3.04772 100.28 3.52777 100.539 4.16784ZM93.3642 6.16804C93.3642 6.7281 93.4507 7.20815 93.71 7.60819C93.9694 8.00823 94.3152 8.32826 94.661 8.48828C95.0068 8.64829 95.439 8.7283 95.8712 8.7283C96.3035 8.7283 96.7357 8.64829 97.0815 8.48828C97.4273 8.32826 97.7731 8.00823 98.0325 7.60819C98.2918 7.20815 98.3783 6.7281 98.3783 6.16804C98.3783 5.60798 98.2054 5.20794 97.946 4.8079C97.6867 4.40786 97.3409 4.08783 96.9951 3.92781C96.6493 3.7678 96.217 3.68779 95.8712 3.68779C95.5255 3.68779 95.0068 3.7678 94.661 3.92781C94.3152 4.08783 93.9694 4.40786 93.71 4.8079C93.4507 5.28795 93.3642 5.768 93.3642 6.16804Z" fill="#8E8E8E"/>
<g clip-path="url(#clip0_403_1486)">
<path d="M10.0816 5.26715L0 0V11.9204L10.0816 6.37603V5.26715Z" fill="#8E8E8E"/>
<path d="M10.0814 5.26715L19.883 0V11.9204L9.80139 6.37603L10.0814 5.26715Z" fill="#8E8E8E"/>
</g>
<defs>
<clipPath id="clip0_403_1486">
<rect width="19.8831" height="11.9204" fill="white"/>
</clipPath>
</defs>
</svg>
