<svg width="30" height="30" viewBox="0 0 30 30" fill="none" xmlns="http://www.w3.org/2000/svg">
<g clip-path="url(#clip0_403_1476)">
<path d="M15 29.9694C23.2674 29.9694 29.9694 23.2674 29.9694 15C29.9694 6.73257 23.2674 0.0305176 15 0.0305176C6.73257 0.0305176 0.0305176 6.73257 0.0305176 15C0.0305176 23.2674 6.73257 29.9694 15 29.9694Z" fill="white"/>
<path d="M20.4167 24.3972H17.1306V8.14442H15.6667C12.9834 8.14442 11.5778 9.48609 11.5778 11.4889C11.5778 13.7611 12.5472 14.8139 14.5528 16.1555L16.2056 17.2694L11.4556 24.3944H7.92224L12.1972 18.0333C9.73891 16.2778 8.35557 14.5639 8.35557 11.6722C8.35557 8.05831 10.875 5.59998 15.6445 5.59998H20.3945V24.3916H20.4167V24.3972Z" fill="#414141"/>
</g>
<defs>
<clipPath id="clip0_403_1476">
<rect width="30" height="30" fill="white"/>
</clipPath>
</defs>
</svg>
