<svg width="53" height="64" viewBox="0 0 53 64" fill="none" xmlns="http://www.w3.org/2000/svg">
<path d="M42.9621 6.42383L18.4697 50.5905C24.4925 52.9996 37.3409 53.8026 48.1818 39.7496C56.8546 28.5072 48.3157 12.8481 42.9621 6.42383Z" fill="#D3ECAB"/>
<path fill-rule="evenodd" clip-rule="evenodd" d="M26.5 50.5C39.7548 50.5 50.5 39.7548 50.5 26.5C50.5 13.2452 39.7548 2.5 26.5 2.5C13.2452 2.5 2.5 13.2452 2.5 26.5C2.5 39.7548 13.2452 50.5 26.5 50.5ZM26.5 53C41.1355 53 53 41.1355 53 26.5C53 11.8645 41.1355 0 26.5 0C11.8645 0 0 11.8645 0 26.5C0 41.1355 11.8645 53 26.5 53Z" fill="#414141"/>
<circle cx="26" cy="27" r="10.75" stroke="#414141" stroke-width="2.5"/>
<path d="M10 56.5L19 35.5L24.5 38L19 59.5L16 55L10 56.5Z" fill="white" stroke="#414141" stroke-width="2.5"/>
<path d="M41.5 57L32.5 36L27 38.5L32.5 60L35.5 55.5L41.5 57Z" fill="white" stroke="#414141" stroke-width="2.5"/>
<path d="M26 12.5V7.5" stroke="#414141" stroke-width="2.5"/>
<path d="M32.5 14L35 9.5" stroke="#414141" stroke-width="2.5"/>
<path d="M19.5 14L17 9.5" stroke="#414141" stroke-width="2.5"/>
<path d="M14.115 18.1104L9.9999 15.0176" stroke="#414141" stroke-width="2.5"/>
<path d="M37 18.1104L41.1151 15.0176" stroke="#414141" stroke-width="2.5"/>
</svg>
