<svg width="54" height="58" viewBox="0 0 54 58" fill="none" xmlns="http://www.w3.org/2000/svg">
<path d="M42.9621 11.0566L18.4697 55.2233C24.4925 57.6324 37.3409 58.4354 48.1818 44.3824C56.8546 33.14 48.3157 17.4809 42.9621 11.0566Z" fill="#D3ECAB"/>
<path fill-rule="evenodd" clip-rule="evenodd" d="M26.5 55.1328C39.7548 55.1328 50.5 44.3876 50.5 31.1328C50.5 17.8779 39.7548 7.13275 26.5 7.13275C13.2452 7.13275 2.5 17.8779 2.5 31.1328C2.5 44.3876 13.2452 55.1328 26.5 55.1328ZM26.5 57.6328C41.1355 57.6328 53 45.7683 53 31.1328C53 16.4972 41.1355 4.63275 26.5 4.63275C11.8645 4.63275 0 16.4972 0 31.1328C0 45.7683 11.8645 57.6328 26.5 57.6328Z" fill="#414141"/>
<path fill-rule="evenodd" clip-rule="evenodd" d="M53.0081 5.47841L24.5295 44.313L13.0134 29.5066L14.9868 27.9718L24.4708 40.1655L50.9921 4L53.0081 5.47841Z" fill="#414141"/>
<path fill-rule="evenodd" clip-rule="evenodd" d="M49.508 1.47841L22.008 38.9784L19.9919 37.5L47.4919 0L49.508 1.47841Z" fill="#414141"/>
</svg>
