<svg width="53" height="60" viewBox="0 0 53 60" fill="none" xmlns="http://www.w3.org/2000/svg">
<path d="M42.9621 6.42383L18.4697 50.5905C24.4925 52.9996 37.3409 53.8026 48.1818 39.7496C56.8546 28.5072 48.3157 12.8481 42.9621 6.42383Z" fill="#D3ECAB"/>
<path fill-rule="evenodd" clip-rule="evenodd" d="M26.5 50.5C39.7548 50.5 50.5 39.7548 50.5 26.5C50.5 13.2452 39.7548 2.5 26.5 2.5C13.2452 2.5 2.5 13.2452 2.5 26.5C2.5 39.7548 13.2452 50.5 26.5 50.5ZM26.5 53C41.1355 53 53 41.1355 53 26.5C53 11.8645 41.1355 0 26.5 0C11.8645 0 0 11.8645 0 26.5C0 41.1355 11.8645 53 26.5 53Z" fill="#414141"/>
<path fill-rule="evenodd" clip-rule="evenodd" d="M11.75 13.75H29.25V51.5H26.75V16.25H14.25V60H11.75V13.75Z" fill="#414141"/>
<rect x="17" y="21" width="7" height="2" fill="#414141"/>
<rect x="17" y="26" width="7" height="2" fill="#414141"/>
<rect x="17" y="31" width="7" height="2" fill="#414141"/>
<path fill-rule="evenodd" clip-rule="evenodd" d="M34.5362 23.6962L41.7501 31.5113V47H39.2501V32.4887L34.464 27.3038L28.884 32.8839L27.1162 31.1161L34.5362 23.6962Z" fill="#414141"/>
</svg>
