<svg width="395" height="86" viewBox="0 0 395 86" fill="none" xmlns="http://www.w3.org/2000/svg">
<path d="M20.4 64C21.36 64.32 22.48 64.4 23.84 64.4C26.56 64.4 29.44 63.84 32.24 62.4C36.4 60.4 40.72 55.84 40.72 48.48C40.72 43.2 38.4 39.76 35.76 37.68C32.64 35.2 27.84 34.64 25.12 34.64C20.4 34.64 16.96 34.8 12.16 34.8C8.4 34.8 4 34.56 2.72 34.56C2.48 34.8 2.24 36.4 2.56 36.8C4.16 36.96 5.44 37.2 6.48 37.44C8.72 37.92 9.2 38.88 9.36 41.68C9.52 44.16 9.44 49.6 9.44 58.8C9.44 67.44 9.36 74 9.2 76.72C9.04 79.92 8.64 80.8 6.72 81.36C5.76 81.6 4.16 81.76 2.48 82C2.24 82.24 2.24 83.92 2.56 84.24C4.4 84.24 9.36 84 13.04 84C16.16 84 21.76 84.24 24.08 84.24C24.32 84 24.48 82.24 24.16 81.92C22.24 81.68 20.56 81.52 19.36 81.2C17.12 80.64 16.64 80 16.4 77.12C16.24 73.04 16.32 66.96 16.32 57.84C16.32 44.88 16.4 40.72 16.48 38.88C16.56 38.32 16.88 37.92 17.12 37.76C17.68 37.44 19.68 37.36 20.48 37.36C29.6 37.36 33.28 42.72 33.28 50.08C33.28 54.64 32.08 58.32 28.4 60.4C26.8 61.2 25.2 61.6 22.8 61.6C21.6 61.6 20.4 61.52 19.68 61.36C19.52 61.44 19.36 61.76 19.36 62.08C19.44 62.48 19.92 63.68 20.4 64ZM50.6319 36.72C52.4719 36.96 53.8319 37.2 54.8719 37.52C56.7919 38 57.1119 38.72 57.2719 41.6C57.3519 43.04 57.3519 50.16 57.3519 57.44C57.3519 66.48 57.3519 75.28 57.2719 76.8C57.0319 79.6 56.4719 80.64 54.5519 81.12C53.1119 81.52 50.9519 81.68 48.4719 81.92C48.1519 82.32 48.2319 84 48.5519 84.24C51.8319 84.24 55.8319 84 61.1919 84C69.5119 84 75.2719 84.32 81.9919 84.32C85.9919 84.32 86.4719 83.92 86.9519 83.04C88.1519 80.64 89.9119 74.56 90.3119 72.08C89.9919 71.68 88.3919 71.12 87.9919 71.2C86.9519 73.6 85.2719 76.8 83.9919 78.24C82.5519 80.08 81.5119 80.8 78.0719 80.88C74.7919 80.88 67.8319 80.8 66.2319 80.4C65.2719 80.08 64.3919 78.96 64.3919 77.36C64.2319 73.52 64.2319 65.04 64.2319 61.36C64.2319 61.12 64.4719 60.72 64.6319 60.72C67.5919 60.64 74.2319 60.64 76.6319 60.88C78.4719 61.04 79.0319 62.08 79.3519 63.2C79.6719 64.16 79.7519 64.8 79.9919 66.48C80.3919 66.88 82.3119 66.8 82.7119 66.4C82.6319 64.4 82.5519 62.08 82.5519 59.12C82.5519 56.32 82.8719 53.2 83.1119 51.6C82.7919 51.2 80.9519 51.12 80.4719 51.36C80.2319 52.56 79.9119 53.68 79.5919 54.56C79.1919 55.84 78.6319 56.8 76.8719 56.96C73.9919 57.2 67.8319 57.2 64.6319 57.12C64.3919 57.12 64.2319 56.8 64.2319 56.56C64.2319 52.96 64.2319 44.08 64.3119 39.6C64.3119 39.2 64.7119 38.24 65.2719 38.08C66.3119 38 75.9919 38 77.5119 38.08C80.1519 38.32 80.8719 39.2 81.5119 41.12C81.8319 42.32 82.1519 43.68 82.3919 46C82.6319 46.24 84.5519 46.24 84.8719 45.84C85.1119 42.64 85.6719 37.28 86.3119 34.88C86.3119 34.8 86.0719 34.56 85.9919 34.48C84.3119 34.72 80.1519 34.8 77.1119 34.8H61.3519C56.8719 34.8 52.7119 34.48 50.7119 34.48C50.3919 34.88 50.2319 36.4 50.6319 36.72ZM98.6013 81.92C98.3613 82.16 98.4413 84 98.6013 84.24C101.401 84.24 104.841 84 108.921 84C113.161 84 118.121 84.24 120.681 84.24C121.001 83.92 121.001 82.24 120.761 81.92C118.601 81.68 117.081 81.52 115.641 81.2C113.321 80.64 112.841 79.52 112.681 76.96C112.681 72.56 112.601 64.96 112.601 58.88C112.601 53.28 112.681 44.24 112.761 39.6C112.761 39.12 113.081 38.24 113.641 38.16C115.961 37.92 123.721 38.08 126.601 38.16C128.841 38.32 129.641 39.12 130.361 40.88C131.001 42.64 131.481 45.6 131.721 47.84C132.121 48.08 133.961 48 134.281 47.6C134.441 43.2 135.161 36.88 135.721 34.96C135.801 34.72 135.481 34.32 135.241 34.32C133.641 34.64 130.761 34.8 127.641 34.8H108.841C104.601 34.8 100.601 34.56 99.0013 34.56C98.7613 34.8 98.6813 36.56 98.9212 36.8C101.001 37.04 102.361 37.28 103.481 37.6C105.241 38.24 105.481 38.96 105.561 41.6C105.721 44.08 105.721 50 105.721 58.8C105.721 68.4 105.721 74.16 105.641 77.04C105.481 79.92 105.081 80.72 102.841 81.28C101.881 81.52 100.441 81.76 98.6013 81.92ZM144.869 81.92C144.629 82.24 144.709 83.92 144.949 84.24C146.789 84.16 152.069 84 155.749 84C159.349 84 162.309 84.16 165.989 84.24C166.389 84 166.549 82.32 166.229 81.92C164.149 81.68 162.629 81.36 161.509 81.04C159.429 80.48 159.109 79.36 159.029 76.64C159.029 76.16 159.189 75.6 159.669 75.2C160.309 74.4 185.029 47.92 185.669 47.04C185.829 46.72 186.149 47.04 186.149 47.28C186.149 52.32 186.149 74.56 185.989 77.36C185.909 79.44 185.509 80.56 184.229 81.04C183.189 81.44 181.189 81.76 179.349 81.92C179.029 82.24 179.029 83.92 179.349 84.24C181.429 84.16 185.349 84 189.669 84C195.509 84 198.069 84.24 200.309 84.24C200.709 84.08 200.869 82.24 200.629 81.92C198.229 81.68 196.629 81.44 195.429 81.04C193.909 80.56 193.429 79.6 193.269 77.36C193.029 74.48 193.029 65.6 193.029 58.72C193.029 49.2 193.029 44.64 193.189 41.84C193.349 39.12 193.589 38.24 195.349 37.6C196.389 37.2 198.069 37.12 199.589 36.88C199.909 36.48 199.909 34.8 199.669 34.48C197.989 34.48 193.589 34.8 189.589 34.8C185.349 34.8 181.429 34.48 179.749 34.48C179.349 34.8 179.349 36.48 179.669 36.8C181.749 37.12 183.349 37.28 184.389 37.76C185.589 38.16 185.989 38.96 186.069 40.24C186.069 40.56 186.149 41.04 186.069 41.52C185.989 41.76 185.829 42.32 185.669 42.56C182.309 46.8 161.509 68.88 159.429 71.04C159.269 71.2 159.029 71.2 158.949 70.96C158.949 63.04 158.949 43.92 159.109 41.2C159.189 38.8 159.669 38.08 161.269 37.6C162.229 37.28 163.829 37.04 165.189 36.8C165.509 36.56 165.589 34.88 165.269 34.56C162.949 34.56 159.749 34.8 155.269 34.8C149.909 34.8 147.269 34.56 145.029 34.56C144.709 34.88 144.709 36.4 144.949 36.8C147.189 37.12 148.709 37.36 149.989 37.76C151.509 38.24 151.829 39.12 151.989 41.2C152.069 42.56 152.149 51.36 152.149 59.12C152.149 66.08 152.069 72.8 152.069 75.52C151.909 79.2 151.589 80.48 149.269 81.2C148.229 81.52 146.789 81.68 144.869 81.92ZM235.673 85.44C243.673 85.44 251.753 81.84 256.713 74.96C259.993 70.4 261.593 65.36 261.593 58.32C261.593 45.28 253.352 33.36 237.033 33.36C228.793 33.36 220.073 37.44 215.673 43.52C212.473 47.92 210.713 53.04 210.713 58.96C210.713 66.16 212.793 72.88 217.593 78.16C221.753 82.64 227.993 85.44 235.673 85.44ZM238.713 81.92C234.633 81.92 231.513 80.96 228.713 79.2C221.673 74.64 218.553 65.52 218.553 57.12C218.553 48.96 221.273 41.76 227.113 38.32C229.113 37.2 231.513 36.56 234.313 36.56C238.473 36.56 241.913 37.76 244.793 39.76C251.113 44.16 253.993 52.48 253.993 61.12C253.993 68.48 252.233 75.12 247.273 79.12C245.193 80.88 242.073 81.92 238.713 81.92ZM272.32 36.8C274.48 37.12 275.92 37.28 277.12 37.68C278.72 38.08 279.2 38.96 279.36 41.2C279.44 42.64 279.52 51.12 279.52 58.88C279.52 65.84 279.44 72.64 279.44 75.36C279.2 79.04 278.96 80.48 276.64 81.2C275.52 81.44 274.24 81.68 272.32 81.92C272.08 82.24 272.08 83.92 272.4 84.24C274 84.24 278.32 84 283.04 84C288.16 84 291.92 84.24 293.44 84.24C293.76 84.08 294.08 82.32 293.76 81.92C291.36 81.6 290.16 81.28 288.96 80.96C286.96 80.4 286.64 79.28 286.48 76.56C286.4 74.88 286.4 65.68 286.4 61.28C286.4 61.2 286.48 60.8 286.64 60.8C287.44 60.72 294 60.72 300.24 60.72C304.64 60.72 311.44 60.72 312.96 60.8C313.2 60.8 313.44 61.12 313.44 61.36C313.44 66.4 313.44 75.12 313.36 77.44C313.2 79.92 312.72 80.72 311.28 81.12C310 81.52 308.8 81.68 306.72 81.92C306.4 82.32 306.4 83.92 306.72 84.24C308.8 84.16 312.8 84 316.88 84C320.96 84 325.2 84.24 327.6 84.24C328.08 84 328.16 82.24 327.92 81.92C325.44 81.68 323.92 81.44 322.8 81.04C321.28 80.56 320.8 79.68 320.56 77.44C320.4 74.72 320.4 65.92 320.4 58.96C320.4 49.44 320.4 44.72 320.56 41.92C320.72 39.04 321.04 38.16 322.8 37.6C323.84 37.28 325.2 37.04 326.96 36.8C327.28 36.48 327.2 34.88 326.96 34.56C325.68 34.56 321.04 34.8 317.04 34.8C312.8 34.8 308.88 34.48 307.04 34.48C306.64 34.88 306.56 36.48 306.96 36.8C309.04 37.04 310.48 37.28 311.68 37.68C312.8 38.08 313.2 39.04 313.28 40.32C313.44 43.2 313.44 52.24 313.44 56.4C313.44 56.56 313.2 56.88 312.96 56.88C312.24 56.96 309.2 56.96 300.4 57.04C288.8 57.04 287.36 56.96 286.8 56.88C286.56 56.8 286.4 56.4 286.4 56.08C286.4 48.24 286.32 44.16 286.48 41.2C286.56 38.64 287.12 38 288.72 37.52C289.6 37.28 291.12 37.04 292.56 36.8C292.88 36.56 292.88 34.96 292.64 34.56C290.4 34.56 288 34.8 282.64 34.8C278.32 34.8 274.32 34.56 272.4 34.56C272.08 34.88 272 36.48 272.32 36.8Z" fill="#414141"/>
<path d="M3.744 15V3.8H11.088L11.072 5.192H4.928L5.312 4.792L5.328 15H3.744ZM16.034 15V3.8H20.402C21.3833 3.8 22.2207 3.95467 22.914 4.264C23.6073 4.57333 24.1407 5.02133 24.514 5.608C24.8873 6.19467 25.074 6.89333 25.074 7.704C25.074 8.51467 24.8873 9.21333 24.514 9.8C24.1407 10.376 23.6073 10.824 22.914 11.144C22.2207 11.4533 21.3833 11.608 20.402 11.608H16.914L17.634 10.856V15H16.034ZM17.634 11.016L16.914 10.216H20.354C21.378 10.216 22.1513 9.99733 22.674 9.56C23.2073 9.12267 23.474 8.504 23.474 7.704C23.474 6.904 23.2073 6.28533 22.674 5.848C22.1513 5.41067 21.378 5.192 20.354 5.192H16.914L17.634 4.392V11.016ZM30.0576 13.592C30.6123 13.7947 31.1243 13.848 31.5936 13.752C32.063 13.6453 32.4843 13.288 32.8576 12.68L33.4016 11.816L33.5616 11.64L37.6736 3.8H39.2576L34.2816 13.016C33.9083 13.72 33.471 14.2533 32.9696 14.616C32.479 14.968 31.9456 15.16 31.3696 15.192C30.8043 15.2347 30.2283 15.128 29.6416 14.872L30.0576 13.592ZM33.5136 13.064L28.6016 3.8H30.3136L34.3936 11.784L33.5136 13.064ZM43.9577 15V3.8H53.6057V15H52.0377V4.776L52.4217 5.192H45.1417L45.5417 4.776V15H43.9577ZM60.1384 15V3.8H69.7864V15H68.2184V4.776L68.6024 5.192H61.3224L61.7224 4.776V15H60.1384ZM74.767 15L79.839 3.8H81.423L86.511 15H84.831L80.303 4.696H80.943L76.415 15H74.767ZM76.927 12.2L77.359 10.92H83.663L84.127 12.2H76.927ZM106.357 15L102.293 9.48L103.589 8.68L108.181 15H106.357ZM98.8209 15V3.8H100.389V15H98.8209ZM99.9089 10.072V8.664H103.541V10.072H99.9089ZM103.733 9.576L102.261 9.352L106.277 3.8H107.989L103.733 9.576ZM117.87 15.128C117.016 15.128 116.222 14.984 115.486 14.696C114.76 14.408 114.131 14.008 113.598 13.496C113.064 12.9733 112.648 12.3653 112.35 11.672C112.051 10.9787 111.902 10.2213 111.902 9.4C111.902 8.57867 112.051 7.82133 112.35 7.128C112.648 6.43467 113.064 5.832 113.598 5.32C114.131 4.79733 114.76 4.392 115.486 4.104C116.211 3.816 117.006 3.672 117.87 3.672C118.723 3.672 119.507 3.816 120.222 4.104C120.947 4.38133 121.576 4.78133 122.11 5.304C122.654 5.816 123.07 6.41867 123.358 7.112C123.656 7.80533 123.806 8.568 123.806 9.4C123.806 10.232 123.656 10.9947 123.358 11.688C123.07 12.3813 122.654 12.9893 122.11 13.512C121.576 14.024 120.947 14.424 120.222 14.712C119.507 14.9893 118.723 15.128 117.87 15.128ZM117.87 13.704C118.488 13.704 119.059 13.5973 119.582 13.384C120.115 13.1707 120.574 12.872 120.958 12.488C121.352 12.0933 121.656 11.6347 121.87 11.112C122.094 10.5893 122.206 10.0187 122.206 9.4C122.206 8.78133 122.094 8.21067 121.87 7.688C121.656 7.16533 121.352 6.712 120.958 6.328C120.574 5.93333 120.115 5.62933 119.582 5.416C119.059 5.20267 118.488 5.096 117.87 5.096C117.24 5.096 116.659 5.20267 116.126 5.416C115.603 5.62933 115.144 5.93333 114.75 6.328C114.355 6.712 114.046 7.16533 113.822 7.688C113.608 8.21067 113.502 8.78133 113.502 9.4C113.502 10.0187 113.608 10.5893 113.822 11.112C114.046 11.6347 114.355 12.0933 114.75 12.488C115.144 12.872 115.603 13.1707 116.126 13.384C116.659 13.5973 117.24 13.704 117.87 13.704ZM129.432 15V3.8H130.744L135.768 12.264H135.064L140.024 3.8H141.336L141.352 15H139.816L139.8 6.216H140.168L135.752 13.64H135.016L130.568 6.216H130.968V15H129.432ZM147.878 15V3.8H157.526V15H155.958V4.776L156.342 5.192H149.062L149.462 4.776V15H147.878ZM162.507 15L167.579 3.8H169.163L174.251 15H172.571L168.043 4.696H168.683L164.155 15H162.507ZM164.667 12.2L165.099 10.92H171.403L171.867 12.2H164.667ZM187.256 3.8H188.856V15H187.256V3.8ZM180.824 15H179.224V3.8H180.824V15ZM187.4 10.008H180.664V8.616H187.4V10.008ZM195.389 15V3.8H196.973V12.44L203.597 3.8H205.069V15H203.501V6.376L196.861 15H195.389ZM211.601 15V3.8H213.185V12.44L219.809 3.8H221.281V15H219.713V6.376L213.073 15H211.601ZM216.417 3.016C215.542 3.016 214.865 2.824 214.385 2.44C213.916 2.056 213.676 1.51733 213.665 0.823999H214.801C214.812 1.24 214.961 1.56533 215.249 1.8C215.537 2.024 215.926 2.136 216.417 2.136C216.897 2.136 217.281 2.024 217.569 1.8C217.868 1.56533 218.022 1.24 218.033 0.823999H219.153C219.142 1.51733 218.897 2.056 218.417 2.44C217.948 2.824 217.281 3.016 216.417 3.016Z" fill="#414141"/>
</svg>
