<svg width="19" height="19" viewBox="0 0 19 19" fill="none" xmlns="http://www.w3.org/2000/svg">
<path d="M17.1 19H1.9C1.39609 19 0.912816 18.7964 0.556497 18.4341C0.200178 18.0718 0 17.5803 0 17.0679V6.48869C0.0157924 6.16935 0.10809 5.85878 0.268861 5.584C0.429632 5.30923 0.654003 5.07856 0.92245 4.91209L8.52245 0.275053C8.81763 0.0950691 9.15535 0 9.49953 0C9.8437 0 10.1814 0.0950691 10.4766 0.275053L18.0766 4.91209C18.6476 5.26277 18.9981 5.8907 19 6.56887V17.0679C19 17.5803 18.7998 18.0718 18.4435 18.4341C18.0872 18.7964 17.6039 19 17.1 19ZM1.9 7.27988V17.0679H17.1V7.27988L9.5 12.4318L1.9 7.27988ZM9.5 1.93183L3.1502 5.80569L9.5 10.1104L15.8489 5.80569L9.5 1.93183Z" fill="white"/>
</svg>
