<svg width="32" height="32" viewBox="0 0 32 32" fill="none" xmlns="http://www.w3.org/2000/svg">
<g clip-path="url(#clip0_824_80)">
<path d="M26.9655 7.89849C26.966 7.89892 26.9664 7.89935 26.9668 7.89979C27.6734 8.61197 27.9947 9.61769 27.8352 10.5871C27.1699 14.5833 25.0436 18.5733 21.8057 21.8082C18.5634 25.0475 14.5698 27.1762 10.5875 27.832L10.5875 27.832L10.5787 27.8335C10.4212 27.8609 10.2598 27.875 10.0875 27.875C9.27015 27.875 8.4726 27.5451 7.89918 26.9693L7.89773 26.9679L4.57586 23.646C4.28444 23.3546 4.125 22.9711 4.125 22.5594L4.125 22.5582C4.12477 22.3568 4.16436 22.1573 4.24151 21.9712C4.31865 21.7852 4.43183 21.6162 4.57453 21.4741L4.57524 21.4733L8.15962 17.8952L8.16023 17.8946C8.45165 17.6032 8.83514 17.4438 9.24688 17.4438H9.24712C9.44813 17.4437 9.64717 17.4834 9.83281 17.5605C10.0184 17.6376 10.187 17.7506 10.3288 17.8931L10.3304 17.8946L12.9491 20.5134C13.2443 20.8085 13.6917 20.8893 14.0714 20.716C15.5316 20.0496 16.8597 19.1255 17.9919 17.9879C19.1271 16.8552 20.0481 15.5266 20.7107 14.0663C20.8828 13.6869 20.8017 13.2406 20.5071 12.946L17.8884 10.3273C17.5969 10.0358 17.4375 9.65236 17.4375 9.24063V9.24038C17.4375 9.03937 17.4771 8.84033 17.5542 8.65469C17.6313 8.46905 17.7444 8.30048 17.8868 8.15866L17.8884 8.15711L21.4696 4.57586C21.761 4.28444 22.1445 4.125 22.5563 4.125L22.5565 4.125C22.7575 4.12495 22.9566 4.16462 23.1422 4.24173C23.3278 4.31883 23.4964 4.43185 23.6382 4.57431L23.6401 4.57619L26.9655 7.89849Z" stroke="#4D4D4D" stroke-width="2" stroke-linejoin="round"/>
<path d="M12.2826 7.99628C12.3349 8.00124 12.3876 8.00124 12.4398 7.99628C12.6267 7.95426 12.7884 7.84542 12.8898 7.69329C12.9913 7.54117 13.0244 7.35797 12.982 7.18329L11.4477 0.537997C11.4068 0.361217 11.2921 0.20684 11.1289 0.108827C10.9657 0.0108138 10.7674 -0.0228066 10.5776 0.0153618C10.3878 0.0535302 10.2221 0.160361 10.1168 0.312352C10.0116 0.464343 9.97551 0.649045 10.0165 0.825825L11.567 7.46102C11.6019 7.61332 11.6922 7.74973 11.8226 7.84724C11.9529 7.94475 12.1154 7.99739 12.2826 7.99628Z" fill="#4D4D4D"/>
<path d="M6.40531 13C6.55064 12.9972 6.69022 12.9369 6.79851 12.83C6.90681 12.723 6.97658 12.5767 6.99508 12.4177C7.01358 12.2587 6.97956 12.0977 6.89925 11.9641C6.81894 11.8305 6.6977 11.7333 6.55771 11.6901L0.730533 10.0145C0.578253 9.97892 0.419396 10.0094 0.286986 10.0997C0.154575 10.1899 0.0587944 10.333 0.0195498 10.4991C-0.0196953 10.6652 0.000614107 10.8416 0.0762591 10.9916C0.151904 11.1416 0.277066 11.2537 0.425727 11.3046L6.2529 12.9753C6.30252 12.9908 6.35375 12.9991 6.40531 13Z" fill="#4D4D4D"/>
<path d="M8.28502 8.99999C8.45068 9.00082 8.61161 8.95246 8.74072 8.86304C8.88681 8.75888 8.97892 8.60901 8.99681 8.44636C9.01469 8.28371 8.95689 8.1216 8.83609 7.99566L4.30035 3.26163C4.24351 3.19204 4.17056 3.13335 4.0861 3.08925C4.00164 3.04514 3.90749 3.01659 3.80959 3.00537C3.71169 2.99416 3.61215 3.00054 3.51725 3.0241C3.42235 3.04766 3.33414 3.0879 3.25817 3.14228C3.18221 3.19666 3.12014 3.264 3.07587 3.34007C3.03161 3.41613 3.0061 3.49927 3.00097 3.58424C2.99583 3.66922 3.01118 3.75419 3.04603 3.8338C3.08089 3.91342 3.13451 3.98595 3.2035 4.04683L7.73395 8.7763C7.80079 8.84648 7.88491 8.90296 7.98023 8.94165C8.07554 8.98034 8.17966 9.00027 8.28502 8.99999Z" fill="#4D4D4D"/>
</g>
<defs>
<clipPath id="clip0_824_80">
<rect width="32" height="32" fill="white"/>
</clipPath>
</defs>
</svg>
