<svg width="208" height="72" viewBox="0 0 208 72" fill="none" xmlns="http://www.w3.org/2000/svg">
<rect width="208" height="72" rx="10" fill="white"/>
<path d="M85.1746 30.7195H81.9551V22.6916H87.2764V24.0913H83.526V25.715H85.1746C86.7887 25.715 87.7856 26.7529 87.7856 28.2173C87.7813 29.6816 86.8017 30.7195 85.1746 30.7195ZM85.0926 27.1147H83.5217V29.3241H85.0926C85.7918 29.3241 86.2104 28.8848 86.2104 28.2173C86.2104 27.5626 85.7961 27.1147 85.0926 27.1147Z" fill="#004388"/>
<path d="M99.2353 22.6916C100.785 22.6916 101.889 23.7295 101.889 25.1939C101.889 26.6582 100.793 27.6961 99.2353 27.6961H97.6859V30.7195H96.115V22.6916H99.2353ZM99.1533 26.2878C99.8524 26.2878 100.319 25.8614 100.319 25.1939C100.319 24.5306 99.8567 24.087 99.1533 24.087H97.6859V26.2835H99.1533V26.2878Z" fill="#004388"/>
<path d="M113.892 30.7211V27.702H112.662L111.285 30.7254H109.42L111.082 27.3876C110.223 27.0172 109.692 26.2161 109.692 25.1997C109.692 23.7354 110.801 22.6974 112.346 22.6974H115.467V30.7254H113.892V30.7211ZM113.892 24.0929H112.424C111.725 24.0929 111.259 24.5322 111.259 25.1997C111.259 25.8544 111.721 26.2937 112.424 26.2937H113.892V24.0929Z" fill="#004388"/>
<path d="M128.406 30.7195V27.3602H125.682V30.7195H124.111V22.6916H125.682V25.9734H128.406V22.6916H129.976V30.7195H128.406Z" fill="#004388"/>
<path d="M142.509 30.5733C142.168 30.7068 141.763 30.7886 141.335 30.7886C140.464 30.7886 139.708 30.4828 139.143 29.91C138.353 29.1089 138.353 28.0495 138.353 26.7057V26.3784C138.353 24.7762 138.522 24.1345 139.143 23.5057C139.708 22.9329 140.455 22.6271 141.323 22.6271C141.763 22.6271 142.16 22.696 142.509 22.8425C142.893 23.0018 143.109 23.1353 143.549 23.5531L142.509 24.5911C142.069 24.1647 141.784 24.0269 141.323 24.0269C140.904 24.0269 140.567 24.1604 140.317 24.4446C139.92 24.8839 139.92 25.7194 139.92 26.4861V26.9124C139.92 28.1873 139.998 28.6266 140.317 28.9754C140.567 29.2554 140.895 29.3932 141.323 29.3932C141.797 29.3932 142.069 29.2554 142.509 28.829L143.549 29.8669C143.109 30.2804 142.893 30.4139 142.509 30.5733Z" fill="#004388"/>
<path d="M156.423 30.7195L154.356 27.0673L153.316 28.3077V30.7195H151.745V22.6916H153.316V26.1844L156.151 22.6916H158.059L155.392 25.883L158.249 30.7195H156.423Z" fill="#004388"/>
<path d="M170.7 29.9114C170.134 30.4971 169.401 30.79 168.529 30.79C167.657 30.79 166.915 30.4842 166.349 29.9114C165.503 29.0414 165.56 27.7149 165.56 26.8234V26.3841C165.56 24.7819 165.728 24.1402 166.349 23.5114C166.915 22.9386 167.661 22.6328 168.529 22.6328C169.388 22.6328 170.134 22.9386 170.7 23.5114C171.265 24.0885 171.502 24.8508 171.502 26.1515V26.7157C171.498 27.857 171.558 29.0199 170.7 29.9114ZM169.534 24.4546C169.284 24.1747 168.935 24.0282 168.529 24.0282C168.123 24.0282 167.761 24.1747 167.51 24.4546C167.148 24.8508 167.126 25.6045 167.126 26.5951C167.126 27.5771 167.083 28.5332 167.51 28.9639C167.782 29.2352 168.119 29.3902 168.529 29.3902C168.935 29.3902 169.284 29.2438 169.534 28.9639C169.862 28.5935 169.931 28.1973 169.931 26.5607C169.931 25.2428 169.849 24.8035 169.534 24.4546Z" fill="#004388"/>
<path d="M179.879 30.7195V22.6916H185.179V24.0913H181.45V25.9734H184.627V27.3731H181.45V29.3241H185.179V30.7238H179.879V30.7195Z" fill="#004388"/>
<path fill-rule="evenodd" clip-rule="evenodd" d="M187.212 50.7022H81.4761C79.793 50.7022 78.4163 49.3283 78.4163 47.6486V38.1219C78.4163 36.4422 79.793 35.0684 81.4761 35.0684H187.212C188.895 35.0684 190.272 36.4422 190.272 38.1219V47.6486C190.267 49.3283 188.895 50.7022 187.212 50.7022Z" fill="url(#paint0_linear_197_7298)"/>
<path d="M89.814 46.2797L88.2647 43.2951L87.5569 44.2124V46.2797H86.2363V44.2124L85.5285 43.2951L83.9921 46.2797H82.4341L84.661 42.2571L82.624 39.4921H84.2122L86.2363 42.4854V39.4921H87.5569V42.4854L89.581 39.4921H91.1691L89.1451 42.2571L91.3634 46.2797H89.814Z" fill="white"/>
<path d="M97.4745 46.2797V41.9212L94.8289 46.2797H93.6421V39.4921H94.9713V43.8377L97.6169 39.4921H98.8037V46.2797H97.4745Z" fill="white"/>
<path d="M105.45 46.2822V40.6746H103.901L103.823 43.5172C103.776 45.4251 103.05 46.2822 101.73 46.2822H101.147V45.0978H101.367C101.98 45.0978 102.446 44.7532 102.485 43.4569L102.589 39.4903H106.775V46.2778H105.45V46.2822Z" fill="white"/>
<path d="M113.633 46.2797V41.9212L110.987 46.2797H109.8V39.4921H111.13V43.8377L113.775 39.4921H114.962V46.2797H113.633Z" fill="white"/>
<path d="M125.333 47.7871V46.2797H117.974V39.4921H119.304V45.0996H121.241V39.4921H122.571V45.0996H124.504V39.4921H125.833V45.0996H126.619V47.7871H125.333Z" fill="white"/>
<path d="M132.725 46.2797V43.4372H130.421V46.2797H129.092V39.4921H130.421V42.2657H132.725V39.4921H134.055V46.2797H132.725Z" fill="white"/>
<path d="M141.184 45.598C140.705 46.0933 140.084 46.3431 139.35 46.3431C138.617 46.3431 137.982 46.0847 137.507 45.598C136.791 44.8615 136.839 43.7374 136.839 42.9837V42.6134C136.839 41.261 136.981 40.7183 137.507 40.1843C137.987 39.6976 138.617 39.4392 139.35 39.4392C140.075 39.4392 140.705 39.6976 141.184 40.1843C141.664 40.671 141.862 41.317 141.862 42.4152V42.8933C141.866 43.8623 141.914 44.8443 141.184 45.598ZM140.201 40.9811C139.989 40.7442 139.696 40.6193 139.35 40.6193C139.005 40.6193 138.699 40.7442 138.491 40.9811C138.185 41.317 138.168 41.9544 138.168 42.7942C138.168 43.6255 138.129 44.4351 138.491 44.7969C138.72 45.0252 139.009 45.1587 139.35 45.1587C139.696 45.1587 139.989 45.0338 140.201 44.7969C140.477 44.4825 140.537 44.1466 140.537 42.7641C140.537 41.6486 140.468 41.2782 140.201 40.9811Z" fill="white"/>
<path d="M144.65 46.2797V39.4921H149.13V40.6722H145.975V42.2657H148.659V43.4501H145.975V45.0996H149.13V46.284H144.65V46.2797Z" fill="white"/>
<path d="M158.232 46.2797H155.508V39.4921H160.01V40.6722H156.838V42.0461H158.232C159.6 42.0461 160.437 42.9247 160.437 44.165C160.441 45.4011 159.608 46.2797 158.232 46.2797ZM158.167 43.2305H156.838V45.0996H158.167C158.758 45.0996 159.112 44.7292 159.112 44.165C159.112 43.6095 158.758 43.2305 158.167 43.2305Z" fill="white"/>
<path d="M169.897 40.1786C170.402 40.6954 170.566 41.3501 170.566 42.2847C170.583 42.3407 170.583 42.8273 170.566 42.8876C170.566 44.072 170.575 44.8903 169.897 45.5966C169.418 46.0919 168.797 46.3417 168.063 46.3417C167.316 46.3417 166.695 46.0962 166.22 45.5966C165.655 45.0238 165.56 44.339 165.543 43.4432H164.52V46.2857H163.19V39.4938H164.52V42.2588H165.551C165.59 41.2682 165.715 40.7041 166.22 40.1786C166.69 39.6833 167.321 39.4335 168.054 39.4335C168.788 39.4335 169.409 39.6833 169.897 40.1786ZM169.237 42.6378C169.237 41.7592 169.168 41.2726 168.913 40.9797C168.702 40.7428 168.395 40.6179 168.054 40.6179C167.713 40.6179 167.403 40.7428 167.204 40.9797C166.936 41.2855 166.867 41.8281 166.867 42.6852V43.103C166.867 44.0935 166.945 44.4941 167.204 44.7826C167.416 45.0195 167.722 45.153 168.054 45.153C168.387 45.153 168.706 45.0195 168.913 44.7826C169.198 44.4682 169.237 43.9816 169.237 43.0384V42.6378Z" fill="white"/>
<path d="M175.987 39.4921C177.294 39.4921 178.231 40.3707 178.231 41.6068C178.231 42.8472 177.303 43.7257 175.987 43.7257H174.679V46.2797H173.35V39.4921H175.987ZM175.922 42.5328C176.513 42.5328 176.906 42.171 176.906 41.6068C176.906 41.0426 176.513 40.6722 175.922 40.6722H174.679V42.5328H175.922Z" fill="white"/>
<path d="M184.898 45.598C184.419 46.0933 183.798 46.3431 183.064 46.3431C182.33 46.3431 181.696 46.0847 181.221 45.598C180.505 44.8615 180.552 43.7374 180.552 42.9837V42.6134C180.552 41.261 180.695 40.7183 181.221 40.1843C181.7 39.6976 182.33 39.4392 183.064 39.4392C183.789 39.4392 184.419 39.6976 184.898 40.1843C185.377 40.671 185.576 41.317 185.576 42.4152V42.8933C185.576 43.8623 185.628 44.8443 184.898 45.598ZM183.914 40.9811C183.703 40.7442 183.409 40.6193 183.064 40.6193C182.719 40.6193 182.413 40.7442 182.205 40.9811C181.899 41.317 181.882 41.9544 181.882 42.7942C181.882 43.6255 181.843 44.4351 182.205 44.7969C182.434 45.0252 182.723 45.1587 183.064 45.1587C183.405 45.1587 183.703 45.0338 183.914 44.7969C184.191 44.4825 184.251 44.1466 184.251 42.7641C184.251 41.6486 184.182 41.2782 183.914 40.9811Z" fill="white"/>
<path d="M45.9963 57.1035C57.4374 57.1035 67.8297 58.1845 75.4858 59.9417C69.5646 57.2586 58.5767 53.5547 45.9963 53.5547C33.4159 53.5547 22.428 57.2586 16.5068 59.9417C24.163 58.1845 34.5553 57.1035 45.9963 57.1035Z" fill="#F7EB5C"/>
<path d="M33.2046 48.9854L23.5503 50.8201L42.272 13.1094H50.9596L33.2046 48.9854Z" fill="url(#paint1_linear_197_7298)"/>
<path d="M60.0182 21.7715H68.7058L50.9509 46.3549H42.2676L60.0182 21.7715Z" fill="url(#paint2_linear_197_7298)"/>
<path d="M60.0182 48.9854L69.979 51.5436L50.9509 13.1094H42.2676L60.0182 48.9854Z" fill="url(#paint3_linear_197_7298)"/>
<path d="M33.1529 21.7715H24.4653L42.2203 46.3549H50.9036L33.1529 21.7715Z" fill="url(#paint4_linear_197_7298)"/>
<path d="M45.9964 53.4765C58.9393 53.4765 70.6867 54.6996 79.3484 56.6894C72.6504 53.653 60.2211 49.4668 45.9964 49.4668C31.7674 49.4668 19.3423 53.653 12.6443 56.6894C21.306 54.6996 33.0534 53.4765 45.9964 53.4765Z" fill="url(#paint5_linear_197_7298)"/>
<defs>
<linearGradient id="paint0_linear_197_7298" x1="78.4188" y1="42.8886" x2="190.269" y2="42.8886" gradientUnits="userSpaceOnUse">
<stop stop-color="#0069B4"/>
<stop offset="0.1718" stop-color="#0058A0"/>
<stop offset="0.3851" stop-color="#00498F"/>
<stop offset="0.5248" stop-color="#004388"/>
</linearGradient>
<linearGradient id="paint1_linear_197_7298" x1="23.5485" y1="31.9647" x2="50.9585" y2="31.9647" gradientUnits="userSpaceOnUse">
<stop stop-color="#0069B4"/>
<stop offset="0.1714" stop-color="#0064AE"/>
<stop offset="0.4085" stop-color="#00579E"/>
<stop offset="0.6632" stop-color="#004388"/>
</linearGradient>
<linearGradient id="paint2_linear_197_7298" x1="42.2656" y1="34.0641" x2="68.704" y2="34.0641" gradientUnits="userSpaceOnUse">
<stop offset="0.3368" stop-color="#004388"/>
<stop offset="0.5915" stop-color="#00579E"/>
<stop offset="0.8286" stop-color="#0064AE"/>
<stop offset="1" stop-color="#0069B4"/>
</linearGradient>
<linearGradient id="paint3_linear_197_7298" x1="42.2656" y1="32.3267" x2="69.9804" y2="32.3267" gradientUnits="userSpaceOnUse">
<stop stop-color="#0069B4"/>
<stop offset="0.1714" stop-color="#0064AE"/>
<stop offset="0.4085" stop-color="#00579E"/>
<stop offset="0.6632" stop-color="#004388"/>
</linearGradient>
<linearGradient id="paint4_linear_197_7298" x1="24.4668" y1="34.0641" x2="50.9052" y2="34.0641" gradientUnits="userSpaceOnUse">
<stop offset="0.3368" stop-color="#004388"/>
<stop offset="0.5915" stop-color="#00579E"/>
<stop offset="0.8286" stop-color="#0064AE"/>
<stop offset="1" stop-color="#0069B4"/>
</linearGradient>
<linearGradient id="paint5_linear_197_7298" x1="12.6427" y1="53.0745" x2="79.3501" y2="53.0745" gradientUnits="userSpaceOnUse">
<stop stop-color="#0069B4"/>
<stop offset="0.1718" stop-color="#0058A0"/>
<stop offset="0.3851" stop-color="#00498F"/>
<stop offset="0.5248" stop-color="#004388"/>
</linearGradient>
</defs>
</svg>
